<svg width="16" height="16" viewBox="0 0 16 16" fill="none" xmlns="http://www.w3.org/2000/svg">
<path d="M0.5 7.83333C0.5 8.38562 0.947715 8.83333 1.5 8.83333H6.16667C6.71895 8.83333 7.16667 8.38562 7.16667 7.83333V1.5C7.16667 0.947715 6.71895 0.5 6.16667 0.5H1.5C0.947714 0.5 0.5 0.947715 0.5 1.5V7.83333ZM0.5 14.5C0.5 15.0523 0.947715 15.5 1.5 15.5H6.16667C6.71895 15.5 7.16667 15.0523 7.16667 14.5V11.5C7.16667 10.9477 6.71895 10.5 6.16667 10.5H1.5C0.947714 10.5 0.5 10.9477 0.5 11.5V14.5ZM8.83333 14.5C8.83333 15.0523 9.28105 15.5 9.83333 15.5H14.5C15.0523 15.5 15.5 15.0523 15.5 14.5V8.16667C15.5 7.61438 15.0523 7.16667 14.5 7.16667H9.83333C9.28105 7.16667 8.83333 7.61438 8.83333 8.16667V14.5ZM9.83333 0.5C9.28105 0.5 8.83333 0.947715 8.83333 1.5V4.5C8.83333 5.05228 9.28105 5.5 9.83333 5.5H14.5C15.0523 5.5 15.5 5.05228 15.5 4.5V1.5C15.5 0.947715 15.0523 0.5 14.5 0.5H9.83333Z" fill="#C4C4C4"/>
</svg>
