<svg width="20" height="18" viewBox="0 0 20 18" fill="none" xmlns="http://www.w3.org/2000/svg">
<path fill-rule="evenodd" clip-rule="evenodd" d="M3.33337 5.66667C2.87314 5.66667 2.50004 6.03977 2.50004 6.50001V14.8333C2.50004 15.2936 2.87314 15.6667 3.33337 15.6667H16.6667C17.1269 15.6667 17.5 15.2936 17.5 14.8333V6.50001C17.5 6.03977 17.1269 5.66667 16.6667 5.66667H3.33337ZM0.833374 6.50001C0.833374 5.11929 1.95266 4.00001 3.33337 4.00001H16.6667C18.0474 4.00001 19.1667 5.11929 19.1667 6.50001V14.8333C19.1667 16.2141 18.0474 17.3333 16.6667 17.3333H3.33337C1.95266 17.3333 0.833374 16.2141 0.833374 14.8333V6.50001Z" fill="#A86404"/>
<path fill-rule="evenodd" clip-rule="evenodd" d="M6.56561 1.3989C7.03445 0.930064 7.67033 0.666672 8.33337 0.666672H11.6667C12.3297 0.666672 12.9656 0.930064 13.4345 1.3989C13.9033 1.86775 14.1667 2.50363 14.1667 3.16667V16.5C14.1667 16.9602 13.7936 17.3333 13.3334 17.3333C12.8731 17.3333 12.5 16.9602 12.5 16.5V3.16667C12.5 2.94566 12.4122 2.7337 12.256 2.57742C12.0997 2.42114 11.8877 2.33334 11.6667 2.33334H8.33337C8.11236 2.33334 7.9004 2.42114 7.74412 2.57742C7.58784 2.7337 7.50004 2.94566 7.50004 3.16667V16.5C7.50004 16.9602 7.12694 17.3333 6.66671 17.3333C6.20647 17.3333 5.83337 16.9602 5.83337 16.5V3.16667C5.83337 2.50363 6.09677 1.86775 6.56561 1.3989Z" fill="#A86404"/>
</svg>
