<svg width="16" height="16" viewBox="0 0 16 16" fill="#C4C4C4" xmlns="http://www.w3.org/2000/svg">
<path d="M4.81106 4.11118C4.81106 2.34917 6.23793 0.92229 7.99995 0.92229C9.76196 0.92229 11.1888 2.34917 11.1888 4.11118C11.1888 5.87319 9.76196 7.30007 7.99995 7.30007C6.23793 7.30007 4.81106 5.87319 4.81106 4.11118ZM0.922168 12.8612C0.922168 12.4718 1.11169 12.0788 1.54717 11.6769C1.9874 11.2706 2.63067 10.9041 3.39793 10.5967C4.93358 9.98156 6.78953 9.67229 7.99995 9.67229C9.21036 9.67229 11.0663 9.98156 12.602 10.5967C13.3692 10.9041 14.0125 11.2706 14.4527 11.6769C14.8882 12.0788 15.0777 12.4718 15.0777 12.8612V15.0778H0.922168V12.8612Z" stroke="white" stroke-width="1.4"/>
</svg>
