<svg width="26" height="12" viewBox="0 0 26 12" fill="none" xmlns="http://www.w3.org/2000/svg">
<path fill-rule="evenodd" clip-rule="evenodd" d="M16.8996 11.7007C17.3787 12.0947 18.1624 12.1004 18.6502 11.7134L24.9523 6.71345C25.1893 6.52542 25.3228 6.26834 25.3228 6C25.3228 5.73166 25.1893 5.47458 24.9523 5.28655L18.6502 0.286551C18.1624 -0.100439 17.3787 -0.0947351 16.8996 0.299292C16.4206 0.693318 16.4276 1.32646 16.9154 1.71345L21.0578 5L1.8026 5C1.11893 5 0.564697 5.44771 0.564697 6C0.564697 6.55228 1.11893 7 1.8026 7L21.0578 7L16.9154 10.2866C16.4276 10.6735 16.4206 11.3067 16.8996 11.7007Z" fill="white"/>
</svg>
