<svg width="168" height="168" viewBox="0 0 168 168" fill="none" xmlns="http://www.w3.org/2000/svg">
<g filter="url(#filter0_d)">
<rect x="16" y="14" width="136" height="136" rx="6" fill="white"/>
<path d="M45.5323 114.16C46.183 114.331 46.6896 114.656 47.0523 115.136C47.415 115.605 47.5963 116.197 47.5963 116.912C47.5963 117.904 47.271 118.667 46.6203 119.2C45.9696 119.733 45.047 120 43.8523 120H39.2923V108.608H43.6923C44.855 108.608 45.751 108.869 46.3803 109.392C47.0096 109.904 47.3243 110.64 47.3243 111.6C47.3243 112.219 47.1643 112.747 46.8443 113.184C46.535 113.621 46.0976 113.947 45.5323 114.16ZM40.2683 113.776H43.5483C44.4656 113.776 45.159 113.589 45.6283 113.216C46.0976 112.843 46.3323 112.299 46.3323 111.584C46.3323 110.165 45.4043 109.456 43.5483 109.456H40.2683V113.776ZM43.7883 119.152C44.7483 119.152 45.4523 118.971 45.9003 118.608C46.359 118.245 46.5883 117.691 46.5883 116.944C46.5883 115.419 45.655 114.656 43.7883 114.656H40.2683V119.152H43.7883ZM57.2608 111.984V120H56.2848V118.464C56.0501 118.997 55.6928 119.408 55.2128 119.696C54.7435 119.973 54.1781 120.112 53.5168 120.112C52.8021 120.112 52.1728 119.947 51.6288 119.616C51.0955 119.275 50.6795 118.795 50.3808 118.176C50.0928 117.547 49.9488 116.816 49.9488 115.984C49.9488 115.152 50.0981 114.421 50.3968 113.792C50.6955 113.152 51.1115 112.661 51.6448 112.32C52.1888 111.968 52.8128 111.792 53.5168 111.792C54.1675 111.792 54.7275 111.931 55.1968 112.208C55.6768 112.485 56.0395 112.891 56.2848 113.424V111.984H57.2608ZM53.6608 119.248C54.4928 119.248 55.1381 118.96 55.5968 118.384C56.0555 117.808 56.2848 116.997 56.2848 115.952C56.2848 114.896 56.0555 114.08 55.5968 113.504C55.1381 112.928 54.4875 112.64 53.6448 112.64C52.8021 112.64 52.1461 112.939 51.6768 113.536C51.2075 114.123 50.9728 114.939 50.9728 115.984C50.9728 117.019 51.2075 117.824 51.6768 118.4C52.1461 118.965 52.8075 119.248 53.6608 119.248ZM61.7739 112.768V117.536C61.7739 118.176 61.8966 118.619 62.1419 118.864C62.3873 119.109 62.7499 119.232 63.2299 119.232C63.5286 119.232 63.8166 119.184 64.0939 119.088V119.968C63.7526 120.053 63.4059 120.096 63.0539 120.096C62.3499 120.096 61.7953 119.899 61.3899 119.504C60.9953 119.109 60.7979 118.517 60.7979 117.728V112.768H59.2139V111.984H60.7979V109.856L61.7739 109.488V111.984H64.1419V112.768H61.7739ZM73.1046 111.984V120H72.1286V118.464C71.8939 118.997 71.5366 119.408 71.0566 119.696C70.5872 119.973 70.0219 120.112 69.3606 120.112C68.6459 120.112 68.0166 119.947 67.4726 119.616C66.9392 119.275 66.5232 118.795 66.2246 118.176C65.9366 117.547 65.7926 116.816 65.7926 115.984C65.7926 115.152 65.9419 114.421 66.2406 113.792C66.5392 113.152 66.9552 112.661 67.4886 112.32C68.0326 111.968 68.6566 111.792 69.3606 111.792C70.0112 111.792 70.5712 111.931 71.0406 112.208C71.5206 112.485 71.8832 112.891 72.1286 113.424V111.984H73.1046ZM69.5046 119.248C70.3366 119.248 70.9819 118.96 71.4406 118.384C71.8992 117.808 72.1286 116.997 72.1286 115.952C72.1286 114.896 71.8992 114.08 71.4406 113.504C70.9819 112.928 70.3312 112.64 69.4886 112.64C68.6459 112.64 67.9899 112.939 67.5206 113.536C67.0512 114.123 66.8166 114.939 66.8166 115.984C66.8166 117.019 67.0512 117.824 67.5206 118.4C67.9899 118.965 68.6512 119.248 69.5046 119.248ZM77.6177 112.768V117.536C77.6177 118.176 77.7404 118.619 77.9857 118.864C78.231 119.109 78.5937 119.232 79.0737 119.232C79.3724 119.232 79.6604 119.184 79.9377 119.088V119.968C79.5964 120.053 79.2497 120.096 78.8977 120.096C78.1937 120.096 77.639 119.899 77.2337 119.504C76.839 119.109 76.6417 118.517 76.6417 117.728V112.768H75.0577V111.984H76.6417V109.856L77.6177 109.488V111.984H79.9857V112.768H77.6177ZM88.9483 111.984V120H87.9723V118.464C87.7376 118.997 87.3803 119.408 86.9003 119.696C86.431 119.973 85.8656 120.112 85.2043 120.112C84.4896 120.112 83.8603 119.947 83.3163 119.616C82.783 119.275 82.367 118.795 82.0683 118.176C81.7803 117.547 81.6363 116.816 81.6363 115.984C81.6363 115.152 81.7856 114.421 82.0843 113.792C82.383 113.152 82.799 112.661 83.3323 112.32C83.8763 111.968 84.5003 111.792 85.2043 111.792C85.855 111.792 86.415 111.931 86.8843 112.208C87.3643 112.485 87.727 112.891 87.9723 113.424V111.984H88.9483ZM85.3483 119.248C86.1803 119.248 86.8256 118.96 87.2843 118.384C87.743 117.808 87.9723 116.997 87.9723 115.952C87.9723 114.896 87.743 114.08 87.2843 113.504C86.8256 112.928 86.175 112.64 85.3323 112.64C84.4896 112.64 83.8336 112.939 83.3643 113.536C82.895 114.123 82.6603 114.939 82.6603 115.984C82.6603 117.019 82.895 117.824 83.3643 118.4C83.8336 118.965 84.495 119.248 85.3483 119.248ZM96.8236 108.608H103.688V109.456H97.8156V113.776H103.368V114.656H97.8156V120H96.8236V108.608ZM109.401 111.792C109.668 111.792 109.903 111.813 110.105 111.856L110.057 112.736C109.855 112.693 109.609 112.672 109.321 112.672C108.511 112.672 107.903 112.933 107.497 113.456C107.103 113.968 106.905 114.581 106.905 115.296V120H105.945V114.208C105.945 113.376 105.903 112.635 105.817 111.984H106.745L106.873 113.472C107.076 112.928 107.401 112.512 107.849 112.224C108.308 111.936 108.825 111.792 109.401 111.792ZM112.023 111.984H112.983V120H112.023V111.984ZM113.175 108.672V109.92H111.879V108.672H113.175ZM117.524 112.768V117.536C117.524 118.176 117.647 118.619 117.892 118.864C118.137 119.109 118.5 119.232 118.98 119.232C119.279 119.232 119.567 119.184 119.844 119.088V119.968C119.503 120.053 119.156 120.096 118.804 120.096C118.1 120.096 117.545 119.899 117.14 119.504C116.745 119.109 116.548 118.517 116.548 117.728V112.768H114.964V111.984H116.548V109.856L117.524 109.488V111.984H119.892V112.768H117.524ZM128.855 111.984V120H127.879V118.464C127.644 118.997 127.287 119.408 126.807 119.696C126.337 119.973 125.772 120.112 125.111 120.112C124.396 120.112 123.767 119.947 123.223 119.616C122.689 119.275 122.273 118.795 121.975 118.176C121.687 117.547 121.543 116.816 121.543 115.984C121.543 115.152 121.692 114.421 121.991 113.792C122.289 113.152 122.705 112.661 123.239 112.32C123.783 111.968 124.407 111.792 125.111 111.792C125.761 111.792 126.321 111.931 126.791 112.208C127.271 112.485 127.633 112.891 127.879 113.424V111.984H128.855ZM125.255 119.248C126.087 119.248 126.732 118.96 127.191 118.384C127.649 117.808 127.879 116.997 127.879 115.952C127.879 114.896 127.649 114.08 127.191 113.504C126.732 112.928 126.081 112.64 125.239 112.64C124.396 112.64 123.74 112.939 123.271 113.536C122.801 114.123 122.567 114.939 122.567 115.984C122.567 117.019 122.801 117.824 123.271 118.4C123.74 118.965 124.401 119.248 125.255 119.248Z" fill="#313030"/>
<path d="M92.0815 59.7243V38H80.4186V42.7169H75.3395V59.697L69 59.6867L72.6617 86H94.7594L98.4126 59.7384L92.0815 59.7243ZM87.0025 39.5021H90.5767V59.6885H87.0025V39.5021ZM81.9234 39.5021H85.4976V59.6885H81.9234V39.5021ZM76.8443 44.2218H80.4185V59.6885H76.8443V44.2218ZM93.4501 84.4951H73.9709L70.7306 61.1944L96.6837 61.2367L93.4501 84.4951Z" fill="#313030"/>
<path d="M73.1084 63.2673L75.7731 82.4258H91.6479L94.3079 63.306L73.1084 63.2673ZM83.7105 79.1338C80.6456 79.1338 78.1611 76.6493 78.1611 73.5844C78.1611 70.5196 80.6456 68.0351 83.7105 68.0351C86.7754 68.0351 89.2598 70.5196 89.2598 73.5844C89.2598 76.6493 86.7754 79.1338 83.7105 79.1338Z" fill="#FB9C05"/>
<path d="M83.7105 79.8862C80.2301 79.8862 77.4087 77.0647 77.4087 73.5844C77.4087 70.104 80.2301 67.2826 83.7105 67.2826C87.1908 67.2826 90.0123 70.104 90.0123 73.5844C90.0071 77.0626 87.1887 79.881 83.7105 79.8862ZM83.7105 68.7875C81.0612 68.7875 78.9136 70.9351 78.9136 73.5844C78.9136 76.2337 81.0612 78.3813 83.7105 78.3813C86.3598 78.3813 88.5074 76.2337 88.5074 73.5844C88.5033 70.9369 86.358 68.7916 83.7105 68.7875Z" fill="#313030"/>
</g>
<defs>
<filter id="filter0_d" x="0" y="0" width="168" height="168" filterUnits="userSpaceOnUse" color-interpolation-filters="sRGB">
<feFlood flood-opacity="0" result="BackgroundImageFix"/>
<feColorMatrix in="SourceAlpha" type="matrix" values="0 0 0 0 0 0 0 0 0 0 0 0 0 0 0 0 0 0 127 0"/>
<feOffset dy="2"/>
<feGaussianBlur stdDeviation="8"/>
<feColorMatrix type="matrix" values="0 0 0 0 0.235764 0 0 0 0 0.244708 0 0 0 0 0.291667 0 0 0 0.08 0"/>
<feBlend mode="multiply" in2="BackgroundImageFix" result="effect1_dropShadow"/>
<feBlend mode="normal" in="SourceGraphic" in2="effect1_dropShadow" result="shape"/>
</filter>
</defs>
</svg>
