<svg width="168" height="168" viewBox="0 0 168 168" fill="none" xmlns="http://www.w3.org/2000/svg">
<g filter="url(#filter0_d)">
<rect x="16" y="14" width="136" height="136" rx="6" fill="white"/>
<path d="M58.5267 108.608H65.3907V109.456H59.5187V113.776H65.0707V114.656H59.5187V120H58.5267V108.608ZM71.1043 111.792C71.371 111.792 71.6056 111.813 71.8083 111.856L71.7603 112.736C71.5576 112.693 71.3123 112.672 71.0243 112.672C70.2136 112.672 69.6056 112.933 69.2003 113.456C68.8056 113.968 68.6083 114.581 68.6083 115.296V120H67.6483V114.208C67.6483 113.376 67.6056 112.635 67.5203 111.984H68.4483L68.5763 113.472C68.779 112.928 69.1043 112.512 69.5523 112.224C70.011 111.936 70.5283 111.792 71.1043 111.792ZM80.3702 111.984V120H79.3942V118.464C79.1595 118.997 78.8022 119.408 78.3222 119.696C77.8529 119.973 77.2875 120.112 76.6262 120.112C75.9115 120.112 75.2822 119.947 74.7382 119.616C74.2049 119.275 73.7889 118.795 73.4902 118.176C73.2022 117.547 73.0582 116.816 73.0582 115.984C73.0582 115.152 73.2075 114.421 73.5062 113.792C73.8049 113.152 74.2209 112.661 74.7542 112.32C75.2982 111.968 75.9222 111.792 76.6262 111.792C77.2769 111.792 77.8369 111.931 78.3062 112.208C78.7862 112.485 79.1489 112.891 79.3942 113.424V111.984H80.3702ZM76.7702 119.248C77.6022 119.248 78.2475 118.96 78.7062 118.384C79.1649 117.808 79.3942 116.997 79.3942 115.952C79.3942 114.896 79.1649 114.08 78.7062 113.504C78.2475 112.928 77.5969 112.64 76.7542 112.64C75.9115 112.64 75.2555 112.939 74.7862 113.536C74.3169 114.123 74.0822 114.939 74.0822 115.984C74.0822 117.019 74.3169 117.824 74.7862 118.4C75.2555 118.965 75.9169 119.248 76.7702 119.248ZM87.2513 111.792C89.182 111.792 90.1473 112.827 90.1473 114.896V120H89.1713V114.96C89.1713 114.16 89.006 113.573 88.6753 113.2C88.3553 112.827 87.8486 112.64 87.1553 112.64C86.3553 112.64 85.71 112.885 85.2193 113.376C84.7286 113.867 84.4833 114.528 84.4833 115.36V120H83.5233V114.208C83.5233 113.376 83.4806 112.635 83.3953 111.984H84.3233L84.4513 113.456C84.6966 112.912 85.0646 112.501 85.5553 112.224C86.046 111.936 86.6113 111.792 87.2513 111.792ZM100.137 111.984V120.032C100.137 121.195 99.8493 122.075 99.2733 122.672C98.6973 123.269 97.8493 123.568 96.7293 123.568C95.5346 123.568 94.4946 123.28 93.6093 122.704L93.8013 121.856C94.324 122.165 94.804 122.384 95.2413 122.512C95.6786 122.64 96.18 122.704 96.7453 122.704C97.5453 122.704 98.148 122.485 98.5533 122.048C98.9693 121.611 99.1773 120.971 99.1773 120.128V118.064C98.932 118.608 98.5693 119.029 98.0893 119.328C97.6093 119.616 97.0333 119.76 96.3613 119.76C95.6573 119.76 95.0333 119.595 94.4893 119.264C93.9453 118.923 93.5186 118.453 93.2093 117.856C92.9106 117.248 92.7613 116.555 92.7613 115.776C92.7613 114.987 92.9106 114.293 93.2093 113.696C93.5186 113.088 93.9453 112.619 94.4893 112.288C95.0333 111.957 95.6573 111.792 96.3613 111.792C97.0333 111.792 97.604 111.931 98.0733 112.208C98.5533 112.485 98.916 112.891 99.1613 113.424V111.984H100.137ZM96.4893 118.88C97.3213 118.88 97.972 118.603 98.4413 118.048C98.9213 117.493 99.1613 116.736 99.1613 115.776C99.1613 114.805 98.9213 114.043 98.4413 113.488C97.972 112.923 97.3213 112.64 96.4893 112.64C95.6466 112.64 94.9853 112.923 94.5053 113.488C94.0253 114.043 93.7853 114.805 93.7853 115.776C93.7853 116.747 94.0253 117.509 94.5053 118.064C94.9853 118.608 95.6466 118.88 96.4893 118.88ZM106.473 120.112C105.737 120.112 105.086 119.941 104.521 119.6C103.966 119.259 103.534 118.773 103.225 118.144C102.926 117.515 102.777 116.784 102.777 115.952C102.777 115.12 102.926 114.389 103.225 113.76C103.534 113.131 103.966 112.645 104.521 112.304C105.086 111.963 105.737 111.792 106.473 111.792C107.198 111.792 107.838 111.963 108.393 112.304C108.948 112.645 109.374 113.131 109.673 113.76C109.982 114.389 110.137 115.12 110.137 115.952C110.137 116.784 109.982 117.515 109.673 118.144C109.374 118.773 108.948 119.259 108.393 119.6C107.838 119.941 107.198 120.112 106.473 120.112ZM106.457 119.248C107.31 119.248 107.966 118.965 108.425 118.4C108.894 117.824 109.129 117.008 109.129 115.952C109.129 114.907 108.894 114.096 108.425 113.52C107.956 112.933 107.305 112.64 106.473 112.64C105.63 112.64 104.974 112.933 104.505 113.52C104.036 114.096 103.801 114.907 103.801 115.952C103.801 117.019 104.03 117.835 104.489 118.4C104.948 118.965 105.604 119.248 106.457 119.248Z" fill="#313030"/>
<path d="M71.9681 68.3669V67.0619C71.9733 62.6112 75.5799 59.0045 80.0306 58.9994H83.849C89.5997 58.9994 94.4315 63.0035 95.7047 68.3744L71.9681 68.3669Z" fill="#FB9C05"/>
<path d="M108 70.4293H99.5756C99.4182 67.1694 98.252 64.0388 96.2381 61.4705C96.4745 60.6073 96.4651 59.6953 96.2109 58.8371L98.6831 56.3649C99.8509 57.2474 101.513 57.0164 102.396 55.8486C103.278 54.6809 103.047 53.0188 101.879 52.1362C101.409 51.7807 100.834 51.5922 100.244 51.6005C100.265 50.1369 99.0947 48.9338 97.6312 48.9134C96.1675 48.8928 94.9644 50.0627 94.944 51.5263C94.9357 52.1158 95.1243 52.6911 95.4797 53.1614L93.0103 55.6308C91.618 55.2155 90.1124 55.457 88.92 56.2871C87.2942 55.7364 85.5891 55.4564 83.8725 55.4583H80.0287C73.6115 55.4655 68.411 60.666 68.4037 67.0833V70.4302H60V71.9302H66.5512L69.9891 75.0868H98.0109L101.449 71.9302H108V70.4293ZM97.7316 53.0321L96.9628 52.5258C96.4315 52.1774 96.2833 51.4644 96.6317 50.9331C96.9801 50.4018 97.6931 50.2536 98.2244 50.602C98.7557 50.9504 98.9039 51.6634 98.5555 52.1947C98.5125 52.2603 98.4629 52.3213 98.4075 52.3768L99.4688 53.438C99.9179 52.9888 100.646 52.9887 101.095 53.4379C101.545 53.8871 101.545 54.6154 101.096 55.0647C100.646 55.5139 99.9181 55.514 99.4688 55.0648C99.4133 55.0093 99.3637 54.9482 99.3206 54.8827L98.8144 54.1139L95.5125 57.4158C95.2126 56.9992 94.8473 56.6339 94.4306 56.3339L97.7316 53.0321ZM69.9056 67.0824C69.9118 61.4931 74.4413 56.9636 80.0306 56.9574H83.8744C85.1463 56.9561 86.4126 57.1254 87.6394 57.4608L85.4241 59.6743L86.4844 60.7346L89.3278 57.8911C90.6054 56.6138 92.6766 56.614 93.9539 57.8916C95.2312 59.1692 95.2311 61.2404 93.9534 62.5177L91.11 65.3611L92.1703 66.4214L95.0138 63.578C95.1929 63.3986 95.3574 63.2052 95.5059 62.9996C97.0412 65.1865 97.9307 67.761 98.0728 70.4293H69.9056V67.0824ZM97.4269 73.5858H70.5731L68.7694 71.9293H99.2306L97.4269 73.5858Z" fill="#313030"/>
<path d="M72.9681 66.3953C72.9681 66.9648 73.4298 67.4265 73.9994 67.4265C74.5689 67.4265 75.0306 66.9648 75.0306 66.3953C75.0306 65.8257 74.5689 65.364 73.9994 65.364C73.4298 65.364 72.9681 65.8257 72.9681 66.3953Z" fill="#313030"/>
<path d="M77.8984 66.3953C77.8984 66.9648 78.3601 67.4265 78.9297 67.4265C79.4992 67.4265 79.9609 66.9648 79.9609 66.3953C79.9609 65.8257 79.4992 65.364 78.9297 65.364C78.3601 65.364 77.8984 65.8257 77.8984 66.3953Z" fill="#313030"/>
<path d="M75.4327 62.6807C75.4327 63.2502 75.8944 63.7119 76.464 63.7119C77.0335 63.7119 77.4952 63.2502 77.4952 62.6807C77.4952 62.1111 77.0335 61.6494 76.464 61.6494C75.8944 61.6494 75.4327 62.1111 75.4327 62.6807Z" fill="#313030"/>
</g>
<defs>
<filter id="filter0_d" x="0" y="0" width="168" height="168" filterUnits="userSpaceOnUse" color-interpolation-filters="sRGB">
<feFlood flood-opacity="0" result="BackgroundImageFix"/>
<feColorMatrix in="SourceAlpha" type="matrix" values="0 0 0 0 0 0 0 0 0 0 0 0 0 0 0 0 0 0 127 0"/>
<feOffset dy="2"/>
<feGaussianBlur stdDeviation="8"/>
<feColorMatrix type="matrix" values="0 0 0 0 0.235764 0 0 0 0 0.244708 0 0 0 0 0.291667 0 0 0 0.08 0"/>
<feBlend mode="multiply" in2="BackgroundImageFix" result="effect1_dropShadow"/>
<feBlend mode="normal" in="SourceGraphic" in2="effect1_dropShadow" result="shape"/>
</filter>
</defs>
</svg>
