<svg width="168" height="168" viewBox="0 0 168 168" fill="none" xmlns="http://www.w3.org/2000/svg">
<g filter="url(#filter0_d)">
<rect x="16" y="14" width="136" height="136" rx="6" fill="white"/>
<path d="M45.095 108.608V120H44.103V114.656H36.839V120H35.847V108.608H36.839V113.776H44.103V108.608H45.095ZM55.1905 111.984V120H54.2145V118.464C53.9798 118.997 53.6225 119.408 53.1425 119.696C52.6732 119.973 52.1078 120.112 51.4465 120.112C50.7318 120.112 50.1025 119.947 49.5585 119.616C49.0252 119.275 48.6092 118.795 48.3105 118.176C48.0225 117.547 47.8785 116.816 47.8785 115.984C47.8785 115.152 48.0278 114.421 48.3265 113.792C48.6252 113.152 49.0412 112.661 49.5745 112.32C50.1185 111.968 50.7425 111.792 51.4465 111.792C52.0972 111.792 52.6572 111.931 53.1265 112.208C53.6065 112.485 53.9692 112.891 54.2145 113.424V111.984H55.1905ZM51.5905 119.248C52.4225 119.248 53.0678 118.96 53.5265 118.384C53.9852 117.808 54.2145 116.997 54.2145 115.952C54.2145 114.896 53.9852 114.08 53.5265 113.504C53.0678 112.928 52.4172 112.64 51.5745 112.64C50.7318 112.64 50.0758 112.939 49.6065 113.536C49.1372 114.123 48.9025 114.939 48.9025 115.984C48.9025 117.019 49.1372 117.824 49.6065 118.4C50.0758 118.965 50.7372 119.248 51.5905 119.248ZM66.9836 111.792C68.7543 111.792 69.6396 112.827 69.6396 114.896V120H68.6636V114.96C68.6636 114.149 68.5196 113.563 68.2316 113.2C67.9436 112.827 67.485 112.64 66.8556 112.64C66.1196 112.64 65.5383 112.885 65.1116 113.376C64.6956 113.867 64.4876 114.533 64.4876 115.376V120H63.5116V114.96C63.5116 114.149 63.3623 113.563 63.0636 113.2C62.7756 112.827 62.317 112.64 61.6876 112.64C60.9623 112.64 60.381 112.885 59.9436 113.376C59.517 113.867 59.3036 114.533 59.3036 115.376V120H58.3436V114.208C58.3436 113.376 58.301 112.635 58.2156 111.984H59.1436L59.2716 113.424C59.4956 112.891 59.8263 112.485 60.2636 112.208C60.7116 111.931 61.229 111.792 61.8156 111.792C63.1063 111.792 63.933 112.315 64.2956 113.36C64.5196 112.869 64.8663 112.485 65.3356 112.208C65.8156 111.931 66.365 111.792 66.9836 111.792ZM76.4939 111.792C77.1979 111.792 77.8219 111.963 78.3659 112.304C78.9099 112.645 79.3259 113.125 79.6139 113.744C79.9125 114.363 80.0619 115.088 80.0619 115.92C80.0619 116.752 79.9125 117.488 79.6139 118.128C79.3152 118.757 78.8939 119.248 78.3499 119.6C77.8165 119.941 77.1979 120.112 76.4939 120.112C75.8325 120.112 75.2619 119.968 74.7819 119.68C74.3125 119.392 73.9605 118.976 73.7259 118.432V120H72.7499V108.224H73.7099V113.488C73.9445 112.933 74.3019 112.512 74.7819 112.224C75.2619 111.936 75.8325 111.792 76.4939 111.792ZM76.3819 119.248C77.2139 119.248 77.8645 118.955 78.3339 118.368C78.8032 117.781 79.0379 116.965 79.0379 115.92C79.0379 114.885 78.8032 114.08 78.3339 113.504C77.8645 112.928 77.2085 112.64 76.3659 112.64C75.5232 112.64 74.8725 112.928 74.4139 113.504C73.9552 114.08 73.7259 114.896 73.7259 115.952C73.7259 117.008 73.9552 117.824 74.4139 118.4C74.8725 118.965 75.5285 119.248 76.3819 119.248ZM89.151 111.984V120H88.207V118.544C87.951 119.056 87.5883 119.445 87.119 119.712C86.6497 119.979 86.111 120.112 85.503 120.112C84.5643 120.112 83.855 119.851 83.375 119.328C82.895 118.805 82.655 118.032 82.655 117.008V111.984H83.615V116.944C83.615 117.733 83.775 118.315 84.095 118.688C84.415 119.061 84.911 119.248 85.583 119.248C86.3723 119.248 87.0017 119.003 87.471 118.512C87.9403 118.011 88.175 117.349 88.175 116.528V111.984H89.151ZM95.7684 111.792C96.035 111.792 96.2697 111.813 96.4724 111.856L96.4244 112.736C96.2217 112.693 95.9764 112.672 95.6884 112.672C94.8777 112.672 94.2697 112.933 93.8644 113.456C93.4697 113.968 93.2724 114.581 93.2724 115.296V120H92.3124V114.208C92.3124 113.376 92.2697 112.635 92.1844 111.984H93.1124L93.2404 113.472C93.443 112.928 93.7684 112.512 94.2164 112.224C94.675 111.936 95.1924 111.792 95.7684 111.792ZM105.098 111.984V120.032C105.098 121.195 104.81 122.075 104.234 122.672C103.658 123.269 102.81 123.568 101.69 123.568C100.496 123.568 99.4556 123.28 98.5703 122.704L98.7623 121.856C99.2849 122.165 99.7649 122.384 100.202 122.512C100.64 122.64 101.141 122.704 101.706 122.704C102.506 122.704 103.109 122.485 103.514 122.048C103.93 121.611 104.138 120.971 104.138 120.128V118.064C103.893 118.608 103.53 119.029 103.05 119.328C102.57 119.616 101.994 119.76 101.322 119.76C100.618 119.76 99.9943 119.595 99.4503 119.264C98.9063 118.923 98.4796 118.453 98.1703 117.856C97.8716 117.248 97.7223 116.555 97.7223 115.776C97.7223 114.987 97.8716 114.293 98.1703 113.696C98.4796 113.088 98.9063 112.619 99.4503 112.288C99.9943 111.957 100.618 111.792 101.322 111.792C101.994 111.792 102.565 111.931 103.034 112.208C103.514 112.485 103.877 112.891 104.122 113.424V111.984H105.098ZM101.45 118.88C102.282 118.88 102.933 118.603 103.402 118.048C103.882 117.493 104.122 116.736 104.122 115.776C104.122 114.805 103.882 114.043 103.402 113.488C102.933 112.923 102.282 112.64 101.45 112.64C100.608 112.64 99.9463 112.923 99.4663 113.488C98.9863 114.043 98.7463 114.805 98.7463 115.776C98.7463 116.747 98.9863 117.509 99.4663 118.064C99.9463 118.608 100.608 118.88 101.45 118.88ZM114.698 111.984V120H113.754V118.544C113.498 119.056 113.135 119.445 112.666 119.712C112.197 119.979 111.658 120.112 111.05 120.112C110.111 120.112 109.402 119.851 108.922 119.328C108.442 118.805 108.202 118.032 108.202 117.008V111.984H109.162V116.944C109.162 117.733 109.322 118.315 109.642 118.688C109.962 119.061 110.458 119.248 111.13 119.248C111.919 119.248 112.549 119.003 113.018 118.512C113.487 118.011 113.722 117.349 113.722 116.528V111.984H114.698ZM118.371 115.872V115.92C118.371 116.997 118.617 117.824 119.107 118.4C119.609 118.965 120.334 119.248 121.283 119.248C122.243 119.248 123.123 118.917 123.923 118.256L124.307 119.024C123.955 119.355 123.507 119.621 122.963 119.824C122.419 120.016 121.859 120.112 121.283 120.112C120.067 120.112 119.107 119.744 118.403 119.008C117.699 118.272 117.347 117.259 117.347 115.968C117.347 115.147 117.502 114.421 117.811 113.792C118.131 113.152 118.574 112.661 119.139 112.32C119.705 111.968 120.355 111.792 121.091 111.792C122.147 111.792 122.969 112.133 123.555 112.816C124.153 113.499 124.451 114.448 124.451 115.664V115.872H118.371ZM121.091 112.592C120.355 112.592 119.758 112.816 119.299 113.264C118.841 113.701 118.553 114.32 118.435 115.12H123.523C123.459 114.299 123.219 113.675 122.803 113.248C122.387 112.811 121.817 112.592 121.091 112.592ZM129.655 120.112C128.353 120.112 127.324 119.755 126.567 119.04L126.919 118.288C127.345 118.64 127.772 118.891 128.199 119.04C128.636 119.189 129.137 119.264 129.703 119.264C130.364 119.264 130.865 119.152 131.207 118.928C131.559 118.693 131.735 118.357 131.735 117.92C131.735 117.557 131.617 117.275 131.383 117.072C131.159 116.859 130.785 116.688 130.263 116.56L128.903 116.256C128.263 116.107 127.756 115.84 127.383 115.456C127.02 115.072 126.839 114.624 126.839 114.112C126.839 113.408 127.105 112.848 127.639 112.432C128.183 112.005 128.903 111.792 129.799 111.792C130.364 111.792 130.887 111.883 131.367 112.064C131.857 112.245 132.263 112.507 132.583 112.848L132.215 113.6C131.479 112.96 130.673 112.64 129.799 112.64C129.18 112.64 128.7 112.763 128.359 113.008C128.017 113.253 127.847 113.595 127.847 114.032C127.847 114.395 127.953 114.688 128.167 114.912C128.391 115.136 128.732 115.301 129.191 115.408L130.567 115.744C132.007 116.064 132.727 116.773 132.727 117.872C132.727 118.544 132.449 119.088 131.895 119.504C131.34 119.909 130.593 120.112 129.655 120.112Z" fill="#313030"/>
<path d="M100.803 74.0707V75.0082C100.803 77.0564 99.1423 78.7169 97.0941 78.7169H70.9059C68.8577 78.7169 67.1972 77.0564 67.1972 75.0082V74.0707H100.803Z" fill="#FB9C05"/>
<path d="M100.756 54.388V55.9161H67.245V54.388C67.245 49.3594 71.3214 45.283 76.35 45.283H91.6509C96.6795 45.283 100.756 49.3594 100.756 54.388Z" fill="#FB9C05"/>
<path d="M108 64.243H107.062C108.38 62.5538 108.078 60.1166 106.389 58.7996C105.793 58.3347 105.074 58.0543 104.32 57.9926V54.388C104.32 47.4026 98.6372 41.7205 91.6528 41.7205H76.35C69.3647 41.7205 63.6825 47.4036 63.6825 54.388V57.9926C61.5475 58.1659 59.9572 60.0371 60.1305 62.1721C60.1917 62.9263 60.4722 63.6461 60.9375 64.243H60V65.743H61.9941V72.0083H63.6347V75.0083C63.6388 79.0224 66.8918 82.2754 70.9059 82.2795H97.0941C101.108 82.2754 104.361 79.0224 104.365 75.0083V72.0083H106.006V65.743H108V64.243ZM65.1816 54.388C65.1883 48.2226 70.1846 43.2263 76.35 43.2195H91.65C97.8154 43.2263 102.812 48.2226 102.818 54.388V57.9786H65.1816V54.388ZM64.0013 59.4786H103.999C105.315 59.4786 106.381 60.5454 106.381 61.8612C106.381 63.1771 105.315 64.2439 103.999 64.2439H64.0013C62.6854 64.2439 61.6186 63.1771 61.6186 61.8612C61.6186 60.5454 62.6854 59.4786 64.0013 59.4786ZM97.7859 65.7439L94.7109 67.1505L91.6359 65.7439H97.7859ZM102.864 75.0092C102.861 78.1951 100.279 80.7768 97.0931 80.7805H70.9059C67.72 80.7768 65.1383 78.1951 65.1347 75.0092V72.0092H102.865L102.864 75.0092ZM104.505 70.5092H63.4941V65.743H89.2031L94.7109 69.0555L100.219 65.743H104.505V70.5092Z" fill="#313030"/>
</g>
<defs>
<filter id="filter0_d" x="0" y="0" width="168" height="168" filterUnits="userSpaceOnUse" color-interpolation-filters="sRGB">
<feFlood flood-opacity="0" result="BackgroundImageFix"/>
<feColorMatrix in="SourceAlpha" type="matrix" values="0 0 0 0 0 0 0 0 0 0 0 0 0 0 0 0 0 0 127 0"/>
<feOffset dy="2"/>
<feGaussianBlur stdDeviation="8"/>
<feColorMatrix type="matrix" values="0 0 0 0 0.235764 0 0 0 0 0.244708 0 0 0 0 0.291667 0 0 0 0.08 0"/>
<feBlend mode="multiply" in2="BackgroundImageFix" result="effect1_dropShadow"/>
<feBlend mode="normal" in="SourceGraphic" in2="effect1_dropShadow" result="shape"/>
</filter>
</defs>
</svg>
