<svg width="168" height="168" viewBox="0 0 168 168" fill="none" xmlns="http://www.w3.org/2000/svg">
<g filter="url(#filter0_d)">
<rect x="16" y="14" width="136" height="136" rx="6" fill="white"/>
<path d="M48.0286 121.968C48.5086 122.053 48.8873 122.096 49.1646 122.096C49.73 122.096 50.1246 121.936 50.3486 121.616C50.5833 121.296 50.7006 120.741 50.7006 119.952V108.608H51.6926V119.984C51.6926 121.04 51.506 121.803 51.1326 122.272C50.77 122.741 50.1673 122.976 49.3246 122.976C48.9726 122.976 48.5406 122.933 48.0286 122.848V121.968ZM61.7999 111.984V120H60.8239V118.464C60.5892 118.997 60.2319 119.408 59.7519 119.696C59.2825 119.973 58.7172 120.112 58.0559 120.112C57.3412 120.112 56.7119 119.947 56.1679 119.616C55.6345 119.275 55.2185 118.795 54.9199 118.176C54.6319 117.547 54.4879 116.816 54.4879 115.984C54.4879 115.152 54.6372 114.421 54.9359 113.792C55.2345 113.152 55.6505 112.661 56.1839 112.32C56.7279 111.968 57.3519 111.792 58.0559 111.792C58.7065 111.792 59.2665 111.931 59.7359 112.208C60.2159 112.485 60.5785 112.891 60.8239 113.424V111.984H61.7999ZM58.1999 119.248C59.0319 119.248 59.6772 118.96 60.1359 118.384C60.5945 117.808 60.8239 116.997 60.8239 115.952C60.8239 114.896 60.5945 114.08 60.1359 113.504C59.6772 112.928 59.0265 112.64 58.1839 112.64C57.3412 112.64 56.6852 112.939 56.2159 113.536C55.7465 114.123 55.5119 114.939 55.5119 115.984C55.5119 117.019 55.7465 117.824 56.2159 118.4C56.6852 118.965 57.3465 119.248 58.1999 119.248ZM68.697 111.792C69.401 111.792 70.0197 111.968 70.553 112.32C71.097 112.661 71.5183 113.152 71.817 113.792C72.1157 114.421 72.265 115.152 72.265 115.984C72.265 116.816 72.1157 117.541 71.817 118.16C71.529 118.779 71.113 119.259 70.569 119.6C70.025 119.941 69.401 120.112 68.697 120.112C68.025 120.112 67.449 119.968 66.969 119.68C66.4997 119.381 66.1477 118.955 65.913 118.4V123.456H64.953V114.208C64.953 113.376 64.9103 112.635 64.825 111.984H65.753L65.881 113.552C66.1157 112.987 66.473 112.555 66.953 112.256C67.4437 111.947 68.025 111.792 68.697 111.792ZM68.569 119.248C69.4117 119.248 70.0677 118.965 70.537 118.4C71.0063 117.824 71.241 117.019 71.241 115.984C71.241 114.939 71.0063 114.123 70.537 113.536C70.0677 112.939 69.417 112.64 68.585 112.64C67.7317 112.64 67.0757 112.928 66.617 113.504C66.1583 114.08 65.929 114.896 65.929 115.952C65.929 116.997 66.1583 117.808 66.617 118.384C67.0757 118.96 67.7263 119.248 68.569 119.248ZM78.0901 120.112C77.3541 120.112 76.7035 119.941 76.1381 119.6C75.5835 119.259 75.1515 118.773 74.8421 118.144C74.5435 117.515 74.3941 116.784 74.3941 115.952C74.3941 115.12 74.5435 114.389 74.8421 113.76C75.1515 113.131 75.5835 112.645 76.1381 112.304C76.7035 111.963 77.3541 111.792 78.0901 111.792C78.8155 111.792 79.4555 111.963 80.0101 112.304C80.5648 112.645 80.9915 113.131 81.2901 113.76C81.5995 114.389 81.7541 115.12 81.7541 115.952C81.7541 116.784 81.5995 117.515 81.2901 118.144C80.9915 118.773 80.5648 119.259 80.0101 119.6C79.4555 119.941 78.8155 120.112 78.0901 120.112ZM78.0741 119.248C78.9275 119.248 79.5835 118.965 80.0421 118.4C80.5115 117.824 80.7461 117.008 80.7461 115.952C80.7461 114.907 80.5115 114.096 80.0421 113.52C79.5728 112.933 78.9221 112.64 78.0901 112.64C77.2475 112.64 76.5915 112.933 76.1221 113.52C75.6528 114.096 75.4181 114.907 75.4181 115.952C75.4181 117.019 75.6475 117.835 76.1061 118.4C76.5648 118.965 77.2208 119.248 78.0741 119.248ZM88.1185 111.792C90.0492 111.792 91.0145 112.827 91.0145 114.896V120H90.0385V114.96C90.0385 114.16 89.8732 113.573 89.5425 113.2C89.2225 112.827 88.7158 112.64 88.0225 112.64C87.2225 112.64 86.5772 112.885 86.0865 113.376C85.5958 113.867 85.3505 114.528 85.3505 115.36V120H84.3905V114.208C84.3905 113.376 84.3478 112.635 84.2625 111.984H85.1905L85.3185 113.456C85.5638 112.912 85.9318 112.501 86.4225 112.224C86.9132 111.936 87.4785 111.792 88.1185 111.792ZM94.6525 115.872V115.92C94.6525 116.997 94.8978 117.824 95.3885 118.4C95.8898 118.965 96.6152 119.248 97.5645 119.248C98.5245 119.248 99.4045 118.917 100.205 118.256L100.589 119.024C100.237 119.355 99.7885 119.621 99.2445 119.824C98.7005 120.016 98.1405 120.112 97.5645 120.112C96.3485 120.112 95.3885 119.744 94.6845 119.008C93.9805 118.272 93.6285 117.259 93.6285 115.968C93.6285 115.147 93.7832 114.421 94.0925 113.792C94.4125 113.152 94.8552 112.661 95.4205 112.32C95.9858 111.968 96.6365 111.792 97.3725 111.792C98.4285 111.792 99.2498 112.133 99.8365 112.816C100.434 113.499 100.733 114.448 100.733 115.664V115.872H94.6525ZM97.3725 112.592C96.6365 112.592 96.0392 112.816 95.5805 113.264C95.1218 113.701 94.8338 114.32 94.7165 115.12H99.8045C99.7405 114.299 99.5005 113.675 99.0845 113.248C98.6685 112.811 98.0978 112.592 97.3725 112.592ZM105.936 120.112C104.635 120.112 103.605 119.755 102.848 119.04L103.2 118.288C103.627 118.64 104.053 118.891 104.48 119.04C104.917 119.189 105.419 119.264 105.984 119.264C106.645 119.264 107.147 119.152 107.488 118.928C107.84 118.693 108.016 118.357 108.016 117.92C108.016 117.557 107.899 117.275 107.664 117.072C107.44 116.859 107.067 116.688 106.544 116.56L105.184 116.256C104.544 116.107 104.037 115.84 103.664 115.456C103.301 115.072 103.12 114.624 103.12 114.112C103.12 113.408 103.387 112.848 103.92 112.432C104.464 112.005 105.184 111.792 106.08 111.792C106.645 111.792 107.168 111.883 107.648 112.064C108.139 112.245 108.544 112.507 108.864 112.848L108.496 113.6C107.76 112.96 106.955 112.64 106.08 112.64C105.461 112.64 104.981 112.763 104.64 113.008C104.299 113.253 104.128 113.595 104.128 114.032C104.128 114.395 104.235 114.688 104.448 114.912C104.672 115.136 105.013 115.301 105.472 115.408L106.848 115.744C108.288 116.064 109.008 116.773 109.008 117.872C109.008 118.544 108.731 119.088 108.176 119.504C107.621 119.909 106.875 120.112 105.936 120.112ZM118.534 111.984V120H117.558V118.464C117.324 118.997 116.966 119.408 116.486 119.696C116.017 119.973 115.452 120.112 114.79 120.112C114.076 120.112 113.446 119.947 112.902 119.616C112.369 119.275 111.953 118.795 111.654 118.176C111.366 117.547 111.222 116.816 111.222 115.984C111.222 115.152 111.372 114.421 111.67 113.792C111.969 113.152 112.385 112.661 112.918 112.32C113.462 111.968 114.086 111.792 114.79 111.792C115.441 111.792 116.001 111.931 116.47 112.208C116.95 112.485 117.313 112.891 117.558 113.424V111.984H118.534ZM114.934 119.248C115.766 119.248 116.412 118.96 116.87 118.384C117.329 117.808 117.558 116.997 117.558 115.952C117.558 114.896 117.329 114.08 116.87 113.504C116.412 112.928 115.761 112.64 114.918 112.64C114.076 112.64 113.42 112.939 112.95 113.536C112.481 114.123 112.246 114.939 112.246 115.984C112.246 117.019 112.481 117.824 112.95 118.4C113.42 118.965 114.081 119.248 114.934 119.248Z" fill="#313030"/>
<g clip-path="url(#clip0)">
<path d="M68.4645 42.8333C63.0528 44.6041 57.3806 47.8537 55.0194 53.5219C52.4645 56.574 59.1512 71.7569 61.4393 70.1041C64.8383 71.433 74.7793 59.3958 77.2816 55.8608C86.5031 42.8333 73.8762 41.0625 68.4645 42.8333Z" fill="#FB9C05"/>
<path d="M111.379 88.8934C111.173 88.8934 111.006 89.0796 111.006 89.3095C111.006 89.5394 111.173 89.7256 111.379 89.7256C111.585 89.7256 111.752 89.5393 111.752 89.3095C111.752 89.0796 111.585 88.8934 111.379 88.8934Z" fill="black"/>
<path d="M112.628 90.1843C112.421 90.1843 112.254 90.3707 112.254 90.6004C112.254 90.8303 112.421 91.0165 112.628 91.0165C112.834 91.0165 113.001 90.8303 113.001 90.6004C113.001 90.3705 112.834 90.1843 112.628 90.1843Z" fill="black"/>
<path d="M111.379 91.5763C111.173 91.5763 111.006 91.7625 111.006 91.9924C111.006 92.2223 111.173 92.4085 111.379 92.4085C111.585 92.4085 111.752 92.2221 111.752 91.9924C111.752 91.7625 111.585 91.5763 111.379 91.5763Z" fill="black"/>
<path d="M108.973 87.043C109.179 87.043 109.346 86.8566 109.346 86.6269C109.346 86.397 109.179 86.2108 108.973 86.2108C108.766 86.2108 108.599 86.3972 108.599 86.6269C108.599 86.8568 108.766 87.043 108.973 87.043Z" fill="black"/>
<path d="M110.221 87.5016C110.015 87.5016 109.848 87.6878 109.848 87.9177C109.848 88.1476 110.015 88.3338 110.221 88.3338C110.427 88.3338 110.594 88.1476 110.594 87.9177C110.594 87.6878 110.427 87.5016 110.221 87.5016Z" fill="black"/>
<path d="M108.973 89.7256C109.179 89.7256 109.346 89.5393 109.346 89.3095C109.346 89.0796 109.179 88.8934 108.973 88.8934C108.766 88.8934 108.599 89.0796 108.599 89.3095C108.599 89.5393 108.766 89.7256 108.973 89.7256Z" fill="black"/>
<path d="M110.594 90.6004C110.594 90.3707 110.427 90.1843 110.221 90.1843C110.015 90.1843 109.848 90.3707 109.848 90.6004C109.848 90.8303 110.015 91.0165 110.221 91.0165C110.427 91.0165 110.594 90.8303 110.594 90.6004Z" fill="black"/>
<path d="M106.566 84.3601C106.772 84.3601 106.939 84.1739 106.939 83.944C106.939 83.7142 106.772 83.528 106.566 83.528C106.36 83.528 106.193 83.7143 106.193 83.944C106.193 84.1738 106.36 84.3601 106.566 84.3601Z" fill="black"/>
<path d="M107.815 85.651C108.021 85.651 108.188 85.4647 108.188 85.2349C108.188 85.0051 108.021 84.8188 107.815 84.8188C107.608 84.8188 107.441 85.0051 107.441 85.2349C107.441 85.4648 107.608 85.651 107.815 85.651Z" fill="black"/>
<path d="M106.566 87.043C106.772 87.043 106.939 86.8566 106.939 86.6269C106.939 86.397 106.772 86.2108 106.566 86.2108C106.36 86.2108 106.193 86.3972 106.193 86.6269C106.193 86.8568 106.36 87.043 106.566 87.043Z" fill="black"/>
<path d="M107.815 88.3338C108.021 88.3338 108.188 88.1476 108.188 87.9177C108.188 87.6878 108.021 87.5016 107.815 87.5016C107.608 87.5016 107.441 87.6878 107.441 87.9177C107.441 88.1476 107.608 88.3338 107.815 88.3338Z" fill="black"/>
<path d="M103.786 81.2613C103.786 81.4912 103.953 81.6774 104.159 81.6774C104.355 81.6774 104.515 81.5081 104.53 81.2937L104.08 80.8551C103.912 80.8958 103.786 81.062 103.786 81.2613Z" fill="black"/>
<path d="M105.035 82.5522C105.035 82.7821 105.202 82.9683 105.408 82.9683C105.614 82.9683 105.781 82.7819 105.781 82.5522C105.781 82.5378 105.779 82.5242 105.777 82.5103L105.395 82.1376C105.195 82.1453 105.035 82.3272 105.035 82.5522Z" fill="black"/>
<path d="M104.159 83.528C103.953 83.528 103.786 83.7143 103.786 83.944C103.786 84.1738 103.953 84.3601 104.159 84.3601C104.366 84.3601 104.533 84.1739 104.533 83.944C104.533 83.7142 104.365 83.528 104.159 83.528Z" fill="black"/>
<path d="M105.781 85.2349C105.781 85.0051 105.614 84.8188 105.408 84.8188C105.202 84.8188 105.035 85.0051 105.035 85.2349C105.035 85.4648 105.202 85.651 105.408 85.651C105.614 85.651 105.781 85.4648 105.781 85.2349Z" fill="black"/>
<path d="M101.753 78.9949C101.863 78.9949 101.961 78.9406 102.029 78.8559L101.47 78.3102C101.414 78.3829 101.38 78.4758 101.38 78.5787C101.38 78.8085 101.547 78.9949 101.753 78.9949Z" fill="black"/>
<path d="M102.628 79.8694C102.628 80.0993 102.795 80.2855 103.001 80.2855C103.129 80.2855 103.242 80.2134 103.309 80.1038L102.753 79.561C102.677 79.6373 102.628 79.7466 102.628 79.8694Z" fill="black"/>
<path d="M101.753 80.8453C101.547 80.8453 101.38 81.0317 101.38 81.2614C101.38 81.4913 101.547 81.6775 101.753 81.6775C101.959 81.6775 102.126 81.4913 102.126 81.2614C102.126 81.0317 101.959 80.8453 101.753 80.8453Z" fill="black"/>
<path d="M103.001 82.1362C102.795 82.1362 102.628 82.3224 102.628 82.5523C102.628 82.7822 102.795 82.9684 103.001 82.9684C103.208 82.9684 103.375 82.7821 103.375 82.5523C103.375 82.3226 103.208 82.1362 103.001 82.1362Z" fill="black"/>
<path d="M101.956 83.5955L102.031 83.6688C102.009 83.6408 101.984 83.6158 101.956 83.5955Z" fill="black"/>
<path d="M99.3463 76.3122C99.3691 76.3122 99.3912 76.3091 99.4128 76.3047L98.9747 75.8774C98.9745 75.8837 98.973 75.8897 98.973 75.8959C98.973 76.1258 99.1401 76.3122 99.3463 76.3122Z" fill="black"/>
<path d="M100.595 77.603C100.638 77.603 100.68 77.5932 100.719 77.5778L100.23 77.1012C100.224 77.1289 100.222 77.1575 100.222 77.1869C100.221 77.4167 100.389 77.603 100.595 77.603Z" fill="black"/>
<path d="M98.973 78.5786C98.973 78.8084 99.1402 78.9947 99.3463 78.9947C99.5525 78.9947 99.7195 78.8084 99.7195 78.5786C99.7195 78.3487 99.5524 78.1625 99.3463 78.1625C99.1401 78.1625 98.973 78.3488 98.973 78.5786Z" fill="black"/>
<path d="M100.221 79.8695C100.221 80.0993 100.389 80.2855 100.595 80.2855C100.801 80.2855 100.968 80.0992 100.968 79.8695C100.968 79.6396 100.801 79.4534 100.595 79.4534C100.389 79.4535 100.221 79.6397 100.221 79.8695Z" fill="black"/>
<path d="M99.3462 80.8453C99.2865 80.8453 99.2309 80.8625 99.1808 80.8902L99.6982 81.3945C99.711 81.3526 99.7195 81.3083 99.7195 81.2614C99.7195 81.0317 99.5524 80.8453 99.3462 80.8453Z" fill="black"/>
<path d="M100.595 82.1362C100.555 82.1362 100.517 82.145 100.481 82.1581L100.962 82.6263C100.965 82.6022 100.968 82.5777 100.968 82.5523C100.968 82.3226 100.801 82.1362 100.595 82.1362Z" fill="black"/>
<path d="M96.5664 75.8959C96.5664 76.1258 96.7336 76.312 96.9397 76.312C97.1459 76.312 97.3129 76.1257 97.3129 75.8959C97.3129 75.6661 97.1458 75.4799 96.9397 75.4799C96.7336 75.48 96.5664 75.6662 96.5664 75.8959Z" fill="black"/>
<path d="M97.815 77.187C97.815 77.4168 97.9822 77.603 98.1884 77.603C98.3946 77.603 98.5616 77.4168 98.5616 77.187C98.5616 76.9571 98.3945 76.7709 98.1884 76.7709C97.9822 76.7707 97.815 76.9571 97.815 77.187Z" fill="black"/>
<path d="M97.3131 78.5786C97.3131 78.3487 97.1459 78.1625 96.9398 78.1625C96.7969 78.1625 96.6741 78.2531 96.6115 78.3846L97.1566 78.9163C97.251 78.8408 97.3131 78.7181 97.3131 78.5786Z" fill="black"/>
<path d="M98.5616 79.8695C98.5616 79.6396 98.3944 79.4534 98.1883 79.4534C98.0634 79.4534 97.9536 79.5223 97.8857 79.6273L98.4438 80.1715C98.516 80.0956 98.5616 79.9889 98.5616 79.8695Z" fill="black"/>
<path d="M94.1599 73.2133C94.1599 73.4432 94.327 73.6294 94.5331 73.6294C94.7393 73.6294 94.9064 73.4431 94.9064 73.2133C94.9064 72.9835 94.7392 72.7972 94.5331 72.7972C94.327 72.7972 94.1599 72.9835 94.1599 73.2133Z" fill="black"/>
<path d="M95.4084 74.5042C95.4084 74.7341 95.5756 74.9203 95.7817 74.9203C95.9879 74.9203 96.155 74.7341 96.155 74.5042C96.155 74.2744 95.9878 74.088 95.7817 74.088C95.5756 74.088 95.4084 74.2744 95.4084 74.5042Z" fill="black"/>
<path d="M94.9065 75.8959C94.9065 75.6661 94.7393 75.4799 94.5332 75.4799C94.327 75.4799 94.16 75.6661 94.16 75.8959C94.16 75.9359 94.1665 75.9737 94.176 76.0101L94.4795 76.306C94.4972 76.3088 94.5148 76.312 94.5332 76.312C94.7393 76.3122 94.9065 76.1258 94.9065 75.8959Z" fill="black"/>
<path d="M96.155 77.187C96.155 76.9571 95.9878 76.7709 95.7817 76.7709C95.5755 76.7709 95.4084 76.9572 95.4084 77.187C95.4084 77.1964 95.4104 77.2052 95.411 77.2145L95.8067 77.6002C96.0009 77.5856 96.155 77.4072 96.155 77.187Z" fill="black"/>
<path d="M92.1267 70.1144C91.9205 70.1144 91.7533 70.3007 91.7533 70.5305C91.7533 70.7603 91.9205 70.9466 92.1267 70.9466C92.3329 70.9466 92.4999 70.7602 92.4999 70.5305C92.4999 70.3007 92.3328 70.1144 92.1267 70.1144Z" fill="black"/>
<path d="M93.3751 71.4054C93.1689 71.4054 93.0019 71.5916 93.0019 71.8215C93.0019 72.0514 93.1691 72.2377 93.3751 72.2377C93.5814 72.2377 93.7484 72.0515 93.7484 71.8215C93.7485 71.5916 93.5814 71.4054 93.3751 71.4054Z" fill="black"/>
<path d="M92.1267 72.7972C91.9205 72.7972 91.7533 72.9835 91.7533 73.2133C91.7533 73.4432 91.9205 73.6294 92.1267 73.6294C92.3329 73.6294 92.4999 73.4431 92.4999 73.2133C92.4999 72.9835 92.3328 72.7972 92.1267 72.7972Z" fill="black"/>
<path d="M93.3751 74.088C93.1689 74.088 93.0019 74.2744 93.0019 74.5042C93.0019 74.7341 93.1691 74.9203 93.3751 74.9203C93.5814 74.9203 93.7484 74.7341 93.7484 74.5042C93.7485 74.2744 93.5814 74.088 93.3751 74.088Z" fill="black"/>
<path d="M89.72 67.4318C89.5138 67.4318 89.3467 67.6181 89.3467 67.8478C89.3467 68.0777 89.5139 68.2639 89.72 68.2639C89.9262 68.2639 90.0933 68.0777 90.0933 67.8478C90.0934 67.618 89.9262 67.4318 89.72 67.4318Z" fill="black"/>
<path d="M90.9687 68.7227C90.7625 68.7227 90.5955 68.9089 90.5955 69.1387C90.5955 69.3686 90.7626 69.5548 90.9687 69.5548C91.1748 69.5548 91.3419 69.3686 91.3419 69.1387C91.3419 68.9089 91.1748 68.7227 90.9687 68.7227Z" fill="black"/>
<path d="M89.72 70.1144C89.5138 70.1144 89.3467 70.3007 89.3467 70.5305C89.3467 70.7603 89.5139 70.9466 89.72 70.9466C89.9262 70.9466 90.0933 70.7602 90.0933 70.5305C90.0934 70.3007 89.9262 70.1144 89.72 70.1144Z" fill="black"/>
<path d="M90.9687 71.4054C90.7625 71.4054 90.5955 71.5916 90.5955 71.8215C90.5955 72.0514 90.7626 72.2377 90.9687 72.2377C91.1748 72.2377 91.3419 72.0515 91.3419 71.8215C91.3419 71.5916 91.1748 71.4054 90.9687 71.4054Z" fill="black"/>
<path d="M87.3135 64.749C87.1073 64.749 86.9402 64.9354 86.9402 65.1651C86.9402 65.395 87.1074 65.5812 87.3135 65.5812C87.5197 65.5812 87.6868 65.395 87.6868 65.1651C87.6868 64.9354 87.5196 64.749 87.3135 64.749Z" fill="black"/>
<path d="M88.562 66.0399C88.3558 66.0399 88.1888 66.2261 88.1888 66.456C88.1888 66.6859 88.3559 66.8721 88.562 66.8721C88.7682 66.8721 88.9353 66.6857 88.9353 66.456C88.9354 66.2261 88.7682 66.0399 88.562 66.0399Z" fill="black"/>
<path d="M87.3135 67.4318C87.1073 67.4318 86.9402 67.6181 86.9402 67.8478C86.9402 68.0777 87.1074 68.2639 87.3135 68.2639C87.5197 68.2639 87.6868 68.0777 87.6868 67.8478C87.6868 67.618 87.5196 67.4318 87.3135 67.4318Z" fill="black"/>
<path d="M88.562 68.7227C88.3558 68.7227 88.1888 68.9089 88.1888 69.1387C88.1888 69.3686 88.3559 69.5548 88.562 69.5548C88.7682 69.5548 88.9353 69.3686 88.9353 69.1387C88.9354 68.9089 88.7682 68.7227 88.562 68.7227Z" fill="black"/>
<path d="M84.5338 62.4825C84.5338 62.7124 84.7009 62.8986 84.907 62.8986C85.1012 62.8986 85.2588 62.7329 85.2767 62.5218L84.8219 62.0782C84.6569 62.1212 84.5338 62.2854 84.5338 62.4825Z" fill="black"/>
<path d="M85.7822 63.7733C85.7822 64.0032 85.9494 64.1894 86.1555 64.1894C86.3617 64.1894 86.5287 64.0031 86.5287 63.7733C86.5287 63.7617 86.5265 63.7508 86.5256 63.7396L86.1358 63.3595C85.9391 63.3711 85.7822 63.551 85.7822 63.7733Z" fill="black"/>
<path d="M84.907 64.749C84.7008 64.749 84.5338 64.9354 84.5338 65.1651C84.5338 65.395 84.7009 65.5812 84.907 65.5812C85.1132 65.5812 85.2803 65.395 85.2803 65.1651C85.2803 64.9354 85.1132 64.749 84.907 64.749Z" fill="black"/>
<path d="M86.1555 66.0399C85.9493 66.0399 85.7823 66.2261 85.7823 66.456C85.7823 66.6859 85.9494 66.8721 86.1555 66.8721C86.3617 66.8721 86.5288 66.6857 86.5288 66.456C86.5288 66.2261 86.3616 66.0399 86.1555 66.0399Z" fill="black"/>
<path d="M82.5004 60.2159C82.6088 60.2159 82.7055 60.1636 82.7738 60.0814L82.2142 59.5356C82.1606 59.6078 82.1271 59.699 82.1271 59.7997C82.1271 60.0296 82.2942 60.2159 82.5004 60.2159Z" fill="black"/>
<path d="M83.3756 61.0907C83.3756 61.3206 83.5428 61.5068 83.749 61.5068C83.8752 61.5068 83.9864 61.4364 84.0539 61.3295L83.4964 60.7859C83.4227 60.8619 83.3756 60.9698 83.3756 61.0907Z" fill="black"/>
<path d="M82.5004 62.0663C82.2942 62.0663 82.1271 62.2525 82.1271 62.4824C82.1271 62.7122 82.2943 62.8984 82.5004 62.8984C82.7066 62.8984 82.8736 62.7122 82.8736 62.4824C82.8736 62.2525 82.7065 62.0663 82.5004 62.0663Z" fill="black"/>
<path d="M83.749 63.3572C83.5428 63.3572 83.3756 63.5435 83.3756 63.7733C83.3756 64.0031 83.5428 64.1893 83.749 64.1893C83.9552 64.1893 84.1222 64.003 84.1222 63.7733C84.1222 63.5435 83.9552 63.3572 83.749 63.3572Z" fill="black"/>
<path d="M82.683 64.8043L82.7982 64.9167C82.7673 64.8706 82.7281 64.8328 82.683 64.8043Z" fill="black"/>
<path d="M80.0938 57.5331C80.1143 57.5331 80.134 57.53 80.1535 57.5265L79.7217 57.1053C79.7215 57.1093 79.7206 57.1131 79.7206 57.1171C79.7206 57.3468 79.8877 57.5331 80.0938 57.5331Z" fill="black"/>
<path d="M81.3424 58.824C81.384 58.824 81.4231 58.8147 81.4605 58.8007L80.9763 58.3287C80.9719 58.3544 80.9692 58.3808 80.9692 58.4079C80.9692 58.6377 81.1363 58.824 81.3424 58.824Z" fill="black"/>
<path d="M79.7206 59.7996C79.7206 60.0295 79.8877 60.2157 80.0938 60.2157C80.3 60.2157 80.4671 60.0294 80.4671 59.7996C80.4671 59.5698 80.2999 59.3835 80.0938 59.3835C79.8877 59.3835 79.7206 59.5699 79.7206 59.7996Z" fill="black"/>
<path d="M80.9692 61.0908C80.9692 61.3206 81.1363 61.5069 81.3424 61.5069C81.5486 61.5069 81.7158 61.3205 81.7158 61.0908C81.7158 60.861 81.5486 60.6747 81.3424 60.6747C81.1363 60.6745 80.9692 60.8609 80.9692 61.0908Z" fill="black"/>
<path d="M80.0939 62.0663C80.0322 62.0663 79.9751 62.0845 79.9238 62.1139L80.4443 62.6213C80.4583 62.5777 80.4672 62.5314 80.4672 62.4824C80.4672 62.2525 80.3001 62.0663 80.0939 62.0663Z" fill="black"/>
<path d="M81.3424 63.3572C81.3005 63.3572 81.2608 63.3666 81.2231 63.3809L81.7084 63.8541C81.7131 63.828 81.7157 63.8009 81.7157 63.7733C81.7157 63.5435 81.5486 63.3572 81.3424 63.3572Z" fill="black"/>
<path d="M77.314 57.117C77.314 57.3469 77.4812 57.5331 77.6873 57.5331C77.8935 57.5331 78.0605 57.3468 78.0605 57.117C78.0605 56.8871 77.8934 56.7009 77.6873 56.7009C77.4812 56.7008 77.314 56.8871 77.314 57.117Z" fill="black"/>
<path d="M78.5626 58.4079C78.5626 58.6378 78.7298 58.824 78.9359 58.824C79.1421 58.824 79.3091 58.6378 79.3091 58.4079C79.3091 58.178 79.142 57.9918 78.9359 57.9918C78.7298 57.9917 78.5626 58.178 78.5626 58.4079Z" fill="black"/>
<path d="M78.0606 59.7996C78.0606 59.5698 77.8935 59.3835 77.6874 59.3835C77.5425 59.3835 77.4184 59.4764 77.3565 59.6108L77.9001 60.1409C77.997 60.0657 78.0606 59.9411 78.0606 59.7996Z" fill="black"/>
<path d="M79.3091 61.0908C79.3091 60.8609 79.1419 60.6747 78.9359 60.6747C78.8092 60.6747 78.6977 60.7454 78.6302 60.8529L79.1876 61.3964C79.2618 61.3202 79.3091 61.212 79.3091 61.0908Z" fill="black"/>
<path d="M76.9027 58.4079C76.9027 58.178 76.7355 57.9918 76.5294 57.9918C76.3232 57.9918 76.1562 58.1782 76.1562 58.4079C76.1562 58.4202 76.1585 58.4316 76.1594 58.4436L76.5476 58.822C76.745 58.8112 76.9027 58.6309 76.9027 58.4079Z" fill="black"/>
<path d="M63.248 41.4369C63.354 41.4369 63.4493 41.3871 63.5173 41.3078C63.3265 41.1281 63.1091 41.0066 62.882 40.9404C62.8775 40.9664 62.8748 40.9933 62.8748 41.0207C62.8748 41.2506 63.0419 41.4369 63.248 41.4369Z" fill="black"/>
<path d="M64.1234 42.3117C64.1234 42.5416 64.2905 42.7278 64.4966 42.7278C64.621 42.7278 64.7305 42.6592 64.7983 42.5549L64.2401 42.0106C64.1685 42.0864 64.1234 42.1928 64.1234 42.3117Z" fill="black"/>
<path d="M62.0901 42.7278C62.2963 42.7278 62.4633 42.5416 62.4633 42.3117C62.4633 42.0819 62.2961 41.8955 62.0901 41.8955C61.8838 41.8955 61.7168 42.0819 61.7168 42.3117C61.7168 42.5415 61.884 42.7278 62.0901 42.7278Z" fill="black"/>
<path d="M60.9423 43.3047C61.0011 43.4868 61.0873 43.6595 61.199 43.8162C61.2082 43.7801 61.2147 43.7429 61.2147 43.7035C61.2148 43.5129 61.0992 43.3541 60.9423 43.3047Z" fill="black"/>
<path d="M81.1836 45.9701C80.9773 45.9701 80.8103 46.1563 80.8103 46.3862C80.8103 46.6161 80.9775 46.8023 81.1836 46.8023C81.3898 46.8023 81.5568 46.6159 81.5568 46.3862C81.5568 46.1563 81.3896 45.9701 81.1836 45.9701Z" fill="black"/>
<path d="M82.0588 47.6769C82.0588 47.9068 82.226 48.0932 82.4321 48.0932C82.6383 48.0932 82.8055 47.9068 82.8055 47.6769C82.8055 47.4471 82.6383 47.2609 82.4321 47.2609C82.226 47.2609 82.0588 47.4472 82.0588 47.6769Z" fill="black"/>
<path d="M81.1836 48.6527C80.9773 48.6527 80.8103 48.8391 80.8103 49.0688C80.8103 49.2987 80.9775 49.485 81.1836 49.485C81.3898 49.485 81.5568 49.2987 81.5568 49.0688C81.5568 48.8389 81.3896 48.6527 81.1836 48.6527Z" fill="black"/>
<path d="M82.4321 49.9436C82.226 49.9436 82.0588 50.1298 82.0588 50.3597C82.0588 50.5896 82.226 50.7758 82.4321 50.7758C82.4364 50.7758 82.4403 50.7744 82.4446 50.7743C82.5583 50.5612 82.6529 50.3391 82.73 50.1112C82.6619 50.01 82.5545 49.9436 82.4321 49.9436Z" fill="black"/>
<path d="M81.1836 51.3354C80.9773 51.3354 80.8103 51.5217 80.8103 51.7515C80.8103 51.9814 80.9775 52.1676 81.1836 52.1676C81.3898 52.1676 81.5568 51.9813 81.5568 51.7515C81.5568 51.5217 81.3896 51.3354 81.1836 51.3354Z" fill="black"/>
<path d="M80.0256 44.5781C79.8195 44.5781 79.6523 44.7643 79.6523 44.9942C79.6523 45.2241 79.8195 45.4104 80.0256 45.4104C80.2318 45.4104 80.399 45.2241 80.399 44.9942C80.3989 44.7645 80.2317 44.5781 80.0256 44.5781Z" fill="black"/>
<path d="M78.777 45.9701C78.5708 45.9701 78.4037 46.1563 78.4037 46.3862C78.4037 46.6161 78.5708 46.8023 78.777 46.8023C78.9832 46.8023 79.1503 46.6159 79.1503 46.3862C79.1503 46.1563 78.9831 45.9701 78.777 45.9701Z" fill="black"/>
<path d="M80.0256 47.2609C79.8195 47.2609 79.6523 47.4472 79.6523 47.6769C79.6523 47.9068 79.8195 48.0932 80.0256 48.0932C80.2318 48.0932 80.399 47.9068 80.399 47.6769C80.3989 47.4472 80.2317 47.2609 80.0256 47.2609Z" fill="black"/>
<path d="M78.777 48.6527C78.5708 48.6527 78.4037 48.8391 78.4037 49.0688C78.4037 49.2987 78.5708 49.485 78.777 49.485C78.9832 49.485 79.1503 49.2987 79.1503 49.0688C79.1503 48.8389 78.9831 48.6527 78.777 48.6527Z" fill="black"/>
<path d="M80.0256 49.9436C79.8195 49.9436 79.6523 50.1298 79.6523 50.3597C79.6523 50.5896 79.8195 50.7758 80.0256 50.7758C80.2318 50.7758 80.399 50.5894 80.399 50.3597C80.3989 50.1298 80.2317 49.9436 80.0256 49.9436Z" fill="black"/>
<path d="M78.777 51.3354C78.5708 51.3354 78.4037 51.5217 78.4037 51.7515C78.4037 51.9814 78.5708 52.1676 78.777 52.1676C78.9832 52.1676 79.1503 51.9813 79.1503 51.7515C79.1503 51.5217 78.9831 51.3354 78.777 51.3354Z" fill="black"/>
<path d="M80.0256 52.6263C79.8195 52.6263 79.6523 52.8126 79.6523 53.0424C79.6523 53.2723 79.8195 53.4586 80.0256 53.4586C80.2318 53.4586 80.399 53.2723 80.399 53.0424C80.3989 52.8126 80.2317 52.6263 80.0256 52.6263Z" fill="black"/>
<path d="M78.777 54.0182C78.5708 54.0182 78.4037 54.2044 78.4037 54.4343C78.4037 54.6641 78.5708 54.8505 78.777 54.8505C78.9832 54.8505 79.1503 54.6641 79.1503 54.4343C79.1503 54.2044 78.9831 54.0182 78.777 54.0182Z" fill="black"/>
<path d="M77.619 47.2609C77.413 47.2609 77.2458 47.4472 77.2458 47.6769C77.2458 47.9068 77.413 48.0932 77.619 48.0932C77.8253 48.0932 77.9924 47.9068 77.9924 47.6769C77.9923 47.4472 77.8251 47.2609 77.619 47.2609Z" fill="black"/>
<path d="M76.3704 48.6527C76.1642 48.6527 75.9972 48.8391 75.9972 49.0688C75.9972 49.2987 76.1642 49.485 76.3704 49.485C76.5767 49.485 76.7437 49.2987 76.7437 49.0688C76.7437 48.8389 76.5767 48.6527 76.3704 48.6527Z" fill="black"/>
<path d="M77.619 49.9436C77.413 49.9436 77.2458 50.1298 77.2458 50.3597C77.2458 50.5896 77.413 50.7758 77.619 50.7758C77.8253 50.7758 77.9924 50.5894 77.9924 50.3597C77.9923 50.1298 77.8251 49.9436 77.619 49.9436Z" fill="black"/>
<path d="M76.3704 51.3354C76.1642 51.3354 75.9972 51.5217 75.9972 51.7515C75.9972 51.9814 76.1642 52.1676 76.3704 52.1676C76.5767 52.1676 76.7437 51.9813 76.7437 51.7515C76.7437 51.5217 76.5767 51.3354 76.3704 51.3354Z" fill="black"/>
<path d="M77.619 52.6263C77.413 52.6263 77.2458 52.8126 77.2458 53.0424C77.2458 53.2723 77.413 53.4586 77.619 53.4586C77.8253 53.4586 77.9924 53.2723 77.9924 53.0424C77.9923 52.8126 77.8251 52.6263 77.619 52.6263Z" fill="black"/>
<path d="M76.3704 54.0182C76.1642 54.0182 75.9972 54.2044 75.9972 54.4343C75.9972 54.6641 76.1642 54.8505 76.3704 54.8505C76.5767 54.8505 76.7437 54.6641 76.7437 54.4343C76.7437 54.2044 76.5767 54.0182 76.3704 54.0182Z" fill="black"/>
<path d="M77.619 55.3091C77.413 55.3091 77.2458 55.4953 77.2458 55.7252C77.2458 55.955 77.413 56.1414 77.619 56.1414C77.8253 56.1414 77.9924 55.955 77.9924 55.7252C77.9923 55.4953 77.8251 55.3091 77.619 55.3091Z" fill="black"/>
<path d="M76.3704 56.7008C76.1642 56.7008 75.9972 56.8872 75.9972 57.1169C75.9972 57.3468 76.1642 57.5331 76.3704 57.5331C76.5767 57.5331 76.7437 57.3468 76.7437 57.1169C76.7437 56.8872 76.5767 56.7008 76.3704 56.7008Z" fill="black"/>
<path d="M75.2125 49.9436C75.0064 49.9436 74.8392 50.1298 74.8392 50.3597C74.8392 50.5896 75.0064 50.7758 75.2125 50.7758C75.4187 50.7758 75.5859 50.5894 75.5859 50.3597C75.5857 50.1298 75.4187 49.9436 75.2125 49.9436Z" fill="black"/>
<path d="M73.9639 51.3354C73.7577 51.3354 73.5906 51.5217 73.5906 51.7515C73.5906 51.9814 73.7577 52.1676 73.9639 52.1676C74.1701 52.1676 74.3371 51.9813 74.3371 51.7515C74.3371 51.5217 74.1701 51.3354 73.9639 51.3354Z" fill="black"/>
<path d="M75.2125 52.6263C75.0064 52.6263 74.8392 52.8126 74.8392 53.0424C74.8392 53.2723 75.0064 53.4586 75.2125 53.4586C75.4187 53.4586 75.5859 53.2723 75.5859 53.0424C75.5857 52.8126 75.4187 52.6263 75.2125 52.6263Z" fill="black"/>
<path d="M73.9639 54.0182C73.7577 54.0182 73.5906 54.2044 73.5906 54.4343C73.5906 54.6641 73.7577 54.8505 73.9639 54.8505C74.1701 54.8505 74.3371 54.6641 74.3371 54.4343C74.3371 54.2044 74.1701 54.0182 73.9639 54.0182Z" fill="black"/>
<path d="M75.2125 55.3091C75.0064 55.3091 74.8392 55.4953 74.8392 55.7252C74.8392 55.955 75.0064 56.1414 75.2125 56.1414C75.4187 56.1414 75.5859 55.955 75.5859 55.7252C75.5857 55.4953 75.4187 55.3091 75.2125 55.3091Z" fill="black"/>
<path d="M73.9639 56.7008C73.7577 56.7008 73.5906 56.8872 73.5906 57.1169C73.5906 57.3468 73.7577 57.5331 73.9639 57.5331C74.1701 57.5331 74.3371 57.3468 74.3371 57.1169C74.3371 56.8872 74.1701 56.7008 73.9639 56.7008Z" fill="black"/>
<path d="M75.2125 57.9916C75.0064 57.9916 74.8392 58.1778 74.8392 58.4077C74.8392 58.6375 75.0064 58.8239 75.2125 58.8239C75.4187 58.8239 75.5859 58.6375 75.5859 58.4077C75.5857 58.1779 75.4187 57.9916 75.2125 57.9916Z" fill="black"/>
<path d="M73.9639 59.3835C73.7577 59.3835 73.5906 59.5698 73.5906 59.7996C73.5906 60.0295 73.7577 60.2159 73.9639 60.2159C74.1701 60.2159 74.3371 60.0295 74.3371 59.7996C74.3371 59.5699 74.1701 59.3835 73.9639 59.3835Z" fill="black"/>
<path d="M72.8059 52.6263C72.5998 52.6263 72.4326 52.8126 72.4326 53.0424C72.4326 53.2723 72.5998 53.4586 72.8059 53.4586C73.0121 53.4586 73.1792 53.2723 73.1792 53.0424C73.1792 52.8126 73.0121 52.6263 72.8059 52.6263Z" fill="black"/>
<path d="M71.5573 54.0182C71.3511 54.0182 71.1841 54.2044 71.1841 54.4343C71.1841 54.6641 71.3511 54.8505 71.5573 54.8505C71.7635 54.8505 71.9306 54.6641 71.9306 54.4343C71.9307 54.2044 71.7635 54.0182 71.5573 54.0182Z" fill="black"/>
<path d="M72.8059 55.3091C72.5998 55.3091 72.4326 55.4953 72.4326 55.7252C72.4326 55.955 72.5998 56.1414 72.8059 56.1414C73.0121 56.1414 73.1792 55.955 73.1792 55.7252C73.1792 55.4953 73.0121 55.3091 72.8059 55.3091Z" fill="black"/>
<path d="M71.5573 56.7008C71.3511 56.7008 71.1841 56.8872 71.1841 57.1169C71.1841 57.3468 71.3511 57.5331 71.5573 57.5331C71.7635 57.5331 71.9306 57.3468 71.9306 57.1169C71.9307 56.8872 71.7635 56.7008 71.5573 56.7008Z" fill="black"/>
<path d="M72.8059 57.9916C72.5998 57.9916 72.4326 58.1778 72.4326 58.4077C72.4326 58.6375 72.5998 58.8239 72.8059 58.8239C73.0121 58.8239 73.1792 58.6375 73.1792 58.4077C73.1792 58.1779 73.0121 57.9916 72.8059 57.9916Z" fill="black"/>
<path d="M71.5573 59.3835C71.3511 59.3835 71.1841 59.5698 71.1841 59.7996C71.1841 60.0295 71.3511 60.2159 71.5573 60.2159C71.7635 60.2159 71.9306 60.0295 71.9306 59.7996C71.9307 59.5699 71.7635 59.3835 71.5573 59.3835Z" fill="black"/>
<path d="M72.8059 60.6743C72.5998 60.6743 72.4326 60.8607 72.4326 61.0904C72.4326 61.3203 72.5998 61.5066 72.8059 61.5066C73.0121 61.5066 73.1792 61.3203 73.1792 61.0904C73.1792 60.8607 73.0121 60.6743 72.8059 60.6743Z" fill="black"/>
<path d="M71.5573 62.0663C71.3511 62.0663 71.1841 62.2525 71.1841 62.4824C71.1841 62.7122 71.3511 62.8986 71.5573 62.8986C71.7635 62.8986 71.9306 62.7122 71.9306 62.4824C71.9307 62.2526 71.7635 62.0663 71.5573 62.0663Z" fill="black"/>
<path d="M70.3993 55.3091C70.1932 55.3091 70.0261 55.4953 70.0261 55.7252C70.0261 55.955 70.1932 56.1414 70.3993 56.1414C70.6055 56.1414 70.7727 55.955 70.7727 55.7252C70.7727 55.4953 70.6055 55.3091 70.3993 55.3091Z" fill="black"/>
<path d="M69.1507 56.7008C68.9445 56.7008 68.7775 56.8872 68.7775 57.1169C68.7775 57.3468 68.9446 57.5331 69.1507 57.5331C69.3568 57.5331 69.524 57.3468 69.524 57.1169C69.5241 56.8872 69.3569 56.7008 69.1507 56.7008Z" fill="black"/>
<path d="M70.3993 57.9916C70.1932 57.9916 70.0261 58.1778 70.0261 58.4077C70.0261 58.6375 70.1932 58.8239 70.3993 58.8239C70.6055 58.8239 70.7727 58.6375 70.7727 58.4077C70.7727 58.1779 70.6055 57.9916 70.3993 57.9916Z" fill="black"/>
<path d="M69.1507 59.3835C68.9445 59.3835 68.7775 59.5698 68.7775 59.7996C68.7775 60.0295 68.9446 60.2159 69.1507 60.2159C69.3568 60.2159 69.524 60.0295 69.524 59.7996C69.5241 59.5699 69.3569 59.3835 69.1507 59.3835Z" fill="black"/>
<path d="M70.3993 60.6743C70.1932 60.6743 70.0261 60.8607 70.0261 61.0904C70.0261 61.3203 70.1932 61.5066 70.3993 61.5066C70.6055 61.5066 70.7727 61.3203 70.7727 61.0904C70.7727 60.8607 70.6055 60.6743 70.3993 60.6743Z" fill="black"/>
<path d="M69.1507 62.0663C68.9445 62.0663 68.7775 62.2525 68.7775 62.4824C68.7775 62.7122 68.9446 62.8986 69.1507 62.8986C69.3568 62.8986 69.524 62.7122 69.524 62.4824C69.5241 62.2526 69.3569 62.0663 69.1507 62.0663Z" fill="black"/>
<path d="M70.3993 63.3572C70.1932 63.3572 70.0261 63.5434 70.0261 63.7733C70.0261 64.0031 70.1932 64.1893 70.3993 64.1893C70.6055 64.1893 70.7727 64.003 70.7727 63.7733C70.7727 63.5435 70.6055 63.3572 70.3993 63.3572Z" fill="black"/>
<path d="M67.9928 57.9916C67.7867 57.9916 67.6196 58.1778 67.6196 58.4077C67.6196 58.6375 67.7867 58.8239 67.9928 58.8239C68.199 58.8239 68.3661 58.6375 68.3661 58.4077C68.3662 58.1779 68.199 57.9916 67.9928 57.9916Z" fill="black"/>
<path d="M66.7442 59.3835C66.538 59.3835 66.3709 59.5698 66.3709 59.7996C66.3709 60.0295 66.538 60.2159 66.7442 60.2159C66.9504 60.2159 67.1174 60.0295 67.1174 59.7996C67.1175 59.5699 66.9504 59.3835 66.7442 59.3835Z" fill="black"/>
<path d="M67.9928 60.6743C67.7867 60.6743 67.6196 60.8607 67.6196 61.0904C67.6196 61.3203 67.7867 61.5066 67.9928 61.5066C68.199 61.5066 68.3661 61.3203 68.3661 61.0904C68.3662 60.8607 68.199 60.6743 67.9928 60.6743Z" fill="black"/>
<path d="M64.3377 65.5813C64.5439 65.5813 64.711 65.395 64.711 65.1652C64.711 64.9354 64.5438 64.7491 64.3377 64.7491C64.1315 64.7491 63.9645 64.9354 63.9645 65.1652C63.9645 65.395 64.1315 65.5813 64.3377 65.5813Z" fill="black"/>
<path d="M65.5862 66.0398C65.3801 66.0398 65.213 66.226 65.213 66.4559C65.213 66.6858 65.3801 66.8721 65.5862 66.8721C65.7924 66.8721 65.9596 66.6858 65.9596 66.4559C65.9596 66.226 65.7924 66.0398 65.5862 66.0398Z" fill="black"/>
<path d="M64.3377 68.2641C64.5439 68.2641 64.711 68.0777 64.711 67.8478C64.711 67.618 64.5438 67.4318 64.3377 67.4318C64.1315 67.4318 63.9645 67.618 63.9645 67.8478C63.9645 68.0777 64.1315 68.2641 64.3377 68.2641Z" fill="black"/>
<path d="M65.5862 69.5548C65.7924 69.5548 65.9596 69.3685 65.9596 69.1386C65.9596 68.9087 65.7924 68.7225 65.5862 68.7225C65.3801 68.7225 65.213 68.9089 65.213 69.1386C65.213 69.3685 65.3801 69.5548 65.5862 69.5548Z" fill="black"/>
<path d="M64.3377 70.1145C64.1315 70.1145 63.9645 70.3008 63.9645 70.5306C63.9645 70.7605 64.1315 70.9468 64.3377 70.9468C64.4149 70.9468 64.4864 70.9207 64.5458 70.8761C64.5468 70.8752 64.5479 70.8744 64.5488 70.8735C64.5642 70.8616 64.5783 70.848 64.5921 70.8337C64.5956 70.8303 64.599 70.8269 64.6026 70.8237C64.6695 70.7485 64.711 70.6451 64.711 70.5306C64.711 70.3007 64.5438 70.1145 64.3377 70.1145Z" fill="black"/>
<path d="M63.1798 64.1895C63.386 64.1895 63.5531 64.0031 63.5531 63.7734C63.5531 63.5435 63.386 63.3573 63.1798 63.3573C62.9737 63.3573 62.8065 63.5435 62.8065 63.7734C62.8065 64.0031 62.9736 64.1895 63.1798 64.1895Z" fill="black"/>
<path d="M61.9312 65.5813C62.1374 65.5813 62.3044 65.395 62.3044 65.1652C62.3044 64.9354 62.1373 64.7491 61.9312 64.7491C61.725 64.7491 61.5579 64.9354 61.5579 65.1652C61.5579 65.395 61.725 65.5813 61.9312 65.5813Z" fill="black"/>
<path d="M63.1798 66.8721C63.386 66.8721 63.5531 66.6858 63.5531 66.4559C63.5531 66.226 63.386 66.0398 63.1798 66.0398C62.9737 66.0398 62.8065 66.226 62.8065 66.4559C62.8065 66.6858 62.9736 66.8721 63.1798 66.8721Z" fill="black"/>
<path d="M61.9312 68.2641C62.1374 68.2641 62.3044 68.0777 62.3044 67.8478C62.3044 67.618 62.1373 67.4318 61.9312 67.4318C61.725 67.4318 61.5579 67.618 61.5579 67.8478C61.5579 68.0777 61.725 68.2641 61.9312 68.2641Z" fill="black"/>
<path d="M63.1798 69.5548C63.386 69.5548 63.5531 69.3685 63.5531 69.1386C63.5531 68.9087 63.386 68.7225 63.1798 68.7225C62.9737 68.7225 62.8065 68.9089 62.8065 69.1386C62.8065 69.3685 62.9736 69.5548 63.1798 69.5548Z" fill="black"/>
<path d="M61.9312 70.9467C62.1374 70.9467 62.3044 70.7603 62.3044 70.5305C62.3044 70.3006 62.1373 70.1144 61.9312 70.1144C61.725 70.1144 61.5579 70.3007 61.5579 70.5305C61.5579 70.7603 61.725 70.9467 61.9312 70.9467Z" fill="black"/>
<path d="M63.1797 71.4053C62.9968 71.4053 62.8453 71.5521 62.8133 71.7456C63.0338 71.7036 63.2515 71.6401 63.4639 71.5543C63.3954 71.464 63.2941 71.4053 63.1797 71.4053Z" fill="black"/>
<path d="M60.7732 66.0398C60.5671 66.0398 60.4 66.226 60.4 66.4559C60.4 66.6858 60.5671 66.8721 60.7732 66.8721C60.9794 66.8721 61.1465 66.6858 61.1465 66.4559C61.1465 66.226 60.9793 66.0398 60.7732 66.0398Z" fill="black"/>
<path d="M59.1514 67.8478C59.1514 68.0777 59.3184 68.2641 59.5246 68.2641C59.7308 68.2641 59.8979 68.0777 59.8979 67.8478C59.8979 67.618 59.7307 67.4318 59.5246 67.4318C59.3184 67.4318 59.1514 67.618 59.1514 67.8478Z" fill="black"/>
<path d="M60.7732 68.7225C60.5671 68.7225 60.4 68.9089 60.4 69.1386C60.4 69.3685 60.5671 69.5548 60.7732 69.5548C60.9794 69.5548 61.1465 69.3685 61.1465 69.1386C61.1465 68.9087 60.9793 68.7225 60.7732 68.7225Z" fill="black"/>
<path d="M59.8979 70.5306C59.8979 70.3007 59.7307 70.1145 59.5246 70.1145C59.4024 70.1145 59.2949 70.1809 59.2268 70.2821L59.4833 70.5679C59.573 70.6678 59.6661 70.7614 59.7621 70.8492C59.8444 70.7728 59.8979 70.6593 59.8979 70.5306Z" fill="black"/>
<path d="M60.7732 71.4053C60.7195 71.4053 60.6687 71.4185 60.6226 71.4412C60.7808 71.5197 60.9427 71.5863 61.1075 71.6397C61.0467 71.5012 60.9205 71.4053 60.7732 71.4053Z" fill="black"/>
<path d="M57.118 67.4318C57.0916 67.4318 57.066 67.435 57.0411 67.4408C57.1668 67.6522 57.2977 67.8608 57.4346 68.066C57.4699 68.0025 57.4913 67.9281 57.4913 67.8478C57.4913 67.618 57.3242 67.4318 57.118 67.4318Z" fill="black"/>
<path d="M58.7399 69.1386C58.7399 68.9087 58.5727 68.7225 58.3665 68.7225C58.2327 68.7225 58.1163 68.8016 58.0504 68.9197C58.2063 69.1195 58.3683 69.3154 58.536 69.5075C58.6566 69.4385 58.7399 69.3001 58.7399 69.1386Z" fill="black"/>
<path d="M113.908 90.6383C113.87 90.0127 113.616 89.4409 113.193 89.028L78.9374 55.6279L82.2039 51.9865C83.8723 50.1265 83.8723 47.1001 82.2039 45.2401L81.3833 44.3252C78.8813 41.536 75.5546 40 72.0162 40C69.544 40 67.1764 40.7522 65.1202 42.1558L63.8566 40.9236C63.4332 40.5107 62.8899 40.3061 62.3296 40.3483C61.7684 40.3901 61.2554 40.6731 60.8851 41.1451C60.1748 42.0503 60.2025 43.3968 60.9113 44.2668L57.52 48.0473L56.8376 47.0949C56.4864 46.6049 55.9853 46.2967 55.4264 46.2269C54.8671 46.1576 54.3176 46.3343 53.8781 46.7257C52.9707 47.5332 52.8221 49.0132 53.5468 50.0245L55.7713 53.1293C54.9023 55.1171 54.4425 57.3142 54.4425 59.5905C54.4425 63.535 55.8204 67.2434 58.3225 70.0325L59.143 70.9473C59.9511 71.8483 61.0259 72.3445 62.1689 72.3445C63.3121 72.3445 64.3866 71.8483 65.1948 70.9473L67.053 68.8759L94.4516 107.117C94.8535 107.678 95.4536 108 96.0981 108C96.5731 108 97.0395 107.818 97.4112 107.487C98.3184 106.679 98.4671 105.199 97.7425 104.188L70.0495 65.5354L75.9527 58.9549L110.42 92.5617C110.809 92.9404 111.298 93.1427 111.803 93.1427C111.928 93.1427 112.055 93.1302 112.181 93.1049C112.649 93.0109 113.079 92.7394 113.392 92.3403C113.762 91.8684 113.945 91.2639 113.908 90.6383ZM61.6096 41.8515C61.8107 41.5954 62.0892 41.4418 62.3939 41.419C62.42 41.417 62.4459 41.4161 62.4719 41.4161C62.7485 41.4161 63.0126 41.5264 63.2227 41.7313L63.7225 42.2186C63.0015 42.3405 62.308 42.7096 61.754 43.3271L61.5935 43.506C61.2393 43.0333 61.2347 42.3295 61.6096 41.8515ZM62.4347 44.0861C62.9374 43.5257 63.5976 43.2456 64.2579 43.2456C64.9181 43.2456 65.5784 43.5257 66.081 44.0861L68.9023 47.2312C69.3892 47.774 69.6575 48.4958 69.6575 49.2634C69.6575 50.0311 69.3892 50.7529 68.9023 51.2957L64.5754 56.119C64.3338 56.3883 64.0519 56.5949 63.7458 56.7368L58.1244 48.8909L62.4347 44.0861ZM64.5142 70.1885C63.8878 70.8869 63.0549 71.2714 62.1689 71.2714C61.2831 71.2714 60.4501 70.8869 59.8236 70.1885L59.0031 69.2736C56.6828 66.6873 55.4051 63.2484 55.4051 59.5905C55.4051 57.6565 55.763 55.7841 56.4426 54.0663L66.4486 68.0322L64.5142 70.1885ZM96.8104 106.648C96.6056 106.831 96.3593 106.927 96.098 106.927C95.7478 106.927 95.4218 106.752 95.2038 106.448L54.299 49.3549C53.9055 48.8058 53.9862 48.0024 54.4788 47.564C54.6833 47.3819 54.932 47.2852 55.1901 47.2852C55.2329 47.2852 55.276 47.2879 55.3194 47.2932C55.6229 47.331 55.8949 47.4983 56.0856 47.7643L96.9903 104.857C97.3836 105.406 97.3029 106.21 96.8104 106.648ZM64.3626 57.5978C64.6843 57.4149 64.9871 57.1775 65.2558 56.8778L69.5827 52.0545C70.2516 51.309 70.6199 50.3178 70.6199 49.2634C70.6199 48.2091 70.2516 47.2179 69.5827 46.4724L66.7614 43.3272C66.5612 43.104 66.3423 42.9143 66.1109 42.7558C67.9001 41.6588 69.9173 41.0731 72.0161 41.0731C75.2974 41.0731 78.3823 42.4974 80.7024 45.0839L81.5231 45.9986C82.8161 47.4403 82.8161 49.786 81.5231 51.2275L69.4451 64.6916L64.3626 57.5978ZM112.667 91.6338C112.495 91.8537 112.268 91.9972 112.011 92.0488C111.666 92.1179 111.317 92.0106 111.054 91.754L76.635 58.1943L78.2551 56.3882L112.559 89.8356C112.789 90.0596 112.927 90.3701 112.947 90.7098C112.968 91.0495 112.868 91.3776 112.667 91.6338Z" fill="black"/>
<path d="M74.3762 48.6337C74.2531 48.6337 74.1297 48.5813 74.0359 48.4765C73.1859 47.5289 73.1859 45.9871 74.0359 45.0395C74.4475 44.5805 74.9949 44.3276 75.5774 44.3276C76.1597 44.3276 76.7072 44.5804 77.119 45.0395C77.3071 45.2491 77.3071 45.5887 77.119 45.7983C76.9312 46.0078 76.6261 46.0078 76.4384 45.7983C76.2084 45.542 75.9026 45.4007 75.5774 45.4007C75.2523 45.4007 74.9465 45.5418 74.7166 45.7982C74.2418 46.3274 74.2418 47.1885 74.7165 47.7176C74.9046 47.9272 74.9046 48.2667 74.7165 48.4764C74.6226 48.5813 74.4994 48.6337 74.3762 48.6337Z" fill="black"/>
<path d="M72.1968 56.8624C72.0737 56.8624 71.9503 56.8099 71.8565 56.7052C71.4446 56.2461 71.2179 55.6358 71.2179 54.9866C71.2179 54.3375 71.4445 53.7272 71.8565 53.2681C72.2682 52.8092 72.8156 52.5563 73.3981 52.5563C73.9804 52.5563 74.5279 52.809 74.9397 53.2681C75.1276 53.4776 75.1276 53.8173 74.9396 54.027C74.7515 54.2365 74.4469 54.2365 74.2589 54.0268C74.029 53.7705 73.7232 53.6294 73.3981 53.6294C73.0728 53.6294 72.767 53.7706 72.5371 54.027C72.3071 54.2832 72.1805 54.6241 72.1805 54.9866C72.1805 55.3492 72.3071 55.69 72.5371 55.9463C72.7251 56.156 72.7251 56.4955 72.5371 56.7052C72.4432 56.81 72.3199 56.8624 72.1968 56.8624Z" fill="black"/>
</g>
</g>
<defs>
<filter id="filter0_d" x="0" y="0" width="168" height="168" filterUnits="userSpaceOnUse" color-interpolation-filters="sRGB">
<feFlood flood-opacity="0" result="BackgroundImageFix"/>
<feColorMatrix in="SourceAlpha" type="matrix" values="0 0 0 0 0 0 0 0 0 0 0 0 0 0 0 0 0 0 127 0"/>
<feOffset dy="2"/>
<feGaussianBlur stdDeviation="8"/>
<feColorMatrix type="matrix" values="0 0 0 0 0.235764 0 0 0 0 0.244708 0 0 0 0 0.291667 0 0 0 0.08 0"/>
<feBlend mode="multiply" in2="BackgroundImageFix" result="effect1_dropShadow"/>
<feBlend mode="normal" in="SourceGraphic" in2="effect1_dropShadow" result="shape"/>
</filter>
<clipPath id="clip0">
<rect width="61" height="68" fill="white" transform="translate(53 40)"/>
</clipPath>
</defs>
</svg>
