<svg width="168" height="168" viewBox="0 0 168 168" fill="none" xmlns="http://www.w3.org/2000/svg">
<g filter="url(#filter0_d)">
<rect x="16" y="14" width="136" height="136" rx="6" fill="white"/>
<path d="M70.9554 108.608V120H70.0274V110.88L66.0274 120H65.2914L61.2594 110.96L61.2754 120H60.3474V108.608H61.1634L65.6754 118.816L70.1234 108.608H70.9554ZM81.0499 111.984V120H80.0739V118.464C79.8392 118.997 79.4819 119.408 79.0019 119.696C78.5325 119.973 77.9672 120.112 77.3059 120.112C76.5912 120.112 75.9619 119.947 75.4179 119.616C74.8845 119.275 74.4685 118.795 74.1699 118.176C73.8819 117.547 73.7379 116.816 73.7379 115.984C73.7379 115.152 73.8872 114.421 74.1859 113.792C74.4845 113.152 74.9005 112.661 75.4339 112.32C75.9779 111.968 76.6019 111.792 77.3059 111.792C77.9565 111.792 78.5165 111.931 78.9859 112.208C79.4659 112.485 79.8285 112.891 80.0739 113.424V111.984H81.0499ZM77.4499 119.248C78.2819 119.248 78.9272 118.96 79.3859 118.384C79.8445 117.808 80.0739 116.997 80.0739 115.952C80.0739 114.896 79.8445 114.08 79.3859 113.504C78.9272 112.928 78.2765 112.64 77.4339 112.64C76.5912 112.64 75.9352 112.939 75.4659 113.536C74.9965 114.123 74.7619 114.939 74.7619 115.984C74.7619 117.019 74.9965 117.824 75.4659 118.4C75.9352 118.965 76.5965 119.248 77.4499 119.248ZM86.811 120.112C85.5097 120.112 84.4803 119.755 83.723 119.04L84.075 118.288C84.5017 118.64 84.9283 118.891 85.355 119.04C85.7923 119.189 86.2937 119.264 86.859 119.264C87.5203 119.264 88.0217 119.152 88.363 118.928C88.715 118.693 88.891 118.357 88.891 117.92C88.891 117.557 88.7737 117.275 88.539 117.072C88.315 116.859 87.9417 116.688 87.419 116.56L86.059 116.256C85.419 116.107 84.9123 115.84 84.539 115.456C84.1763 115.072 83.995 114.624 83.995 114.112C83.995 113.408 84.2617 112.848 84.795 112.432C85.339 112.005 86.059 111.792 86.955 111.792C87.5203 111.792 88.043 111.883 88.523 112.064C89.0137 112.245 89.419 112.507 89.739 112.848L89.371 113.6C88.635 112.96 87.8297 112.64 86.955 112.64C86.3363 112.64 85.8563 112.763 85.515 113.008C85.1737 113.253 85.003 113.595 85.003 114.032C85.003 114.395 85.1097 114.688 85.323 114.912C85.547 115.136 85.8883 115.301 86.347 115.408L87.723 115.744C89.163 116.064 89.883 116.773 89.883 117.872C89.883 118.544 89.6057 119.088 89.051 119.504C88.4963 119.909 87.7497 120.112 86.811 120.112ZM95.2173 120.112C93.9159 120.112 92.8866 119.755 92.1293 119.04L92.4813 118.288C92.9079 118.64 93.3346 118.891 93.7613 119.04C94.1986 119.189 94.6999 119.264 95.2653 119.264C95.9266 119.264 96.4279 119.152 96.7693 118.928C97.1213 118.693 97.2973 118.357 97.2973 117.92C97.2973 117.557 97.1799 117.275 96.9453 117.072C96.7213 116.859 96.3479 116.688 95.8253 116.56L94.4653 116.256C93.8253 116.107 93.3186 115.84 92.9453 115.456C92.5826 115.072 92.4013 114.624 92.4013 114.112C92.4013 113.408 92.6679 112.848 93.2013 112.432C93.7453 112.005 94.4653 111.792 95.3613 111.792C95.9266 111.792 96.4493 111.883 96.9293 112.064C97.4199 112.245 97.8253 112.507 98.1453 112.848L97.7773 113.6C97.0413 112.96 96.2359 112.64 95.3613 112.64C94.7426 112.64 94.2626 112.763 93.9213 113.008C93.5799 113.253 93.4093 113.595 93.4093 114.032C93.4093 114.395 93.5159 114.688 93.7293 114.912C93.9533 115.136 94.2946 115.301 94.7533 115.408L96.1293 115.744C97.5693 116.064 98.2893 116.773 98.2893 117.872C98.2893 118.544 98.0119 119.088 97.4573 119.504C96.9026 119.909 96.1559 120.112 95.2173 120.112ZM107.816 111.984V120H106.84V118.464C106.605 118.997 106.248 119.408 105.768 119.696C105.298 119.973 104.733 120.112 104.072 120.112C103.357 120.112 102.728 119.947 102.184 119.616C101.65 119.275 101.234 118.795 100.936 118.176C100.648 117.547 100.504 116.816 100.504 115.984C100.504 115.152 100.653 114.421 100.952 113.792C101.25 113.152 101.666 112.661 102.2 112.32C102.744 111.968 103.368 111.792 104.072 111.792C104.722 111.792 105.282 111.931 105.752 112.208C106.232 112.485 106.594 112.891 106.84 113.424V111.984H107.816ZM104.216 119.248C105.048 119.248 105.693 118.96 106.152 118.384C106.61 117.808 106.84 116.997 106.84 115.952C106.84 114.896 106.61 114.08 106.152 113.504C105.693 112.928 105.042 112.64 104.2 112.64C103.357 112.64 102.701 112.939 102.232 113.536C101.762 114.123 101.528 114.939 101.528 115.984C101.528 117.019 101.762 117.824 102.232 118.4C102.701 118.965 103.362 119.248 104.216 119.248Z" fill="#313030"/>
<g clip-path="url(#clip0)">
<rect width="48" height="48" transform="translate(60 38)" fill="white"/>
<path d="M104.956 82.2365C99.8777 81.149 95.9178 78.7313 92.9412 75.1819L89.4819 71.057C86.945 68.0281 82.4329 67.6294 79.404 70.1664C79.0815 70.4365 78.7835 70.7345 78.5134 71.057L75.0541 75.1819C72.0814 78.7274 68.1233 81.148 63.0393 82.2365L60.9375 79.4877C61.1906 78.9899 61.6659 78.1818 61.6659 76.8853C61.6669 75.3235 61.0312 74.2247 60 73.2498V70.5986C61.0406 69.6171 61.6669 68.5165 61.6669 66.9622C61.6669 65.4078 61.0312 64.3016 60 63.3257V60.6744C61.0406 59.6928 61.6669 58.5922 61.6669 57.0379C61.6669 55.4836 61.0312 54.3774 60 53.4024V50.7503C61.0406 49.7687 61.6669 48.6671 61.6669 47.1138C61.6669 45.8425 61.2122 45.0513 60.9394 44.5114L63.0431 41.7637C68.1224 42.8521 72.0814 45.2689 75.0578 48.8183L78.5171 52.9432C81.0541 55.972 85.5662 56.3708 88.5951 53.8338C88.9176 53.5637 89.2156 53.2657 89.4857 52.9432L92.945 48.8183C95.9177 45.2727 99.8758 42.8521 104.96 41.7637L107.062 44.5123C106.812 45.0036 106.333 45.8173 106.333 47.1147C106.333 48.6766 106.967 49.7753 108 50.7512V53.4024C106.959 54.3839 106.333 55.4845 106.333 57.0388C106.333 58.5931 106.968 59.6984 107.999 60.6744V63.3255C106.959 64.3071 106.332 65.4077 106.332 66.962C106.332 68.5164 106.968 69.6225 107.999 70.5985V73.2496C106.959 74.2312 106.332 75.3318 106.332 76.8861C106.332 78.1545 106.784 78.9439 107.061 79.4885L104.956 82.2365ZM83.9995 66.9977C86.5594 66.9949 88.9886 68.128 90.6313 70.0914L94.0906 74.2163C96.7445 77.3699 100.337 79.5934 104.343 80.5621L105.306 79.304C104.991 78.5351 104.829 77.7123 104.829 76.8816C104.824 75.2989 105.421 73.7735 106.499 72.6151V71.2314C104.276 68.8184 104.276 65.1039 106.499 62.6909V61.3081C104.276 58.8952 104.276 55.1806 106.499 52.7677V51.3849C105.421 50.2251 104.825 48.6983 104.832 47.1146C104.832 46.2838 104.994 45.461 105.309 44.6922L104.343 43.4379C100.335 44.4065 96.7421 46.6305 94.0878 49.7856L90.6285 53.9105C87.5577 57.5728 82.0994 58.0524 78.4371 54.9816C78.0494 54.6565 77.691 54.2981 77.366 53.9105L73.9067 49.7856C71.2536 46.6315 67.6621 44.4075 63.6562 43.4379L62.6906 44.6922C63.0054 45.4611 63.1672 46.2839 63.1669 47.1147C63.1744 48.6984 62.5783 50.2252 61.5 51.385V52.7687C62.5783 53.9285 63.1744 55.4553 63.1669 57.0389C63.1742 58.6222 62.5781 60.1487 61.5 61.3082V62.692C62.5783 63.8517 63.1744 65.3785 63.1669 66.9622C63.1742 68.5454 62.5781 70.072 61.5 71.2315V72.6152C62.5783 73.775 63.1744 75.3018 63.1669 76.8854C63.1672 77.7162 63.0055 78.5391 62.6906 79.3078L63.6562 80.5622C67.6638 79.5935 71.2569 77.3695 73.9114 74.2145L77.3707 70.0896C79.013 68.1277 81.441 66.9952 83.9995 66.9977Z" fill="#313030"/>
<path d="M102.837 77.9512C100.053 76.9089 97.5842 75.1652 95.6712 72.8888L92.2109 68.7639C88.4083 64.2287 81.6492 63.6347 77.1139 67.4372C76.6337 67.8397 76.1898 68.2837 75.7872 68.7639L72.3279 72.8888C70.4148 75.1652 67.9465 76.9088 65.1617 77.9512C65.4368 75.8165 64.8795 73.658 63.6055 71.9232C64.6632 70.4853 65.2323 68.7462 65.2292 66.9611C65.2321 65.1763 64.6631 63.4376 63.6055 61.9999C64.6632 60.562 65.2323 58.8229 65.2292 57.0379C65.2323 55.2528 64.6632 53.5137 63.6055 52.0758C64.8795 50.341 65.4368 48.1824 65.1617 46.0477C67.9464 47.0901 70.4148 48.8339 72.3279 51.1101L75.7872 55.235C79.5897 59.7703 86.3489 60.3643 90.8842 56.5618C91.3644 56.1592 91.8083 55.7152 92.2109 55.235L95.6702 51.1101C97.5833 48.8339 100.052 47.0901 102.836 46.0477C102.561 48.1824 103.119 50.341 104.393 52.0758C102.228 55.0293 102.228 59.0455 104.393 61.999C102.228 64.9525 102.228 68.9688 104.393 71.9223C103.119 73.6574 102.562 75.8164 102.837 77.9512Z" fill="#FB9C05"/>
<path d="M87.441 61.9953C88.5364 61.4878 89.506 60.7444 90.2806 59.8185L93.542 55.9289L92.3955 54.9689L89.134 58.8585C86.7401 61.6944 82.5004 62.0529 79.6645 59.659C79.3756 59.4152 79.1078 59.1473 78.8639 58.8585L75.6034 54.9689L74.454 55.9326L77.7183 59.8185C78.494 60.7448 79.465 61.4882 80.5616 61.9953C79.4649 62.5024 78.4939 63.2458 77.7183 64.1722L74.4568 68.0618L75.6062 69.0256L78.8676 65.136C81.2615 62.3 85.5012 61.9415 88.3371 64.3353C88.6261 64.5792 88.8938 64.847 89.1378 65.136L92.3992 69.0256L93.5486 68.0618L90.2806 64.1722C89.506 63.2462 88.5364 62.5029 87.441 61.9953Z" fill="#313030"/>
</g>
</g>
<defs>
<filter id="filter0_d" x="0" y="0" width="168" height="168" filterUnits="userSpaceOnUse" color-interpolation-filters="sRGB">
<feFlood flood-opacity="0" result="BackgroundImageFix"/>
<feColorMatrix in="SourceAlpha" type="matrix" values="0 0 0 0 0 0 0 0 0 0 0 0 0 0 0 0 0 0 127 0"/>
<feOffset dy="2"/>
<feGaussianBlur stdDeviation="8"/>
<feColorMatrix type="matrix" values="0 0 0 0 0.235764 0 0 0 0 0.244708 0 0 0 0 0.291667 0 0 0 0.08 0"/>
<feBlend mode="multiply" in2="BackgroundImageFix" result="effect1_dropShadow"/>
<feBlend mode="normal" in="SourceGraphic" in2="effect1_dropShadow" result="shape"/>
</filter>
<clipPath id="clip0">
<rect width="48" height="48" fill="white" transform="translate(60 38)"/>
</clipPath>
</defs>
</svg>
