<svg width="168" height="168" viewBox="0 0 168 168" fill="none" xmlns="http://www.w3.org/2000/svg">
<g filter="url(#filter0_d)">
<rect x="16" y="14" width="136" height="136" rx="6" fill="white"/>
<path d="M59.2444 108.608V120H58.3164V110.88L54.3164 120H53.5804L49.5484 110.96L49.5644 120H48.6364V108.608H49.4524L53.9644 118.816L58.4124 108.608H59.2444ZM63.0509 115.872V115.92C63.0509 116.997 63.2963 117.824 63.7869 118.4C64.2883 118.965 65.0136 119.248 65.9629 119.248C66.9229 119.248 67.8029 118.917 68.6029 118.256L68.9869 119.024C68.6349 119.355 68.1869 119.621 67.6429 119.824C67.0989 120.016 66.5389 120.112 65.9629 120.112C64.7469 120.112 63.7869 119.744 63.0829 119.008C62.3789 118.272 62.0269 117.259 62.0269 115.968C62.0269 115.147 62.1816 114.421 62.4909 113.792C62.8109 113.152 63.2536 112.661 63.8189 112.32C64.3843 111.968 65.0349 111.792 65.7709 111.792C66.8269 111.792 67.6483 112.133 68.2349 112.816C68.8323 113.499 69.1309 114.448 69.1309 115.664V115.872H63.0509ZM65.7709 112.592C65.0349 112.592 64.4376 112.816 63.9789 113.264C63.5203 113.701 63.2323 114.32 63.1149 115.12H68.2029C68.1389 114.299 67.8989 113.675 67.4829 113.248C67.0669 112.811 66.4963 112.592 65.7709 112.592ZM78.3858 120H77.1858L74.4818 116.624L71.8098 120H70.5938L73.8898 115.872L70.7698 111.984H71.9858L74.4818 115.12L76.9778 111.984H78.1938L75.0898 115.872L78.3858 120ZM80.5389 111.984H81.4989V120H80.5389V111.984ZM81.6909 108.672V109.92H80.3949V108.672H81.6909ZM87.9276 120.112C87.1702 120.112 86.5089 119.941 85.9436 119.6C85.3782 119.259 84.9409 118.779 84.6316 118.16C84.3222 117.531 84.1676 116.805 84.1676 115.984C84.1676 115.152 84.3222 114.421 84.6316 113.792C84.9409 113.152 85.3836 112.661 85.9596 112.32C86.5356 111.968 87.2022 111.792 87.9596 111.792C88.5036 111.792 89.0209 111.888 89.5116 112.08C90.0129 112.261 90.4236 112.517 90.7436 112.848L90.3596 113.616C89.9436 113.275 89.5436 113.029 89.1596 112.88C88.7862 112.72 88.3969 112.64 87.9916 112.64C87.1276 112.64 86.4449 112.939 85.9436 113.536C85.4422 114.123 85.1916 114.939 85.1916 115.984C85.1916 117.008 85.4369 117.808 85.9276 118.384C86.4289 118.96 87.1169 119.248 87.9916 119.248C88.3969 119.248 88.7862 119.173 89.1596 119.024C89.5436 118.864 89.9436 118.619 90.3596 118.288L90.7436 119.04C90.4022 119.371 89.9756 119.632 89.4636 119.824C88.9622 120.016 88.4502 120.112 87.9276 120.112ZM99.8233 111.984V120H98.8473V118.464C98.6126 118.997 98.2553 119.408 97.7753 119.696C97.306 119.973 96.7406 120.112 96.0793 120.112C95.3646 120.112 94.7353 119.947 94.1913 119.616C93.658 119.275 93.242 118.795 92.9433 118.176C92.6553 117.547 92.5113 116.816 92.5113 115.984C92.5113 115.152 92.6606 114.421 92.9593 113.792C93.258 113.152 93.674 112.661 94.2073 112.32C94.7513 111.968 95.3753 111.792 96.0793 111.792C96.73 111.792 97.29 111.931 97.7593 112.208C98.2393 112.485 98.602 112.891 98.8473 113.424V111.984H99.8233ZM96.2233 119.248C97.0553 119.248 97.7006 118.96 98.1593 118.384C98.618 117.808 98.8473 116.997 98.8473 115.952C98.8473 114.896 98.618 114.08 98.1593 113.504C97.7006 112.928 97.05 112.64 96.2073 112.64C95.3646 112.64 94.7086 112.939 94.2393 113.536C93.77 114.123 93.5353 114.939 93.5353 115.984C93.5353 117.019 93.77 117.824 94.2393 118.4C94.7086 118.965 95.37 119.248 96.2233 119.248ZM106.704 111.792C108.635 111.792 109.6 112.827 109.6 114.896V120H108.624V114.96C108.624 114.16 108.459 113.573 108.128 113.2C107.808 112.827 107.302 112.64 106.608 112.64C105.808 112.64 105.163 112.885 104.672 113.376C104.182 113.867 103.936 114.528 103.936 115.36V120H102.976V114.208C102.976 113.376 102.934 112.635 102.848 111.984H103.776L103.904 113.456C104.15 112.912 104.518 112.501 105.008 112.224C105.499 111.936 106.064 111.792 106.704 111.792ZM119.526 111.984V120H118.55V118.464C118.316 118.997 117.958 119.408 117.478 119.696C117.009 119.973 116.444 120.112 115.782 120.112C115.068 120.112 114.438 119.947 113.894 119.616C113.361 119.275 112.945 118.795 112.646 118.176C112.358 117.547 112.214 116.816 112.214 115.984C112.214 115.152 112.364 114.421 112.662 113.792C112.961 113.152 113.377 112.661 113.91 112.32C114.454 111.968 115.078 111.792 115.782 111.792C116.433 111.792 116.993 111.931 117.462 112.208C117.942 112.485 118.305 112.891 118.55 113.424V111.984H119.526ZM115.926 119.248C116.758 119.248 117.404 118.96 117.862 118.384C118.321 117.808 118.55 116.997 118.55 115.952C118.55 114.896 118.321 114.08 117.862 113.504C117.404 112.928 116.753 112.64 115.91 112.64C115.068 112.64 114.412 112.939 113.942 113.536C113.473 114.123 113.238 114.939 113.238 115.984C113.238 117.019 113.473 117.824 113.942 118.4C114.412 118.965 115.073 119.248 115.926 119.248Z" fill="#313030"/>
<g clip-path="url(#clip0)">
<path d="M84.5736 55.3562C78.0658 55.3562 62.379 62.6563 57.1473 64.2055C57.1124 85.0635 57.1473 81.3879 57.1473 81.3879C50.0221 87.4867 68.5713 83.7672 75.0946 83.7672C87.7985 83.7672 102.184 88.4516 109.163 81.3879C102.177 74.3163 97.2853 55.3562 84.5736 55.3562Z" fill="#FB9C05"/>
<path d="M110.22 75.998H108.181C108.682 75.2956 109.122 74.5438 109.494 73.7506C110.111 72.4349 110.537 71.0212 110.761 69.5483C110.875 68.7992 110.602 68.0568 110.05 67.6106C109.499 67.165 108.783 67.1063 108.181 67.4586L105.264 69.1582L105.807 61.3554C105.833 60.9757 105.821 60.599 105.774 60.2286C106.82 59.5277 107.812 58.8004 108.79 58.0165C109.191 57.6943 109.282 57.0712 108.993 56.624C108.705 56.1768 108.146 56.0756 107.744 56.3968C106.906 57.0691 106.057 57.6979 105.17 58.3039C104.348 56.7527 102.849 55.7727 101.169 55.7727H98.6223C98.5469 55.7727 98.472 55.7685 98.3975 55.7618C98.6334 55.63 98.8671 55.4966 99.097 55.3597C99.5326 55.0998 99.6969 54.4954 99.4637 54.0098C99.2305 53.5242 98.6888 53.3405 98.2528 53.6004C97.6594 53.9543 97.0404 54.2894 96.4079 54.6022C96.3051 54.4622 96.2125 54.3122 96.1315 54.1524L94.9084 51.7369C94.2704 50.4773 93.18 49.5668 91.9169 49.2379C90.6538 48.9089 89.3144 49.1875 88.2435 50.0005L87.7037 50.4093C86.5779 51.2627 85.0579 51.1102 84.0885 50.0472L83.3332 49.2181C81.5479 47.2612 78.6341 47.2488 76.8372 49.1896L75.6589 50.4612C74.8053 51.3821 73.5562 51.6212 72.4774 51.0703L71.273 50.456C69.9187 49.7639 68.3722 49.8417 67.0919 50.6303C66.3701 50.0041 65.6748 49.3437 65.0218 48.6563C64.6625 48.2781 64.0962 48.2957 63.7569 48.6968C63.4176 49.0967 63.4339 49.7281 63.7932 50.1063C64.3968 50.7424 65.0344 51.3566 65.6948 51.9439C65.3322 52.4513 65.0572 53.0329 64.885 53.6689L64.6127 54.6712C64.2511 56.0071 63.1309 56.9337 61.8809 56.9374C61.8679 56.9368 61.8544 56.9363 61.8409 56.9358C60.7523 56.9218 59.7015 57.3337 58.8656 58.0855C58.0949 57.5449 57.3405 56.9799 56.6168 56.3983C56.2161 56.0761 55.6567 56.1768 55.3677 56.6235C55.0787 57.0707 55.169 57.6943 55.5697 58.0165C56.2589 58.5705 56.9752 59.1101 57.7058 59.6289C57.1688 60.7137 56.9985 61.9739 57.2423 63.2216L58.282 68.5512C58.1717 68.7478 58.0637 68.945 57.9581 69.1421L54.5277 67.1432C53.9897 66.8298 53.3474 66.8775 52.8513 67.2666C52.3548 67.6563 52.0983 68.3151 52.1812 68.987C52.3831 70.6067 52.829 72.1605 53.5052 73.6032C53.8771 74.398 54.3173 75.1498 54.8172 75.8517H52.9318C51.8666 75.8517 51 76.8182 51 78.0063V80.9214C51 82.1084 51.8666 83.0744 52.9318 83.0744H54.1633C54.1372 83.6249 54.1223 84.1758 54.1223 84.7227C54.1223 85.146 54.2703 85.5429 54.5365 85.8355C54.8023 86.1312 55.156 86.2946 55.5325 86.2946H99.0914C99.5856 86.2946 99.9859 85.8479 99.9859 85.297C99.9859 84.746 99.5856 84.2998 99.0914 84.2998H55.9146C55.9239 83.5896 55.9574 82.8737 56.0132 82.166C56.15 80.454 56.4256 78.7549 56.8328 77.1155C56.9012 76.8406 56.9645 76.5967 57.0278 76.3684C57.5425 74.4925 58.2359 72.671 59.0904 70.9511C59.3659 70.3929 59.667 69.8311 59.9853 69.2817C59.9858 69.2811 59.9858 69.2806 59.9863 69.2806C61.315 66.988 62.9313 64.9191 64.7905 63.1318L64.7933 63.1287C65.4923 62.4569 66.2314 61.8208 66.9904 61.2377C67.3977 60.9248 67.5 60.3038 67.2199 59.8504C66.9392 59.397 66.3822 59.2823 65.975 59.5952C65.3197 60.0984 64.6793 60.6405 64.0631 61.2081C62.8782 60.6047 61.7115 59.9412 60.5773 59.2247C60.9468 59.0328 61.3541 58.9311 61.7799 58.9301C61.7934 58.9311 61.8069 58.9316 61.8204 58.9316C61.8381 58.9316 61.8553 58.9321 61.873 58.9321C63.91 58.9321 65.7362 57.424 66.3259 55.2481L66.5981 54.2453C66.7089 53.836 66.8885 53.464 67.1259 53.1429C68.6109 54.3143 70.1779 55.3332 71.8096 56.1892C71.1487 56.4678 70.4967 56.7734 69.8591 57.1075C69.4119 57.342 69.2197 57.936 69.4296 58.4346C69.6399 58.9332 70.1728 59.1474 70.62 58.9129C71.891 58.2473 73.2202 57.6964 74.5708 57.2751C74.5782 57.273 74.5857 57.2704 74.5931 57.2683C76.8214 56.5752 79.1372 56.224 81.4767 56.224C84.8657 56.224 88.1579 56.9519 91.2616 58.3874C91.2705 58.3915 91.2798 58.3957 91.2891 58.3993C93.9688 59.6408 96.4261 61.3752 98.593 63.5546C98.5939 63.5552 98.5953 63.5567 98.5957 63.5577C98.5967 63.5583 98.5976 63.5593 98.5985 63.5603C98.9229 63.8861 99.2445 64.2265 99.5535 64.5715C101.101 66.2949 102.445 68.2337 103.548 70.3338C103.548 70.3338 103.549 70.3348 103.549 70.3353C103.673 70.5698 103.8 70.8209 103.929 71.0829C104.775 72.8084 105.46 74.6357 105.966 76.5179C106.03 76.7539 106.094 77.0019 106.155 77.2561C106.554 78.8971 106.822 80.5961 106.95 82.3066C107 82.9686 107.03 83.6368 107.039 84.2993H102.671C102.176 84.2993 101.776 84.746 101.776 85.297C101.776 85.8474 102.176 86.2941 102.671 86.2941H107.421C108.199 86.2941 108.831 85.5891 108.831 84.7221C108.831 84.2246 108.819 83.7224 108.797 83.2202H110.22C111.201 83.2202 112 82.33 112 81.2363V77.9804C112 76.8872 111.201 75.998 110.22 75.998ZM57.0948 70.8899C56.6247 71.9177 56.2068 72.976 55.8447 74.0562C55.5669 73.6167 55.3151 73.1576 55.0917 72.6803C54.563 71.5524 54.1986 70.3457 54.0064 69.0902L57.0948 70.8899ZM52.7894 80.9214V78.0063C52.7894 77.9181 52.8532 77.8465 52.9318 77.8465H54.8213C54.6017 78.9095 54.4337 79.9907 54.3173 81.0797H52.9318C52.8532 81.0797 52.7894 81.0086 52.7894 80.9214ZM59.6749 66.3027L58.9908 62.7972C58.847 62.0605 58.9377 61.3165 59.2379 60.668C60.333 61.3778 61.4592 62.0408 62.6041 62.6504C61.5412 63.7803 60.5615 65.001 59.6749 66.3027ZM108.994 69.236C108.8 70.4946 108.435 71.7029 107.908 72.8271C107.685 73.3023 107.434 73.7604 107.156 74.1993C106.799 73.1177 106.386 72.0572 105.921 71.0269L108.994 69.236ZM101.169 57.768C102.199 57.768 103.118 58.3656 103.625 59.3129C102.247 60.1726 100.818 60.9555 99.3623 61.6501C97.7608 60.1051 96.0175 58.7822 94.155 57.6958C94.8047 57.4603 95.4464 57.2014 96.078 56.9208C96.831 57.4696 97.7157 57.768 98.6223 57.768H101.169ZM74.4023 55.2601C72.4532 54.416 70.5856 53.3338 68.8311 52.03C69.3951 51.9164 69.9866 51.9932 70.5279 52.2697L71.7328 52.884C73.4864 53.7794 75.516 53.3914 76.9028 51.8946L78.0822 50.6231C79.1879 49.4288 80.9802 49.4366 82.078 50.6402L82.8329 51.4687C84.4092 53.1979 86.8809 53.4458 88.7094 52.0591L89.2497 51.6503C89.919 51.1424 90.7213 50.9753 91.5097 51.1808C92.298 51.3857 92.9515 51.932 93.3498 52.7174L94.5729 55.133C94.6138 55.2144 94.6576 55.2943 94.7027 55.3727C93.7105 55.781 92.695 56.1311 91.6679 56.4201C88.4274 54.9675 85.0012 54.2292 81.4767 54.2292C79.0758 54.2287 76.6976 54.5763 74.4023 55.2601ZM100.791 63.1303C101.885 62.5829 102.962 61.9889 104.012 61.3518L103.631 66.8319C102.783 65.5292 101.843 64.3007 100.819 63.1603C100.81 63.1505 100.8 63.1401 100.791 63.1303ZM110.211 81.226H108.651C108.54 80.1375 108.376 79.0558 108.162 77.9928H110.211V81.226Z" fill="#313030"/>
<path d="M73.6526 68.4619C73.6526 69.1084 73.1825 69.6329 72.6022 69.6329C72.0223 69.6329 71.5522 69.1084 71.5522 68.4619C71.5522 67.815 72.0223 67.291 72.6022 67.291C73.1825 67.291 73.6526 67.815 73.6526 68.4619Z" fill="#313030"/>
<path d="M92.0886 68.4619C92.0886 69.1084 91.6185 69.6329 91.0382 69.6329C90.4583 69.6329 89.9878 69.1084 89.9878 68.4619C89.9878 67.815 90.4583 67.291 91.0382 67.291C91.6185 67.291 92.0886 67.815 92.0886 68.4619Z" fill="#313030"/>
<path d="M82.8706 68.4619C82.8706 69.1084 82.4005 69.6329 81.8202 69.6329C81.2403 69.6329 80.7698 69.1084 80.7698 68.4619C80.7698 67.815 81.2403 67.291 81.8202 67.291C82.4005 67.291 82.8706 67.815 82.8706 68.4619Z" fill="#313030"/>
<path d="M68.5062 74.4037C68.5062 75.0501 68.0357 75.5746 67.4558 75.5746C66.8759 75.5746 66.4054 75.0501 66.4054 74.4037C66.4054 73.7568 66.8759 73.2328 67.4558 73.2328C68.0357 73.2328 68.5062 73.7568 68.5062 74.4037Z" fill="#313030"/>
<path d="M86.9423 74.4037C86.9423 75.0501 86.4718 75.5746 85.8919 75.5746C85.3116 75.5746 84.8416 75.0501 84.8416 74.4037C84.8416 73.7568 85.3116 73.2328 85.8919 73.2328C86.4718 73.2328 86.9423 73.7568 86.9423 74.4037Z" fill="#313030"/>
<path d="M96.5489 74.4037C96.5489 75.0501 96.0784 75.5746 95.4985 75.5746C94.9182 75.5746 94.4481 75.0501 94.4481 74.4037C94.4481 73.7568 94.9182 73.2328 95.4985 73.2328C96.0784 73.2328 96.5489 73.7568 96.5489 74.4037Z" fill="#313030"/>
<path d="M77.7242 74.4037C77.7242 75.0501 77.2537 75.5746 76.6738 75.5746C76.0939 75.5746 75.6234 75.0501 75.6234 74.4037C75.6234 73.7568 76.0939 73.2328 76.6738 73.2328C77.2537 73.2328 77.7242 73.7568 77.7242 74.4037Z" fill="#313030"/>
</g>
</g>
<defs>
<filter id="filter0_d" x="0" y="0" width="168" height="168" filterUnits="userSpaceOnUse" color-interpolation-filters="sRGB">
<feFlood flood-opacity="0" result="BackgroundImageFix"/>
<feColorMatrix in="SourceAlpha" type="matrix" values="0 0 0 0 0 0 0 0 0 0 0 0 0 0 0 0 0 0 127 0"/>
<feOffset dy="2"/>
<feGaussianBlur stdDeviation="8"/>
<feColorMatrix type="matrix" values="0 0 0 0 0.235764 0 0 0 0 0.244708 0 0 0 0 0.291667 0 0 0 0.08 0"/>
<feBlend mode="multiply" in2="BackgroundImageFix" result="effect1_dropShadow"/>
<feBlend mode="normal" in="SourceGraphic" in2="effect1_dropShadow" result="shape"/>
</filter>
<clipPath id="clip0">
<rect width="61" height="68" fill="white" transform="translate(51 33)"/>
</clipPath>
</defs>
</svg>
