<svg width="168" height="168" viewBox="0 0 168 168" fill="none" xmlns="http://www.w3.org/2000/svg">
<g filter="url(#filter0_d)">
<rect x="16" y="14" width="136" height="136" rx="6" fill="white"/>
<path d="M64.7845 108.608H69.1685C70.3098 108.608 71.2058 108.885 71.8565 109.44C72.5072 109.995 72.8325 110.757 72.8325 111.728C72.8325 112.709 72.5018 113.483 71.8405 114.048C71.1898 114.603 70.2992 114.88 69.1685 114.88H65.7765V120H64.7845V108.608ZM69.1045 114.016C70.0005 114.016 70.6778 113.819 71.1365 113.424C71.5952 113.029 71.8245 112.464 71.8245 111.728C71.8245 111.003 71.5952 110.443 71.1365 110.048C70.6778 109.653 70.0005 109.456 69.1045 109.456H65.7765V114.016H69.1045ZM75.715 115.872V115.92C75.715 116.997 75.9603 117.824 76.451 118.4C76.9523 118.965 77.6777 119.248 78.627 119.248C79.587 119.248 80.467 118.917 81.267 118.256L81.651 119.024C81.299 119.355 80.851 119.621 80.307 119.824C79.763 120.016 79.203 120.112 78.627 120.112C77.411 120.112 76.451 119.744 75.747 119.008C75.043 118.272 74.691 117.259 74.691 115.968C74.691 115.147 74.8457 114.421 75.155 113.792C75.475 113.152 75.9177 112.661 76.483 112.32C77.0483 111.968 77.699 111.792 78.435 111.792C79.491 111.792 80.3123 112.133 80.899 112.816C81.4963 113.499 81.795 114.448 81.795 115.664V115.872H75.715ZM78.435 112.592C77.699 112.592 77.1017 112.816 76.643 113.264C76.1843 113.701 75.8963 114.32 75.779 115.12H80.867C80.803 114.299 80.563 113.675 80.147 113.248C79.731 112.811 79.1603 112.592 78.435 112.592ZM84.3905 111.984H85.3505V120H84.3905V111.984ZM85.5425 108.672V109.92H84.2465V108.672H85.5425ZM95.3311 120H94.1311L91.4271 116.624L88.7551 120H87.5391L90.8351 115.872L87.7151 111.984H88.9311L91.4271 115.12L93.9231 111.984H95.1391L92.0351 115.872L95.3311 120ZM97.84 115.872V115.92C97.84 116.997 98.0853 117.824 98.576 118.4C99.0773 118.965 99.8027 119.248 100.752 119.248C101.712 119.248 102.592 118.917 103.392 118.256L103.776 119.024C103.424 119.355 102.976 119.621 102.432 119.824C101.888 120.016 101.328 120.112 100.752 120.112C99.536 120.112 98.576 119.744 97.872 119.008C97.168 118.272 96.816 117.259 96.816 115.968C96.816 115.147 96.9707 114.421 97.28 113.792C97.6 113.152 98.0427 112.661 98.608 112.32C99.1733 111.968 99.824 111.792 100.56 111.792C101.616 111.792 102.437 112.133 103.024 112.816C103.621 113.499 103.92 114.448 103.92 115.664V115.872H97.84ZM100.56 112.592C99.824 112.592 99.2267 112.816 98.768 113.264C98.3093 113.701 98.0213 114.32 97.904 115.12H102.992C102.928 114.299 102.688 113.675 102.272 113.248C101.856 112.811 101.285 112.592 100.56 112.592Z" fill="#313030"/>
<path d="M78.7246 56.167C75.5724 56.167 72.5824 56.7559 70.0484 57.8551C73.4897 62.1903 73.4827 68.3274 70.0315 72.6547C72.5685 73.7558 75.5649 74.3429 78.7246 74.3429C84.8779 74.3429 90.0136 70.2669 93.3937 65.2549C90.0099 60.2373 84.8817 56.167 78.7246 56.167Z" fill="#FB9C05"/>
<path d="M107.25 57.5175C103.072 57.5175 99.2779 60.5974 96.7578 63.8847C93.8832 59.3379 89.449 55.1944 84.1838 53.4744V46.0934L71.6952 53.5185C65.8213 55.1194 60 59.2582 60 65.2549C60 72.6744 68.9575 77.9068 78.7245 77.9068C86.2808 77.9068 92.7699 72.9361 96.7578 66.6261C99.2806 69.9087 103.071 72.9934 107.25 72.9934H108V57.5184L107.25 57.5175ZM82.6823 48.7316V53.0608C80.7944 52.6219 78.7865 52.4586 75.9372 52.7419L82.6823 48.7316ZM61.5006 65.2549C61.5006 61.4397 64.4342 58.4451 67.8124 56.6425C73.2333 61.0974 73.2333 69.4125 67.7917 73.8561C64.407 72.0441 61.5006 69.0504 61.5006 65.2549ZM78.7245 76.4061C75.3201 76.4061 72.0769 75.7721 69.268 74.5651C74.7377 69.5812 74.7452 60.9304 69.2887 55.9353C72.092 54.7348 75.3285 54.1036 78.7245 54.1036C86.0596 54.1036 92.3002 59.2806 95.8208 65.2313L95.8058 65.2548L95.8208 65.2782C92.2955 71.247 86.054 76.4061 78.7245 76.4061ZM106.499 71.4532C102.079 70.9937 98.596 66.6204 97.6094 65.2549C98.5942 63.8883 102.07 59.516 106.499 59.0574V71.4532Z" fill="#313030"/>
</g>
<defs>
<filter id="filter0_d" x="0" y="0" width="168" height="168" filterUnits="userSpaceOnUse" color-interpolation-filters="sRGB">
<feFlood flood-opacity="0" result="BackgroundImageFix"/>
<feColorMatrix in="SourceAlpha" type="matrix" values="0 0 0 0 0 0 0 0 0 0 0 0 0 0 0 0 0 0 127 0"/>
<feOffset dy="2"/>
<feGaussianBlur stdDeviation="8"/>
<feColorMatrix type="matrix" values="0 0 0 0 0.235764 0 0 0 0 0.244708 0 0 0 0 0.291667 0 0 0 0.08 0"/>
<feBlend mode="multiply" in2="BackgroundImageFix" result="effect1_dropShadow"/>
<feBlend mode="normal" in="SourceGraphic" in2="effect1_dropShadow" result="shape"/>
</filter>
</defs>
</svg>
