<svg width="168" height="168" viewBox="0 0 168 168" fill="none" xmlns="http://www.w3.org/2000/svg">
<g filter="url(#filter0_d)">
<rect x="16" y="14" width="136" height="136" rx="6" fill="white"/>
<path d="M64.6204 108.608H69.0044C70.1458 108.608 71.0418 108.885 71.6924 109.44C72.3431 109.995 72.6684 110.757 72.6684 111.728C72.6684 112.709 72.3378 113.483 71.6764 114.048C71.0258 114.603 70.1351 114.88 69.0044 114.88H65.6124V120H64.6204V108.608ZM68.9404 114.016C69.8364 114.016 70.5138 113.819 70.9724 113.424C71.4311 113.029 71.6604 112.464 71.6604 111.728C71.6604 111.003 71.4311 110.443 70.9724 110.048C70.5138 109.653 69.8364 109.456 68.9404 109.456H65.6124V114.016H68.9404ZM75.2733 111.984H76.2333V120H75.2733V111.984ZM76.4253 108.672V109.92H75.1293V108.672H76.4253ZM85.5899 119.2V120H78.9019V119.328L84.2299 112.768H79.0939V111.984H85.4139V112.72L80.1499 119.2H85.5899ZM94.3243 119.2V120H87.6363V119.328L92.9643 112.768H87.8283V111.984H94.1483V112.72L88.8843 119.2H94.3243ZM103.526 111.984V120H102.55V118.464C102.316 118.997 101.958 119.408 101.478 119.696C101.009 119.973 100.444 120.112 99.7824 120.112C99.0678 120.112 98.4384 119.947 97.8944 119.616C97.3611 119.275 96.9451 118.795 96.6464 118.176C96.3584 117.547 96.2144 116.816 96.2144 115.984C96.2144 115.152 96.3638 114.421 96.6624 113.792C96.9611 113.152 97.3771 112.661 97.9104 112.32C98.4544 111.968 99.0784 111.792 99.7824 111.792C100.433 111.792 100.993 111.931 101.462 112.208C101.942 112.485 102.305 112.891 102.55 113.424V111.984H103.526ZM99.9264 119.248C100.758 119.248 101.404 118.96 101.862 118.384C102.321 117.808 102.55 116.997 102.55 115.952C102.55 114.896 102.321 114.08 101.862 113.504C101.404 112.928 100.753 112.64 99.9104 112.64C99.0678 112.64 98.4118 112.939 97.9424 113.536C97.4731 114.123 97.2384 114.939 97.2384 115.984C97.2384 117.019 97.4731 117.824 97.9424 118.4C98.4118 118.965 99.0731 119.248 99.9264 119.248Z" fill="#313030"/>
<path d="M84 38L64.5588 76.0969C69.6384 82.8034 76.7005 86 84 86C91.2243 86 98.3174 82.8616 103.441 76.0969L84 38ZM99.2547 71.1947C94.1723 79.6194 83.2225 82.3288 74.7978 77.2464C72.3188 75.7509 70.2417 73.6737 68.7462 71.1947L84 41.3026L99.2547 71.1947ZM84 84.4989C77.1076 84.5058 70.593 81.3497 66.3265 75.9366L67.9544 72.7466C73.8946 81.6073 85.893 83.975 94.7537 78.0348C96.844 76.6333 98.6404 74.837 100.042 72.7466L101.67 75.9366C97.404 81.3486 90.8911 84.5047 84 84.4989Z" fill="#313030"/>
<path d="M88.222 54.1187C88.1702 55.6439 86.8917 56.8382 85.3666 56.7863C83.8414 56.7344 82.6471 55.456 82.699 53.9308C82.7509 52.4057 84.0293 51.2113 85.5544 51.2633C86.0714 51.2808 86.573 51.4432 87.0023 51.7318L84 45.8435L71.1274 71.0679C76.1383 78.1769 85.9634 79.8778 93.0723 74.8672C94.547 73.8277 95.8322 72.5427 96.8717 71.0679L88.222 54.1187ZM78.47 66.8158C76.9429 66.8158 75.7051 65.578 75.7051 64.0509C75.7051 62.5238 76.9429 61.2859 78.47 61.2859C79.9971 61.2859 81.235 62.5238 81.235 64.0509C81.235 65.578 79.9971 66.8158 78.47 66.8158ZM89.1443 73.4276C87.6172 73.4276 86.3793 72.1897 86.3793 70.6626C86.3793 69.1355 87.6172 67.8976 89.1443 67.8976C90.6703 67.8976 91.9077 69.1338 91.9093 70.6598C91.9109 72.1869 90.6742 73.426 89.1471 73.4276C89.1462 73.4276 89.1453 73.4276 89.1443 73.4276Z" fill="#FB9C05"/>
<path d="M89.1443 74.1783C87.2028 74.1783 85.6288 72.6043 85.6288 70.6627C85.6288 68.7212 87.2028 67.1472 89.1443 67.1472C91.0859 67.1472 92.6598 68.7212 92.6598 70.6627C92.6578 72.6035 91.085 74.1762 89.1443 74.1783ZM89.1443 68.6483C88.0318 68.6483 87.1299 69.5502 87.1299 70.6627C87.1299 71.7753 88.0318 72.6772 89.1443 72.6772C90.2568 72.6772 91.1587 71.7753 91.1587 70.6627C91.1608 69.5492 90.2598 68.6448 89.1462 68.6427C89.1455 68.6427 89.145 68.6427 89.1443 68.6427V68.6483Z" fill="#313030"/>
<path d="M78.47 67.5665C76.5284 67.5665 74.9545 65.9925 74.9545 64.0509C74.9545 62.1094 76.5284 60.5354 78.47 60.5354C80.4116 60.5354 81.9855 62.1094 81.9855 64.0509C81.9835 65.9917 80.4107 67.5644 78.47 67.5665ZM78.47 62.0365C77.3575 62.0365 76.4556 62.9384 76.4556 64.0509C76.4556 65.1635 77.3575 66.0653 78.47 66.0653C79.5825 66.0653 80.4844 65.1635 80.4844 64.0509C80.4828 62.9392 79.5817 62.0385 78.47 62.0375V62.0365Z" fill="#313030"/>
<path d="M85.4599 57.5406C83.5183 57.5422 81.9431 55.9694 81.9415 54.0279C81.9399 52.0863 83.5127 50.5111 85.4543 50.5095C87.3958 50.5079 88.971 52.0807 88.9726 54.0222C88.9726 54.0232 88.9726 54.0241 88.9726 54.0251C88.9705 55.9647 87.3995 57.5369 85.4599 57.5406ZM85.4599 52.0106C84.3473 52.0091 83.4443 52.9096 83.4427 54.0222C83.4411 55.1348 84.3416 56.0379 85.4543 56.0395C86.5669 56.0411 87.4699 55.1405 87.4715 54.0279C87.4715 54.0269 87.4715 54.026 87.4715 54.0251C87.4704 52.914 86.5708 52.0133 85.4599 52.0106Z" fill="#313030"/>
</g>
<defs>
<filter id="filter0_d" x="0" y="0" width="168" height="168" filterUnits="userSpaceOnUse" color-interpolation-filters="sRGB">
<feFlood flood-opacity="0" result="BackgroundImageFix"/>
<feColorMatrix in="SourceAlpha" type="matrix" values="0 0 0 0 0 0 0 0 0 0 0 0 0 0 0 0 0 0 127 0"/>
<feOffset dy="2"/>
<feGaussianBlur stdDeviation="8"/>
<feColorMatrix type="matrix" values="0 0 0 0 0.235764 0 0 0 0 0.244708 0 0 0 0 0.291667 0 0 0 0.08 0"/>
<feBlend mode="multiply" in2="BackgroundImageFix" result="effect1_dropShadow"/>
<feBlend mode="normal" in="SourceGraphic" in2="effect1_dropShadow" result="shape"/>
</filter>
</defs>
</svg>
