<svg width="168" height="168" viewBox="0 0 168 168" fill="none" xmlns="http://www.w3.org/2000/svg">
<g filter="url(#filter0_d)">
<rect x="16" y="14" width="136" height="136" rx="6" fill="white"/>
<path d="M45.8518 120.128C44.9558 120.128 44.1611 120.011 43.4678 119.776C42.7851 119.531 42.1771 119.152 41.6438 118.64L42.0598 117.856C42.6251 118.357 43.1958 118.715 43.7718 118.928C44.3584 119.141 45.0518 119.248 45.8518 119.248C46.8118 119.248 47.5584 119.051 48.0918 118.656C48.6251 118.261 48.8918 117.707 48.8918 116.992C48.8918 116.576 48.7584 116.24 48.4918 115.984C48.2358 115.717 47.9051 115.509 47.4998 115.36C47.1051 115.211 46.5771 115.061 45.9158 114.912C45.0411 114.72 44.3264 114.523 43.7718 114.32C43.2278 114.107 42.7691 113.792 42.3958 113.376C42.0224 112.96 41.8358 112.405 41.8358 111.712C41.8358 111.072 42.0011 110.507 42.3318 110.016C42.6624 109.525 43.1318 109.147 43.7398 108.88C44.3584 108.613 45.0731 108.48 45.8838 108.48C46.6624 108.48 47.3824 108.608 48.0438 108.864C48.7051 109.109 49.2758 109.477 49.7558 109.968L49.3398 110.752C48.8064 110.272 48.2624 109.92 47.7078 109.696C47.1531 109.472 46.5451 109.36 45.8838 109.36C44.9238 109.36 44.1718 109.568 43.6278 109.984C43.0944 110.4 42.8278 110.971 42.8278 111.696C42.8278 112.325 43.0624 112.795 43.5318 113.104C44.0011 113.413 44.6891 113.675 45.5958 113.888L46.0598 114C46.9131 114.203 47.5904 114.4 48.0918 114.592C48.5931 114.784 49.0198 115.072 49.3718 115.456C49.7238 115.84 49.8998 116.352 49.8998 116.992C49.8998 117.611 49.7344 118.16 49.4038 118.64C49.0731 119.109 48.5984 119.477 47.9798 119.744C47.3718 120 46.6624 120.128 45.8518 120.128ZM55.6683 120.112C54.9323 120.112 54.2816 119.941 53.7163 119.6C53.1616 119.259 52.7296 118.773 52.4203 118.144C52.1216 117.515 51.9723 116.784 51.9723 115.952C51.9723 115.12 52.1216 114.389 52.4203 113.76C52.7296 113.131 53.1616 112.645 53.7163 112.304C54.2816 111.963 54.9323 111.792 55.6683 111.792C56.3936 111.792 57.0336 111.963 57.5883 112.304C58.1429 112.645 58.5696 113.131 58.8683 113.76C59.1776 114.389 59.3323 115.12 59.3323 115.952C59.3323 116.784 59.1776 117.515 58.8683 118.144C58.5696 118.773 58.1429 119.259 57.5883 119.6C57.0336 119.941 56.3936 120.112 55.6683 120.112ZM55.6523 119.248C56.5056 119.248 57.1616 118.965 57.6203 118.4C58.0896 117.824 58.3243 117.008 58.3243 115.952C58.3243 114.907 58.0896 114.096 57.6203 113.52C57.1509 112.933 56.5003 112.64 55.6683 112.64C54.8256 112.64 54.1696 112.933 53.7003 113.52C53.2309 114.096 52.9963 114.907 52.9963 115.952C52.9963 117.019 53.2256 117.835 53.6843 118.4C54.1429 118.965 54.7989 119.248 55.6523 119.248ZM65.7126 111.792C66.4166 111.792 67.0406 111.963 67.5846 112.304C68.1286 112.645 68.5446 113.125 68.8326 113.744C69.1313 114.363 69.2806 115.088 69.2806 115.92C69.2806 116.752 69.1313 117.488 68.8326 118.128C68.534 118.757 68.1126 119.248 67.5686 119.6C67.0353 119.941 66.4166 120.112 65.7126 120.112C65.0513 120.112 64.4806 119.968 64.0006 119.68C63.5313 119.392 63.1793 118.976 62.9446 118.432V120H61.9686V108.224H62.9286V113.488C63.1633 112.933 63.5206 112.512 64.0006 112.224C64.4806 111.936 65.0513 111.792 65.7126 111.792ZM65.6006 119.248C66.4326 119.248 67.0833 118.955 67.5526 118.368C68.022 117.781 68.2566 116.965 68.2566 115.92C68.2566 114.885 68.022 114.08 67.5526 113.504C67.0833 112.928 66.4273 112.64 65.5846 112.64C64.742 112.64 64.0913 112.928 63.6326 113.504C63.174 114.08 62.9446 114.896 62.9446 115.952C62.9446 117.008 63.174 117.824 63.6326 118.4C64.0913 118.965 64.7473 119.248 65.6006 119.248ZM75.3778 111.792C75.6444 111.792 75.8791 111.813 76.0818 111.856L76.0338 112.736C75.8311 112.693 75.5858 112.672 75.2977 112.672C74.4871 112.672 73.8791 112.933 73.4738 113.456C73.0791 113.968 72.8818 114.581 72.8818 115.296V120H71.9218V114.208C71.9218 113.376 71.8791 112.635 71.7938 111.984H72.7218L72.8498 113.472C73.0524 112.928 73.3778 112.512 73.8258 112.224C74.2844 111.936 74.8018 111.792 75.3778 111.792ZM78.3556 115.872V115.92C78.3556 116.997 78.601 117.824 79.0916 118.4C79.593 118.965 80.3183 119.248 81.2676 119.248C82.2276 119.248 83.1076 118.917 83.9076 118.256L84.2916 119.024C83.9396 119.355 83.4916 119.621 82.9476 119.824C82.4036 120.016 81.8436 120.112 81.2676 120.112C80.0516 120.112 79.0916 119.744 78.3876 119.008C77.6836 118.272 77.3316 117.259 77.3316 115.968C77.3316 115.147 77.4863 114.421 77.7956 113.792C78.1156 113.152 78.5583 112.661 79.1236 112.32C79.689 111.968 80.3396 111.792 81.0756 111.792C82.1316 111.792 82.953 112.133 83.5396 112.816C84.137 113.499 84.4356 114.448 84.4356 115.664V115.872H78.3556ZM81.0756 112.592C80.3396 112.592 79.7423 112.816 79.2836 113.264C78.825 113.701 78.537 114.32 78.4196 115.12H83.5076C83.4436 114.299 83.2036 113.675 82.7876 113.248C82.3716 112.811 81.801 112.592 81.0756 112.592ZM95.6711 111.792C97.4418 111.792 98.3271 112.827 98.3271 114.896V120H97.3511V114.96C97.3511 114.149 97.2071 113.563 96.9191 113.2C96.6311 112.827 96.1725 112.64 95.5431 112.64C94.8071 112.64 94.2258 112.885 93.7991 113.376C93.3831 113.867 93.1751 114.533 93.1751 115.376V120H92.1991V114.96C92.1991 114.149 92.0498 113.563 91.7511 113.2C91.4631 112.827 91.0045 112.64 90.3751 112.64C89.6498 112.64 89.0685 112.885 88.6311 113.376C88.2045 113.867 87.9911 114.533 87.9911 115.376V120H87.0311V114.208C87.0311 113.376 86.9885 112.635 86.9031 111.984H87.8311L87.9591 113.424C88.1831 112.891 88.5138 112.485 88.9511 112.208C89.3991 111.931 89.9165 111.792 90.5031 111.792C91.7938 111.792 92.6205 112.315 92.9831 113.36C93.2071 112.869 93.5538 112.485 94.0231 112.208C94.5031 111.931 95.0525 111.792 95.6711 111.792ZM101.949 115.872V115.92C101.949 116.997 102.195 117.824 102.685 118.4C103.187 118.965 103.912 119.248 104.861 119.248C105.821 119.248 106.701 118.917 107.501 118.256L107.885 119.024C107.533 119.355 107.085 119.621 106.541 119.824C105.997 120.016 105.437 120.112 104.861 120.112C103.645 120.112 102.685 119.744 101.981 119.008C101.277 118.272 100.925 117.259 100.925 115.968C100.925 115.147 101.08 114.421 101.389 113.792C101.709 113.152 102.152 112.661 102.717 112.32C103.283 111.968 103.933 111.792 104.669 111.792C105.725 111.792 106.547 112.133 107.133 112.816C107.731 113.499 108.029 114.448 108.029 115.664V115.872H101.949ZM104.669 112.592C103.933 112.592 103.336 112.816 102.877 113.264C102.419 113.701 102.131 114.32 102.013 115.12H107.101C107.037 114.299 106.797 113.675 106.381 113.248C105.965 112.811 105.395 112.592 104.669 112.592ZM113.233 120.112C111.932 120.112 110.902 119.755 110.145 119.04L110.497 118.288C110.924 118.64 111.35 118.891 111.777 119.04C112.214 119.189 112.716 119.264 113.281 119.264C113.942 119.264 114.444 119.152 114.785 118.928C115.137 118.693 115.313 118.357 115.313 117.92C115.313 117.557 115.196 117.275 114.961 117.072C114.737 116.859 114.364 116.688 113.841 116.56L112.481 116.256C111.841 116.107 111.334 115.84 110.961 115.456C110.598 115.072 110.417 114.624 110.417 114.112C110.417 113.408 110.684 112.848 111.217 112.432C111.761 112.005 112.481 111.792 113.377 111.792C113.942 111.792 114.465 111.883 114.945 112.064C115.436 112.245 115.841 112.507 116.161 112.848L115.793 113.6C115.057 112.96 114.252 112.64 113.377 112.64C112.758 112.64 112.278 112.763 111.937 113.008C111.596 113.253 111.425 113.595 111.425 114.032C111.425 114.395 111.532 114.688 111.745 114.912C111.969 115.136 112.31 115.301 112.769 115.408L114.145 115.744C115.585 116.064 116.305 116.773 116.305 117.872C116.305 118.544 116.028 119.088 115.473 119.504C114.918 119.909 114.172 120.112 113.233 120.112ZM125.831 111.984V120H124.855V118.464C124.62 118.997 124.263 119.408 123.783 119.696C123.314 119.973 122.748 120.112 122.087 120.112C121.372 120.112 120.743 119.947 120.199 119.616C119.666 119.275 119.25 118.795 118.951 118.176C118.663 117.547 118.519 116.816 118.519 115.984C118.519 115.152 118.668 114.421 118.967 113.792C119.266 113.152 119.682 112.661 120.215 112.32C120.759 111.968 121.383 111.792 122.087 111.792C122.738 111.792 123.298 111.931 123.767 112.208C124.247 112.485 124.61 112.891 124.855 113.424V111.984H125.831ZM122.231 119.248C123.063 119.248 123.708 118.96 124.167 118.384C124.626 117.808 124.855 116.997 124.855 115.952C124.855 114.896 124.626 114.08 124.167 113.504C123.708 112.928 123.058 112.64 122.215 112.64C121.372 112.64 120.716 112.939 120.247 113.536C119.778 114.123 119.543 114.939 119.543 115.984C119.543 117.019 119.778 117.824 120.247 118.4C120.716 118.965 121.378 119.248 122.231 119.248Z" fill="#313030"/>
<path d="M84 82.4375C72.7127 82.4375 63.5625 73.2873 63.5625 62C63.5625 50.7127 72.7127 41.5625 84 41.5625C95.2873 41.5625 104.438 50.7127 104.438 62C104.444 73.2811 95.3036 82.4313 84.0225 82.4375C84.015 82.4375 84.0075 82.4375 84 82.4375ZM84 55.6681C80.503 55.6681 77.6681 58.503 77.6681 62C77.6681 65.497 80.503 68.3319 84 68.3319C87.497 68.3319 90.3319 65.497 90.3319 62C90.3282 58.5045 87.4955 55.6718 84 55.6681Z" fill="#FB9C05"/>
<path d="M84 86C70.7353 86 60 75.2656 60 62C60 48.7344 70.7344 38 84 38C97.2656 38 108 48.7344 108 62C108 75.2656 97.2656 86 84 86ZM84 39.5C71.5641 39.5 61.5 49.5631 61.5 62C61.5 74.4369 71.5631 84.5 84 84.5C96.4369 84.5 106.5 74.4369 106.5 62C106.5 49.5631 96.4369 39.5 84 39.5ZM84 69.0819C80.0887 69.0819 76.9181 65.9113 76.9181 62C76.9181 58.0887 80.0887 54.9181 84 54.9181C87.9113 54.9181 91.0819 58.0887 91.0819 62C91.0778 65.9095 87.9095 69.0778 84 69.0819ZM84 56.4191C80.9172 56.4191 78.4181 58.9182 78.4181 62.0009C78.4181 65.0837 80.9172 67.5828 84 67.5828C87.0828 67.5828 89.5819 65.0837 89.5819 62.0009C89.5819 62.0007 89.5819 62.0003 89.5819 62C89.5788 58.9185 87.0815 56.4212 84 56.4181V56.4191Z" fill="#313030"/>
<path d="M88.5694 50.5016V48.8984C88.5694 48.4842 88.2336 48.1484 87.8194 48.1484C87.4052 48.1484 87.0694 48.4842 87.0694 48.8984V50.5016C87.0694 50.9158 87.4052 51.2516 87.8194 51.2516C88.2336 51.2516 88.5694 50.9158 88.5694 50.5016Z" fill="#313030"/>
<path d="M95.4944 49.1969V47.5938C95.4944 47.1795 95.1586 46.8438 94.7444 46.8438C94.3302 46.8438 93.9944 47.1795 93.9944 47.5937V49.1969C93.9944 49.6111 94.3302 49.9469 94.7444 49.9469C95.1586 49.9469 95.4944 49.6111 95.4944 49.1969Z" fill="#313030"/>
<path d="M96.4894 60.1654V58.5623C96.4894 58.148 96.1536 57.8123 95.7394 57.8123C95.3252 57.8123 94.9894 58.148 94.9894 58.5623V60.1654C94.9894 60.5796 95.3252 60.9154 95.7394 60.9154C96.1536 60.9154 96.4894 60.5796 96.4894 60.1654Z" fill="#313030"/>
<path d="M90.5018 78.7574V77.1543C90.5018 76.7401 90.166 76.4043 89.7518 76.4043C89.3376 76.4043 89.0018 76.7401 89.0018 77.1543V78.7574C89.0018 79.1716 89.3376 79.5074 89.7518 79.5074C90.166 79.5074 90.5018 79.1716 90.5018 78.7574Z" fill="#313030"/>
<path d="M83.9494 73.9747V72.3716C83.9494 71.9574 83.6136 71.6216 83.1994 71.6216C82.7852 71.6216 82.4494 71.9574 82.4494 72.3716V73.9747C82.4494 74.3889 82.7852 74.7247 83.1994 74.7247C83.6136 74.7247 83.9494 74.3889 83.9494 73.9747Z" fill="#313030"/>
<path d="M77.7522 77.4061V75.803C77.7522 75.3888 77.4164 75.053 77.0022 75.053C76.588 75.053 76.2522 75.3888 76.2522 75.803V77.4061C76.2522 77.8203 76.588 78.1561 77.0022 78.1561C77.4164 78.1561 77.7522 77.8203 77.7522 77.4061Z" fill="#313030"/>
<path d="M101.547 67.6466V66.0435C101.547 65.6292 101.211 65.2935 100.797 65.2935C100.382 65.2935 100.047 65.6292 100.047 66.0435V67.6466C100.047 68.0608 100.382 68.3966 100.797 68.3966C101.211 68.3966 101.547 68.0608 101.547 67.6466Z" fill="#313030"/>
<path d="M93.7181 70.355V68.7518C93.7181 68.3376 93.3823 68.0018 92.9681 68.0018C92.5539 68.0018 92.2181 68.3376 92.2181 68.7518V70.355C92.2181 70.7692 92.5539 71.105 92.9681 71.105C93.3823 71.105 93.7181 70.7692 93.7181 70.355Z" fill="#313030"/>
<path d="M74.9709 56.763V55.1599C74.9709 54.7457 74.6352 54.4099 74.2209 54.4099C73.8067 54.4099 73.4709 54.7457 73.4709 55.1599V56.763C73.4709 57.1773 73.8067 57.513 74.2209 57.513C74.6352 57.513 74.9709 57.1773 74.9709 56.763Z" fill="#313030"/>
<path d="M78.3197 46.5012V44.899C78.3197 44.4848 77.9839 44.149 77.5697 44.149C77.1554 44.149 76.8197 44.4848 76.8197 44.899V46.5012C76.8197 46.9154 77.1554 47.2512 77.5697 47.2512C77.9839 47.2512 78.3197 46.9154 78.3197 46.5012Z" fill="#313030"/>
<path d="M67.5625 62.5006V60.8975C67.5625 60.4832 67.2267 60.1475 66.8125 60.1475C66.3983 60.1475 66.0625 60.4832 66.0625 60.8975V62.5006C66.0625 62.9148 66.3983 63.2506 66.8125 63.2506C67.2267 63.2506 67.5625 62.9148 67.5625 62.5006Z" fill="#313030"/>
<path d="M74.5434 69.6107V68.0076C74.5434 67.5934 74.2077 67.2576 73.7934 67.2576C73.3792 67.2576 73.0434 67.5934 73.0434 68.0076V69.6107C73.0434 70.0249 73.3792 70.3607 73.7934 70.3607C74.2077 70.3607 74.5434 70.0249 74.5434 69.6107Z" fill="#313030"/>
</g>
<defs>
<filter id="filter0_d" x="0" y="0" width="168" height="168" filterUnits="userSpaceOnUse" color-interpolation-filters="sRGB">
<feFlood flood-opacity="0" result="BackgroundImageFix"/>
<feColorMatrix in="SourceAlpha" type="matrix" values="0 0 0 0 0 0 0 0 0 0 0 0 0 0 0 0 0 0 127 0"/>
<feOffset dy="2"/>
<feGaussianBlur stdDeviation="8"/>
<feColorMatrix type="matrix" values="0 0 0 0 0.235764 0 0 0 0 0.244708 0 0 0 0 0.291667 0 0 0 0.08 0"/>
<feBlend mode="multiply" in2="BackgroundImageFix" result="effect1_dropShadow"/>
<feBlend mode="normal" in="SourceGraphic" in2="effect1_dropShadow" result="shape"/>
</filter>
</defs>
</svg>
