<svg width="168" height="168" viewBox="0 0 168 168" fill="none" xmlns="http://www.w3.org/2000/svg">
<g filter="url(#filter0_d)">
<rect x="16" y="14" width="136" height="136" rx="6" fill="white"/>
<path d="M57.9221 120.128C57.0261 120.128 56.2314 120.011 55.5381 119.776C54.8554 119.531 54.2474 119.152 53.7141 118.64L54.1301 117.856C54.6954 118.357 55.2661 118.715 55.8421 118.928C56.4287 119.141 57.1221 119.248 57.9221 119.248C58.8821 119.248 59.6287 119.051 60.1621 118.656C60.6954 118.261 60.9621 117.707 60.9621 116.992C60.9621 116.576 60.8287 116.24 60.5621 115.984C60.3061 115.717 59.9754 115.509 59.5701 115.36C59.1754 115.211 58.6474 115.061 57.9861 114.912C57.1114 114.72 56.3967 114.523 55.8421 114.32C55.2981 114.107 54.8394 113.792 54.4661 113.376C54.0927 112.96 53.9061 112.405 53.9061 111.712C53.9061 111.072 54.0714 110.507 54.4021 110.016C54.7327 109.525 55.2021 109.147 55.8101 108.88C56.4287 108.613 57.1434 108.48 57.9541 108.48C58.7327 108.48 59.4527 108.608 60.1141 108.864C60.7754 109.109 61.3461 109.477 61.8261 109.968L61.4101 110.752C60.8767 110.272 60.3327 109.92 59.7781 109.696C59.2234 109.472 58.6154 109.36 57.9541 109.36C56.9941 109.36 56.2421 109.568 55.6981 109.984C55.1647 110.4 54.8981 110.971 54.8981 111.696C54.8981 112.325 55.1327 112.795 55.6021 113.104C56.0714 113.413 56.7594 113.675 57.6661 113.888L58.1301 114C58.9834 114.203 59.6607 114.4 60.1621 114.592C60.6634 114.784 61.0901 115.072 61.4421 115.456C61.7941 115.84 61.9701 116.352 61.9701 116.992C61.9701 117.611 61.8047 118.16 61.4741 118.64C61.1434 119.109 60.6687 119.477 60.0501 119.744C59.4421 120 58.7327 120.128 57.9221 120.128ZM71.3546 111.984V120H70.3786V118.464C70.1439 118.997 69.7866 119.408 69.3066 119.696C68.8372 119.973 68.2719 120.112 67.6106 120.112C66.8959 120.112 66.2666 119.947 65.7226 119.616C65.1892 119.275 64.7732 118.795 64.4746 118.176C64.1866 117.547 64.0426 116.816 64.0426 115.984C64.0426 115.152 64.1919 114.421 64.4906 113.792C64.7892 113.152 65.2052 112.661 65.7386 112.32C66.2826 111.968 66.9066 111.792 67.6106 111.792C68.2612 111.792 68.8212 111.931 69.2906 112.208C69.7706 112.485 70.1332 112.891 70.3786 113.424V111.984H71.3546ZM67.7546 119.248C68.5866 119.248 69.2319 118.96 69.6906 118.384C70.1492 117.808 70.3786 116.997 70.3786 115.952C70.3786 114.896 70.1492 114.08 69.6906 113.504C69.2319 112.928 68.5812 112.64 67.7386 112.64C66.8959 112.64 66.2399 112.939 65.7706 113.536C65.3012 114.123 65.0666 114.939 65.0666 115.984C65.0666 117.019 65.3012 117.824 65.7706 118.4C66.2399 118.965 66.9012 119.248 67.7546 119.248ZM74.5077 108.224H75.4677V120H74.5077V108.224ZM85.4483 111.984V120H84.4723V118.464C84.2376 118.997 83.8803 119.408 83.4003 119.696C82.931 119.973 82.3656 120.112 81.7043 120.112C80.9896 120.112 80.3603 119.947 79.8163 119.616C79.283 119.275 78.867 118.795 78.5683 118.176C78.2803 117.547 78.1363 116.816 78.1363 115.984C78.1363 115.152 78.2856 114.421 78.5843 113.792C78.883 113.152 79.299 112.661 79.8323 112.32C80.3763 111.968 81.0003 111.792 81.7043 111.792C82.355 111.792 82.915 111.931 83.3843 112.208C83.8643 112.485 84.227 112.891 84.4723 113.424V111.984H85.4483ZM81.8483 119.248C82.6803 119.248 83.3256 118.96 83.7843 118.384C84.243 117.808 84.4723 116.997 84.4723 115.952C84.4723 114.896 84.243 114.08 83.7843 113.504C83.3256 112.928 82.675 112.64 81.8323 112.64C80.9896 112.64 80.3336 112.939 79.8643 113.536C79.395 114.123 79.1603 114.939 79.1603 115.984C79.1603 117.019 79.395 117.824 79.8643 118.4C80.3336 118.965 80.995 119.248 81.8483 119.248ZM95.4014 108.224V120H94.4254V118.464C94.1908 118.997 93.8334 119.408 93.3534 119.696C92.8841 119.973 92.3188 120.112 91.6574 120.112C90.9534 120.112 90.3294 119.941 89.7854 119.6C89.2521 119.248 88.8361 118.757 88.5374 118.128C88.2388 117.488 88.0894 116.752 88.0894 115.92C88.0894 115.088 88.2334 114.363 88.5214 113.744C88.8201 113.115 89.2361 112.635 89.7694 112.304C90.3134 111.963 90.9428 111.792 91.6574 111.792C92.3081 111.792 92.8681 111.931 93.3374 112.208C93.8174 112.485 94.1801 112.891 94.4254 113.424V108.224H95.4014ZM91.7854 119.248C92.6281 119.248 93.2788 118.96 93.7374 118.384C94.1961 117.808 94.4254 116.997 94.4254 115.952C94.4254 114.907 94.1961 114.096 93.7374 113.52C93.2788 112.933 92.6334 112.64 91.8014 112.64C90.9481 112.64 90.2868 112.928 89.8174 113.504C89.3481 114.08 89.1134 114.885 89.1134 115.92C89.1134 116.965 89.3481 117.781 89.8174 118.368C90.2868 118.955 90.9428 119.248 91.7854 119.248ZM105.355 111.984V120H104.379V118.464C104.144 118.997 103.787 119.408 103.307 119.696C102.837 119.973 102.272 120.112 101.611 120.112C100.896 120.112 100.267 119.947 99.7226 119.616C99.1892 119.275 98.7732 118.795 98.4746 118.176C98.1866 117.547 98.0426 116.816 98.0426 115.984C98.0426 115.152 98.1919 114.421 98.4906 113.792C98.7892 113.152 99.2052 112.661 99.7386 112.32C100.283 111.968 100.907 111.792 101.611 111.792C102.261 111.792 102.821 111.931 103.291 112.208C103.771 112.485 104.133 112.891 104.379 113.424V111.984H105.355ZM101.755 119.248C102.587 119.248 103.232 118.96 103.691 118.384C104.149 117.808 104.379 116.997 104.379 115.952C104.379 114.896 104.149 114.08 103.691 113.504C103.232 112.928 102.581 112.64 101.739 112.64C100.896 112.64 100.24 112.939 99.7706 113.536C99.3012 114.123 99.0666 114.939 99.0666 115.984C99.0666 117.019 99.3012 117.824 99.7706 118.4C100.24 118.965 100.901 119.248 101.755 119.248ZM111.116 120.112C109.814 120.112 108.785 119.755 108.028 119.04L108.38 118.288C108.806 118.64 109.233 118.891 109.66 119.04C110.097 119.189 110.598 119.264 111.164 119.264C111.825 119.264 112.326 119.152 112.668 118.928C113.02 118.693 113.196 118.357 113.196 117.92C113.196 117.557 113.078 117.275 112.844 117.072C112.62 116.859 112.246 116.688 111.724 116.56L110.364 116.256C109.724 116.107 109.217 115.84 108.844 115.456C108.481 115.072 108.3 114.624 108.3 114.112C108.3 113.408 108.566 112.848 109.1 112.432C109.644 112.005 110.364 111.792 111.26 111.792C111.825 111.792 112.348 111.883 112.828 112.064C113.318 112.245 113.724 112.507 114.044 112.848L113.676 113.6C112.94 112.96 112.134 112.64 111.26 112.64C110.641 112.64 110.161 112.763 109.82 113.008C109.478 113.253 109.308 113.595 109.308 114.032C109.308 114.395 109.414 114.688 109.628 114.912C109.852 115.136 110.193 115.301 110.652 115.408L112.028 115.744C113.468 116.064 114.188 116.773 114.188 117.872C114.188 118.544 113.91 119.088 113.356 119.504C112.801 119.909 112.054 120.112 111.116 120.112Z" fill="#313030"/>
<path d="M84 49.8959C82.9059 48.0012 81.8906 45.6697 81.8906 43.6719C81.8906 42.5069 82.8351 41.5625 84 41.5625C85.1649 41.5625 86.1094 42.5069 86.1094 43.6719C86.1094 45.6594 85.0847 48.0012 84 49.8959Z" fill="#FB9C05"/>
<path d="M72.7922 62.99C71.6273 62.99 70.6829 62.0456 70.6829 60.8806C70.6829 59.7157 71.6273 58.7712 72.7922 58.7712C74.7797 58.7712 77.1216 59.7969 79.0163 60.8844C77.1216 61.9737 74.791 62.99 72.7922 62.99Z" fill="#FB9C05"/>
<path d="M95.2078 62.99C93.2081 62.99 90.8747 61.9719 88.9781 60.8806C90.8738 59.7894 93.2081 58.7712 95.2078 58.7712C96.3728 58.7712 97.3172 59.7157 97.3172 60.8806C97.3172 62.0456 96.3728 62.99 95.2078 62.99Z" fill="#FB9C05"/>
<path d="M72.7922 76.9127C71.6273 76.9127 70.6829 75.9683 70.6829 74.8033C70.6829 73.6384 71.6273 72.694 72.7922 72.694C74.7797 72.694 77.1216 73.7196 79.0163 74.8071C77.1216 75.8965 74.791 76.9127 72.7922 76.9127Z" fill="#FB9C05"/>
<path d="M95.2078 76.9127C93.2081 76.9127 90.8747 75.8946 88.9781 74.8033C90.8738 73.7121 93.2081 72.694 95.2078 72.694C96.3728 72.694 97.3172 73.6384 97.3172 74.8033C97.3172 75.9683 96.3728 76.9127 95.2078 76.9127Z" fill="#FB9C05"/>
<path d="M95.2079 69.1316C92.88 69.1316 90.2007 69.9931 87.2447 71.6928C86.2435 72.2684 85.3885 72.8403 84.75 73.295V62.3891C85.3885 62.8438 86.2444 63.4203 87.2447 63.9912C90.1997 65.6909 92.8791 66.5525 95.2079 66.5525C98.3403 66.5525 100.88 64.0131 100.88 60.8806C100.88 57.7482 98.3403 55.2087 95.2079 55.2087C92.88 55.2087 90.2007 56.0703 87.2447 57.77C86.2444 58.3438 85.3885 58.9166 84.75 59.375V55.1441C85.619 54.0315 86.4082 52.8589 87.1116 51.635C88.8113 48.6791 89.6729 46.0006 89.6729 43.6719C89.6729 40.5394 87.1335 38 84.001 38C80.8685 38 78.3291 40.5394 78.3291 43.6719C78.3291 45.9997 79.1907 48.6791 80.8904 51.635C81.5932 52.8589 82.3817 54.0315 83.25 55.1441V59.375C82.6116 58.9203 81.7557 58.3438 80.7554 57.7728C77.8004 56.0731 75.121 55.2116 72.7922 55.2116C69.6598 55.2116 67.1204 57.751 67.1204 60.8834C67.1204 64.0159 69.6598 66.5553 72.7922 66.5553C75.12 66.5553 77.7994 65.6937 80.7554 63.9941C81.7566 63.4184 82.6116 62.8466 83.25 62.3919V73.295C82.6116 72.8403 81.7557 72.2638 80.7554 71.6928C77.8004 69.9931 75.121 69.1316 72.7922 69.1316C69.6598 69.1316 67.1204 71.671 67.1204 74.8034C67.1204 77.9359 69.6598 80.4753 72.7922 80.4753C75.12 80.4753 77.7994 79.6138 80.7554 77.9141C81.7566 77.3384 82.6116 76.7666 83.25 76.3119V86H84.75V76.3119C85.3885 76.7666 86.2444 77.3431 87.2447 77.9141C90.1997 79.6138 92.8791 80.4753 95.2079 80.4753C98.3403 80.4753 100.88 77.9359 100.88 74.8034C100.88 71.671 98.3403 69.1316 95.2079 69.1316ZM95.2079 56.7078C97.512 56.7065 99.3809 58.5732 99.3822 60.8773C99.3835 63.1813 97.5168 65.0502 95.2127 65.0516C95.2111 65.0516 95.2095 65.0516 95.2079 65.0516C91.3107 65.0516 86.9447 62.1453 85.2291 60.8797C86.9447 59.615 91.3125 56.7078 95.2079 56.7078ZM79.8282 43.6719C79.8282 41.3678 81.696 39.5 84 39.5C86.3041 39.5 88.1719 41.3678 88.1719 43.6719C88.1719 47.5691 85.2657 51.9359 83.9991 53.6516C82.7344 51.9378 79.8282 47.5756 79.8282 43.6719ZM72.7969 65.0516C70.4928 65.0516 68.625 63.1838 68.625 60.8797C68.625 58.5756 70.4928 56.7078 72.7969 56.7078C76.6941 56.7078 81.061 59.6141 82.7766 60.8806C81.0582 62.1462 76.696 65.0525 72.7922 65.0525L72.7969 65.0516ZM72.7969 78.9753C70.4928 78.9753 68.625 77.1075 68.625 74.8034C68.625 72.4993 70.4928 70.6316 72.7969 70.6316C76.6941 70.6316 81.061 73.5378 82.7766 74.8044C81.0582 76.0691 76.696 78.9753 72.7922 78.9753H72.7969ZM95.2126 78.9753C91.3154 78.9753 86.9494 76.0691 85.2338 74.8034C86.9494 73.5378 91.3163 70.6316 95.2126 70.6316C97.5166 70.6316 99.3844 72.4993 99.3844 74.8034C99.3844 77.1075 97.5166 78.9753 95.2126 78.9753Z" fill="#313030"/>
</g>
<defs>
<filter id="filter0_d" x="0" y="0" width="168" height="168" filterUnits="userSpaceOnUse" color-interpolation-filters="sRGB">
<feFlood flood-opacity="0" result="BackgroundImageFix"/>
<feColorMatrix in="SourceAlpha" type="matrix" values="0 0 0 0 0 0 0 0 0 0 0 0 0 0 0 0 0 0 127 0"/>
<feOffset dy="2"/>
<feGaussianBlur stdDeviation="8"/>
<feColorMatrix type="matrix" values="0 0 0 0 0.235764 0 0 0 0 0.244708 0 0 0 0 0.291667 0 0 0 0.08 0"/>
<feBlend mode="multiply" in2="BackgroundImageFix" result="effect1_dropShadow"/>
<feBlend mode="normal" in="SourceGraphic" in2="effect1_dropShadow" result="shape"/>
</filter>
</defs>
</svg>
