<svg width="168" height="168" viewBox="0 0 168 168" fill="none" xmlns="http://www.w3.org/2000/svg">
<g filter="url(#filter0_d)">
<rect x="16" y="14" width="136" height="136" rx="6" fill="white"/>
<path d="M53.1486 120.128C52.2526 120.128 51.458 120.011 50.7646 119.776C50.082 119.531 49.474 119.152 48.9406 118.64L49.3566 117.856C49.922 118.357 50.4926 118.715 51.0686 118.928C51.6553 119.141 52.3486 119.248 53.1486 119.248C54.1086 119.248 54.8553 119.051 55.3886 118.656C55.922 118.261 56.1886 117.707 56.1886 116.992C56.1886 116.576 56.0553 116.24 55.7886 115.984C55.5326 115.717 55.202 115.509 54.7966 115.36C54.402 115.211 53.874 115.061 53.2126 114.912C52.338 114.72 51.6233 114.523 51.0686 114.32C50.5246 114.107 50.066 113.792 49.6926 113.376C49.3193 112.96 49.1326 112.405 49.1326 111.712C49.1326 111.072 49.298 110.507 49.6286 110.016C49.9593 109.525 50.4286 109.147 51.0366 108.88C51.6553 108.613 52.37 108.48 53.1806 108.48C53.9593 108.48 54.6793 108.608 55.3406 108.864C56.002 109.109 56.5726 109.477 57.0526 109.968L56.6366 110.752C56.1033 110.272 55.5593 109.92 55.0046 109.696C54.45 109.472 53.842 109.36 53.1806 109.36C52.2206 109.36 51.4686 109.568 50.9246 109.984C50.3913 110.4 50.1246 110.971 50.1246 111.696C50.1246 112.325 50.3593 112.795 50.8286 113.104C51.298 113.413 51.986 113.675 52.8926 113.888L53.3566 114C54.21 114.203 54.8873 114.4 55.3886 114.592C55.89 114.784 56.3166 115.072 56.6686 115.456C57.0206 115.84 57.1966 116.352 57.1966 116.992C57.1966 117.611 57.0313 118.16 56.7006 118.64C56.37 119.109 55.8953 119.477 55.2766 119.744C54.6686 120 53.9593 120.128 53.1486 120.128ZM66.5811 111.984V120H65.6051V118.464C65.3705 118.997 65.0131 119.408 64.5331 119.696C64.0638 119.973 63.4985 120.112 62.8371 120.112C62.1225 120.112 61.4931 119.947 60.9491 119.616C60.4158 119.275 59.9998 118.795 59.7011 118.176C59.4131 117.547 59.2691 116.816 59.2691 115.984C59.2691 115.152 59.4185 114.421 59.7171 113.792C60.0158 113.152 60.4318 112.661 60.9651 112.32C61.5091 111.968 62.1331 111.792 62.8371 111.792C63.4878 111.792 64.0478 111.931 64.5171 112.208C64.9971 112.485 65.3598 112.891 65.6051 113.424V111.984H66.5811ZM62.9811 119.248C63.8131 119.248 64.4585 118.96 64.9171 118.384C65.3758 117.808 65.6051 116.997 65.6051 115.952C65.6051 114.896 65.3758 114.08 64.9171 113.504C64.4585 112.928 63.8078 112.64 62.9651 112.64C62.1225 112.64 61.4665 112.939 60.9971 113.536C60.5278 114.123 60.2931 114.939 60.2931 115.984C60.2931 117.019 60.5278 117.824 60.9971 118.4C61.4665 118.965 62.1278 119.248 62.9811 119.248ZM69.7343 108.224H70.6943V120H69.7343V108.224ZM80.7389 111.984V120.032C80.7389 121.195 80.4509 122.075 79.8749 122.672C79.2989 123.269 78.4509 123.568 77.3309 123.568C76.1362 123.568 75.0962 123.28 74.2109 122.704L74.4029 121.856C74.9255 122.165 75.4055 122.384 75.8429 122.512C76.2802 122.64 76.7815 122.704 77.3469 122.704C78.1469 122.704 78.7495 122.485 79.1549 122.048C79.5709 121.611 79.7789 120.971 79.7789 120.128V118.064C79.5335 118.608 79.1709 119.029 78.6909 119.328C78.2109 119.616 77.6349 119.76 76.9629 119.76C76.2589 119.76 75.6349 119.595 75.0909 119.264C74.5469 118.923 74.1202 118.453 73.8109 117.856C73.5122 117.248 73.3629 116.555 73.3629 115.776C73.3629 114.987 73.5122 114.293 73.8109 113.696C74.1202 113.088 74.5469 112.619 75.0909 112.288C75.6349 111.957 76.2589 111.792 76.9629 111.792C77.6349 111.792 78.2055 111.931 78.6749 112.208C79.1549 112.485 79.5175 112.891 79.7629 113.424V111.984H80.7389ZM77.0909 118.88C77.9229 118.88 78.5735 118.603 79.0429 118.048C79.5229 117.493 79.7629 116.736 79.7629 115.776C79.7629 114.805 79.5229 114.043 79.0429 113.488C78.5735 112.923 77.9229 112.64 77.0909 112.64C76.2482 112.64 75.5869 112.923 75.1069 113.488C74.6269 114.043 74.3869 114.805 74.3869 115.776C74.3869 116.747 74.6269 117.509 75.1069 118.064C75.5869 118.608 76.2482 118.88 77.0909 118.88ZM90.6905 111.984V120H89.7145V118.464C89.4798 118.997 89.1225 119.408 88.6425 119.696C88.1732 119.973 87.6078 120.112 86.9465 120.112C86.2318 120.112 85.6025 119.947 85.0585 119.616C84.5252 119.275 84.1092 118.795 83.8105 118.176C83.5225 117.547 83.3785 116.816 83.3785 115.984C83.3785 115.152 83.5278 114.421 83.8265 113.792C84.1252 113.152 84.5412 112.661 85.0745 112.32C85.6185 111.968 86.2425 111.792 86.9465 111.792C87.5972 111.792 88.1572 111.931 88.6265 112.208C89.1065 112.485 89.4692 112.891 89.7145 113.424V111.984H90.6905ZM87.0905 119.248C87.9225 119.248 88.5678 118.96 89.0265 118.384C89.4852 117.808 89.7145 116.997 89.7145 115.952C89.7145 114.896 89.4852 114.08 89.0265 113.504C88.5678 112.928 87.9172 112.64 87.0745 112.64C86.2318 112.64 85.5758 112.939 85.1065 113.536C84.6372 114.123 84.4025 114.939 84.4025 115.984C84.4025 117.019 84.6372 117.824 85.1065 118.4C85.5758 118.965 86.2372 119.248 87.0905 119.248ZM100.644 108.224V120H99.6676V118.464C99.433 118.997 99.0756 119.408 98.5956 119.696C98.1263 119.973 97.561 120.112 96.8996 120.112C96.1956 120.112 95.5716 119.941 95.0276 119.6C94.4943 119.248 94.0783 118.757 93.7796 118.128C93.481 117.488 93.3316 116.752 93.3316 115.92C93.3316 115.088 93.4756 114.363 93.7636 113.744C94.0623 113.115 94.4783 112.635 95.0116 112.304C95.5556 111.963 96.185 111.792 96.8996 111.792C97.5503 111.792 98.1103 111.931 98.5796 112.208C99.0596 112.485 99.4223 112.891 99.6676 113.424V108.224H100.644ZM97.0276 119.248C97.8703 119.248 98.521 118.96 98.9796 118.384C99.4383 117.808 99.6676 116.997 99.6676 115.952C99.6676 114.907 99.4383 114.096 98.9796 113.52C98.521 112.933 97.8756 112.64 97.0436 112.64C96.1903 112.64 95.529 112.928 95.0596 113.504C94.5903 114.08 94.3556 114.885 94.3556 115.92C94.3556 116.965 94.5903 117.781 95.0596 118.368C95.529 118.955 96.185 119.248 97.0276 119.248ZM106.981 120.112C106.245 120.112 105.594 119.941 105.029 119.6C104.474 119.259 104.042 118.773 103.733 118.144C103.434 117.515 103.285 116.784 103.285 115.952C103.285 115.12 103.434 114.389 103.733 113.76C104.042 113.131 104.474 112.645 105.029 112.304C105.594 111.963 106.245 111.792 106.981 111.792C107.706 111.792 108.346 111.963 108.901 112.304C109.455 112.645 109.882 113.131 110.181 113.76C110.49 114.389 110.645 115.12 110.645 115.952C110.645 116.784 110.49 117.515 110.181 118.144C109.882 118.773 109.455 119.259 108.901 119.6C108.346 119.941 107.706 120.112 106.981 120.112ZM106.965 119.248C107.818 119.248 108.474 118.965 108.933 118.4C109.402 117.824 109.637 117.008 109.637 115.952C109.637 114.907 109.402 114.096 108.933 113.52C108.463 112.933 107.813 112.64 106.981 112.64C106.138 112.64 105.482 112.933 105.013 113.52C104.543 114.096 104.309 114.907 104.309 115.952C104.309 117.019 104.538 117.835 104.997 118.4C105.455 118.965 106.111 119.248 106.965 119.248ZM115.889 120.112C114.588 120.112 113.558 119.755 112.801 119.04L113.153 118.288C113.58 118.64 114.006 118.891 114.433 119.04C114.87 119.189 115.372 119.264 115.937 119.264C116.598 119.264 117.1 119.152 117.441 118.928C117.793 118.693 117.969 118.357 117.969 117.92C117.969 117.557 117.852 117.275 117.617 117.072C117.393 116.859 117.02 116.688 116.497 116.56L115.137 116.256C114.497 116.107 113.99 115.84 113.617 115.456C113.254 115.072 113.073 114.624 113.073 114.112C113.073 113.408 113.34 112.848 113.873 112.432C114.417 112.005 115.137 111.792 116.033 111.792C116.598 111.792 117.121 111.883 117.601 112.064C118.092 112.245 118.497 112.507 118.817 112.848L118.449 113.6C117.713 112.96 116.908 112.64 116.033 112.64C115.414 112.64 114.934 112.763 114.593 113.008C114.252 113.253 114.081 113.595 114.081 114.032C114.081 114.395 114.188 114.688 114.401 114.912C114.625 115.136 114.966 115.301 115.425 115.408L116.801 115.744C118.241 116.064 118.961 116.773 118.961 117.872C118.961 118.544 118.684 119.088 118.129 119.504C117.574 119.909 116.828 120.112 115.889 120.112Z" fill="#313030"/>
<g clip-path="url(#clip0)">
<path d="M96.3717 49.9375C93.1517 49.9375 88.5417 56.3125 86.8737 65.6094C86.8649 82.7301 86.8737 67.4687 86.8737 67.4687C85.0688 72.4748 92.644 77.3515 94.2604 74.6406C96.6615 76.8202 100.833 77.103 102.6 71.305C102.6 64.5469 99.5916 49.9375 96.3717 49.9375Z" fill="#FB9C05"/>
<path d="M95.0543 56.3564C93.028 56.3564 91.5649 59.065 90.6942 61.3372C89.8033 63.6623 89.1568 66.5523 89.1568 68.209C89.1568 71.5599 91.8024 74.2861 95.0543 74.2861C98.3061 74.2861 100.952 71.56 100.952 68.209C100.952 66.5522 100.305 63.6623 99.4143 61.3372C97.837 57.2205 96.1728 56.3564 95.0543 56.3564ZM95.0543 72.2939C92.7878 72.2939 90.9439 70.4614 90.9439 68.209C90.9439 67.0206 91.4325 64.4824 92.3377 62.1197C93.0043 60.38 94.1157 58.3485 95.0543 58.3485C95.9929 58.3485 97.1043 60.38 97.7709 62.1197C98.6763 64.4824 99.1646 67.0204 99.1646 68.209C99.1646 70.4614 97.3208 72.2939 95.0543 72.2939Z" fill="#313030"/>
<path d="M93.7639 63.9235C93.9377 64.2001 94.2148 64.3482 94.4964 64.3482C94.6734 64.3482 94.8522 64.2898 95.0083 64.1678C95.4125 63.8523 95.5107 63.2311 95.2275 62.7806L94.7509 62.0221C94.468 61.5716 93.9109 61.4618 93.5065 61.7777C93.1023 62.0933 93.0041 62.7145 93.2873 63.165L93.7639 63.9235Z" fill="#313030"/>
<path d="M95.0515 67.6289C95.1698 67.0949 94.8776 66.5549 94.3985 66.4229L93.5921 66.2007C93.1131 66.0688 92.6287 66.3947 92.5102 66.9286C92.3919 67.4627 92.6842 68.0027 93.1632 68.1347L93.9696 68.3569C94.0415 68.3767 94.1137 68.3862 94.1848 68.3862C94.586 68.3862 94.9508 68.0828 95.0515 67.6289Z" fill="#313030"/>
<path d="M97.2935 64.0951C96.9101 63.7485 96.3474 63.8146 96.0367 64.2418L95.5136 64.9613C95.203 65.3886 95.2619 66.0158 95.6453 66.3623C95.8108 66.5118 96.0097 66.5845 96.2073 66.5845C96.4676 66.5845 96.7255 66.4585 96.9021 66.2155L97.4251 65.4961C97.7359 65.0687 97.677 64.4414 97.2935 64.0951Z" fill="#313030"/>
<path d="M96.2703 68.6005L95.4437 68.6932C94.9527 68.7482 94.5947 69.2366 94.6442 69.784C94.6905 70.2974 95.0788 70.6804 95.5321 70.6804C95.562 70.6804 95.5923 70.6787 95.6227 70.6753L96.4493 70.5826C96.9402 70.5276 97.2982 70.0391 97.2488 69.4918C97.1994 68.9444 96.7601 68.5436 96.2703 68.6005Z" fill="#313030"/>
<path d="M111.319 75.7031H102.948C104.525 73.8129 105.421 71.393 105.421 68.8566C105.421 67.4977 105.164 65.5624 104.697 63.4072C104.205 61.1356 103.529 58.8168 102.741 56.702C102.552 56.1939 102.029 55.9526 101.574 56.1639C101.118 56.3747 100.902 56.9576 101.091 57.4657C102.76 61.9497 103.634 66.5902 103.634 68.8568C103.634 71.5449 102.361 74.0845 100.217 75.7033H89.8918C87.7474 74.0845 86.4749 71.5449 86.4749 68.8568C86.4749 66.5318 87.422 61.6019 89.1772 57.0447C91.0467 52.1904 93.1889 49.4062 95.0543 49.4062C96.4187 49.4062 97.9862 50.9579 99.4681 53.7752C99.7178 54.2498 100.265 54.4089 100.691 54.1307C101.116 53.8524 101.259 53.2421 101.01 52.7675C99.1414 49.2153 97.1377 47.4141 95.0543 47.4141C93.178 47.4141 90.3505 48.9486 87.5349 56.2587C85.8852 60.5422 84.6878 65.8405 84.6878 68.8566C84.6878 71.393 85.5836 73.8129 87.1602 75.7031H79.8398C81.4163 73.8129 82.3122 71.393 82.3122 68.8566C82.3122 65.8403 81.1148 60.542 79.4651 56.2587C76.6495 48.9486 73.822 47.4141 71.9457 47.4141C69.9723 47.4141 68.0657 49.0362 66.2787 52.2354C64.9309 54.6488 63.6817 57.9325 62.7617 61.4818C62.6247 62.0103 62.898 62.5627 63.372 62.7153C63.846 62.8679 64.3416 62.5633 64.4785 62.0349C66.0551 55.9526 69.0643 49.4062 71.9457 49.4062C73.8111 49.4062 75.9534 52.1904 77.823 57.0447C79.578 61.6019 80.5252 66.5318 80.5252 68.8568C80.5252 71.5449 79.2528 74.0845 77.1083 75.7033H66.7834C64.6388 74.0844 63.3664 71.5448 63.3664 68.8566C63.3664 68.1302 63.4572 67.1654 63.6287 66.0661C63.7132 65.5241 63.3878 65.0083 62.9015 64.914C62.4144 64.8183 61.9525 65.1825 61.868 65.7245C61.6764 66.9518 61.5792 68.0057 61.5792 68.8566C61.5792 71.393 62.475 73.8129 64.0516 75.7031H55.6807C54.2026 75.7031 53 77.0437 53 78.6914C53 80.3391 54.2026 81.6797 55.6807 81.6797H56.2051L58.812 86.2062C59.6702 87.6964 61.1309 88.5859 62.7194 88.5859H72.0686C72.5622 88.5859 72.9621 88.1401 72.9621 87.5898C72.9621 87.0396 72.5622 86.5938 72.0686 86.5938H62.7194C61.7423 86.5938 60.8439 86.0466 60.3159 85.13L58.3289 81.6797H108.671L106.684 85.13C106.156 86.0466 105.258 86.5938 104.281 86.5938H75.8589C75.3653 86.5938 74.9654 87.0396 74.9654 87.5898C74.9654 88.1401 75.3653 88.5859 75.8589 88.5859H104.281C105.869 88.5859 107.33 87.6964 108.188 86.2062L110.795 81.6797H111.319C112.797 81.6797 114 80.3391 114 78.6914C114 77.0437 112.797 75.7031 111.319 75.7031ZM111.319 79.6875H55.6807C55.1879 79.6875 54.7871 79.2407 54.7871 78.6914C54.7871 78.1421 55.1879 77.6953 55.6807 77.6953H111.319C111.812 77.6953 112.213 78.1421 112.213 78.6914C112.213 79.2407 111.812 79.6875 111.319 79.6875Z" fill="#313030"/>
<path d="M73.4589 49.6719C70.2389 49.6719 65.6289 56.0469 63.9609 65.3437C63.9521 82.4645 63.9609 67.2031 63.9609 67.2031C62.1561 72.2091 69.7313 77.0858 71.3476 74.375C73.7488 76.5546 77.9198 76.8374 79.6875 71.0394C79.6875 64.2812 76.6788 49.6719 73.4589 49.6719Z" fill="#FB9C05"/>
</g>
</g>
<defs>
<filter id="filter0_d" x="0" y="0" width="168" height="168" filterUnits="userSpaceOnUse" color-interpolation-filters="sRGB">
<feFlood flood-opacity="0" result="BackgroundImageFix"/>
<feColorMatrix in="SourceAlpha" type="matrix" values="0 0 0 0 0 0 0 0 0 0 0 0 0 0 0 0 0 0 127 0"/>
<feOffset dy="2"/>
<feGaussianBlur stdDeviation="8"/>
<feColorMatrix type="matrix" values="0 0 0 0 0.235764 0 0 0 0 0.244708 0 0 0 0 0.291667 0 0 0 0.08 0"/>
<feBlend mode="multiply" in2="BackgroundImageFix" result="effect1_dropShadow"/>
<feBlend mode="normal" in="SourceGraphic" in2="effect1_dropShadow" result="shape"/>
</filter>
<clipPath id="clip0">
<rect width="61" height="68" fill="white" transform="translate(53 34)"/>
</clipPath>
</defs>
</svg>
