<svg width="168" height="168" viewBox="0 0 168 168" fill="none" xmlns="http://www.w3.org/2000/svg">
<g filter="url(#filter0_d)">
<rect x="16" y="14" width="136" height="136" rx="6" fill="white"/>
<path d="M47.7863 108.608L42.8583 120H41.9463L37.0183 108.608H38.0583L42.4103 118.72L46.7623 108.608H47.7863ZM49.34 115.872V115.92C49.34 116.997 49.5853 117.824 50.076 118.4C50.5773 118.965 51.3027 119.248 52.252 119.248C53.212 119.248 54.092 118.917 54.892 118.256L55.276 119.024C54.924 119.355 54.476 119.621 53.932 119.824C53.388 120.016 52.828 120.112 52.252 120.112C51.036 120.112 50.076 119.744 49.372 119.008C48.668 118.272 48.316 117.259 48.316 115.968C48.316 115.147 48.4707 114.421 48.78 113.792C49.1 113.152 49.5427 112.661 50.108 112.32C50.6733 111.968 51.324 111.792 52.06 111.792C53.116 111.792 53.9373 112.133 54.524 112.816C55.1213 113.499 55.42 114.448 55.42 115.664V115.872H49.34ZM52.06 112.592C51.324 112.592 50.7267 112.816 50.268 113.264C49.8093 113.701 49.5213 114.32 49.404 115.12H54.492C54.428 114.299 54.188 113.675 53.772 113.248C53.356 112.811 52.7853 112.592 52.06 112.592ZM64.8795 111.984V120.032C64.8795 121.195 64.5915 122.075 64.0155 122.672C63.4395 123.269 62.5915 123.568 61.4715 123.568C60.2768 123.568 59.2368 123.28 58.3515 122.704L58.5435 121.856C59.0662 122.165 59.5462 122.384 59.9835 122.512C60.4208 122.64 60.9222 122.704 61.4875 122.704C62.2875 122.704 62.8902 122.485 63.2955 122.048C63.7115 121.611 63.9195 120.971 63.9195 120.128V118.064C63.6742 118.608 63.3115 119.029 62.8315 119.328C62.3515 119.616 61.7755 119.76 61.1035 119.76C60.3995 119.76 59.7755 119.595 59.2315 119.264C58.6875 118.923 58.2608 118.453 57.9515 117.856C57.6528 117.248 57.5035 116.555 57.5035 115.776C57.5035 114.987 57.6528 114.293 57.9515 113.696C58.2608 113.088 58.6875 112.619 59.2315 112.288C59.7755 111.957 60.3995 111.792 61.1035 111.792C61.7755 111.792 62.3462 111.931 62.8155 112.208C63.2955 112.485 63.6582 112.891 63.9035 113.424V111.984H64.8795ZM61.2315 118.88C62.0635 118.88 62.7142 118.603 63.1835 118.048C63.6635 117.493 63.9035 116.736 63.9035 115.776C63.9035 114.805 63.6635 114.043 63.1835 113.488C62.7142 112.923 62.0635 112.64 61.2315 112.64C60.3888 112.64 59.7275 112.923 59.2475 113.488C58.7675 114.043 58.5275 114.805 58.5275 115.776C58.5275 116.747 58.7675 117.509 59.2475 118.064C59.7275 118.608 60.3888 118.88 61.2315 118.88ZM68.5431 115.872V115.92C68.5431 116.997 68.7885 117.824 69.2791 118.4C69.7805 118.965 70.5058 119.248 71.4551 119.248C72.4151 119.248 73.2951 118.917 74.0951 118.256L74.4791 119.024C74.1271 119.355 73.6791 119.621 73.1351 119.824C72.5911 120.016 72.0311 120.112 71.4551 120.112C70.2391 120.112 69.2791 119.744 68.5751 119.008C67.8711 118.272 67.5191 117.259 67.5191 115.968C67.5191 115.147 67.6738 114.421 67.9831 113.792C68.3031 113.152 68.7458 112.661 69.3111 112.32C69.8765 111.968 70.5271 111.792 71.2631 111.792C72.3191 111.792 73.1405 112.133 73.7271 112.816C74.3245 113.499 74.6231 114.448 74.6231 115.664V115.872H68.5431ZM71.2631 112.592C70.5271 112.592 69.9298 112.816 69.4711 113.264C69.0125 113.701 68.7245 114.32 68.6071 115.12H73.6951C73.6311 114.299 73.3911 113.675 72.9751 113.248C72.5591 112.811 71.9885 112.592 71.2631 112.592ZM78.563 112.768V117.536C78.563 118.176 78.6857 118.619 78.931 118.864C79.1763 119.109 79.539 119.232 80.019 119.232C80.3177 119.232 80.6057 119.184 80.883 119.088V119.968C80.5417 120.053 80.195 120.096 79.843 120.096C79.139 120.096 78.5843 119.899 78.179 119.504C77.7843 119.109 77.587 118.517 77.587 117.728V112.768H76.003V111.984H77.587V109.856L78.563 109.488V111.984H80.931V112.768H78.563ZM89.8936 111.984V120H88.9176V118.464C88.683 118.997 88.3256 119.408 87.8456 119.696C87.3763 119.973 86.811 120.112 86.1496 120.112C85.435 120.112 84.8056 119.947 84.2616 119.616C83.7283 119.275 83.3123 118.795 83.0136 118.176C82.7256 117.547 82.5816 116.816 82.5816 115.984C82.5816 115.152 82.731 114.421 83.0296 113.792C83.3283 113.152 83.7443 112.661 84.2776 112.32C84.8216 111.968 85.4456 111.792 86.1496 111.792C86.8003 111.792 87.3603 111.931 87.8296 112.208C88.3096 112.485 88.6723 112.891 88.9176 113.424V111.984H89.8936ZM86.2936 119.248C87.1256 119.248 87.771 118.96 88.2296 118.384C88.6883 117.808 88.9176 116.997 88.9176 115.952C88.9176 114.896 88.6883 114.08 88.2296 113.504C87.771 112.928 87.1203 112.64 86.2776 112.64C85.435 112.64 84.779 112.939 84.3096 113.536C83.8403 114.123 83.6056 114.939 83.6056 115.984C83.6056 117.019 83.8403 117.824 84.3096 118.4C84.779 118.965 85.4403 119.248 86.2936 119.248ZM96.5028 111.792C96.7694 111.792 97.0041 111.813 97.2068 111.856L97.1588 112.736C96.9561 112.693 96.7108 112.672 96.4227 112.672C95.6121 112.672 95.0041 112.933 94.5988 113.456C94.2041 113.968 94.0068 114.581 94.0068 115.296V120H93.0468V114.208C93.0468 113.376 93.0041 112.635 92.9188 111.984H93.8468L93.9748 113.472C94.1774 112.928 94.5028 112.512 94.9508 112.224C95.4094 111.936 95.9268 111.792 96.5028 111.792ZM99.1249 111.984H100.085V120H99.1249V111.984ZM100.277 108.672V109.92H98.9809V108.672H100.277ZM110.066 111.984V120H109.09V118.464C108.855 118.997 108.498 119.408 108.018 119.696C107.548 119.973 106.983 120.112 106.322 120.112C105.607 120.112 104.978 119.947 104.434 119.616C103.9 119.275 103.484 118.795 103.186 118.176C102.898 117.547 102.754 116.816 102.754 115.984C102.754 115.152 102.903 114.421 103.202 113.792C103.5 113.152 103.916 112.661 104.45 112.32C104.994 111.968 105.618 111.792 106.322 111.792C106.972 111.792 107.532 111.931 108.002 112.208C108.482 112.485 108.844 112.891 109.09 113.424V111.984H110.066ZM106.466 119.248C107.298 119.248 107.943 118.96 108.402 118.384C108.86 117.808 109.09 116.997 109.09 115.952C109.09 114.896 108.86 114.08 108.402 113.504C107.943 112.928 107.292 112.64 106.45 112.64C105.607 112.64 104.951 112.939 104.482 113.536C104.012 114.123 103.778 114.939 103.778 115.984C103.778 117.019 104.012 117.824 104.482 118.4C104.951 118.965 105.612 119.248 106.466 119.248ZM116.947 111.792C118.877 111.792 119.843 112.827 119.843 114.896V120H118.867V114.96C118.867 114.16 118.701 113.573 118.371 113.2C118.051 112.827 117.544 112.64 116.851 112.64C116.051 112.64 115.405 112.885 114.915 113.376C114.424 113.867 114.179 114.528 114.179 115.36V120H113.219V114.208C113.219 113.376 113.176 112.635 113.091 111.984H114.019L114.147 113.456C114.392 112.912 114.76 112.501 115.251 112.224C115.741 111.936 116.307 111.792 116.947 111.792ZM129.769 111.984V120H128.793V118.464C128.558 118.997 128.201 119.408 127.721 119.696C127.251 119.973 126.686 120.112 126.025 120.112C125.31 120.112 124.681 119.947 124.137 119.616C123.603 119.275 123.187 118.795 122.889 118.176C122.601 117.547 122.457 116.816 122.457 115.984C122.457 115.152 122.606 114.421 122.905 113.792C123.203 113.152 123.619 112.661 124.153 112.32C124.697 111.968 125.321 111.792 126.025 111.792C126.675 111.792 127.235 111.931 127.705 112.208C128.185 112.485 128.547 112.891 128.793 113.424V111.984H129.769ZM126.169 119.248C127.001 119.248 127.646 118.96 128.105 118.384C128.563 117.808 128.793 116.997 128.793 115.952C128.793 114.896 128.563 114.08 128.105 113.504C127.646 112.928 126.995 112.64 126.153 112.64C125.31 112.64 124.654 112.939 124.185 113.536C123.715 114.123 123.481 114.939 123.481 115.984C123.481 117.019 123.715 117.824 124.185 118.4C124.654 118.965 125.315 119.248 126.169 119.248Z" fill="#313030"/>
<path d="M99.086 43.8293C82.1076 55.5181 89.8835 48.915 87.9232 56.3318C87.9128 69.9901 87.9232 57.8151 87.9232 57.8151C85.802 61.8087 94.705 65.6992 96.6047 63.5366C99.4267 65.2754 104.329 65.501 106.406 60.8755C106.406 55.4841 116.064 32.1405 99.086 43.8293Z" fill="#FB9C05"/>
<path d="M110.665 35.5991C110.482 34.851 109.917 34.2729 109.205 34.0816C108.493 33.8861 107.725 34.1156 107.216 34.6725C107.184 34.7107 103.736 38.3576 92.2151 42.9736C88.177 44.5803 85.2369 47.6449 83.9438 51.5894C82.8824 54.8112 82.4717 60.1328 86.526 67.1461C86.5707 67.2269 86.6724 67.2524 86.7253 67.3246C83.9722 73.9044 82.2277 80.6669 81.1745 86.3157C71.9882 43.2542 54.6729 34.5662 53.8759 34.1879C52.8511 33.7076 51.6474 34.1794 51.1798 35.2463C50.7203 36.3131 51.1716 37.5755 52.1923 38.0558C52.3875 38.1493 71.7442 47.8872 79.5357 100.202C79.6902 101.239 80.5482 102 81.5445 102C81.5852 102 81.6218 102 81.6584 101.996C82.7035 101.932 83.533 101.056 83.5778 99.9683C83.5859 99.7515 84.3423 83.5402 90.56 68.7698C91.3936 68.9015 92.3167 69.0078 93.3944 69.0078C98.0139 69.0078 104.496 67.2609 109.628 59.1042C109.665 59.0404 109.701 58.9809 109.734 58.9129C114.126 50.0294 110.807 36.1814 110.665 35.5991ZM106.167 56.8642C101.592 64.0688 95.9319 65.0294 92.394 64.7743C94.2605 61.0807 96.5093 57.5868 99.238 54.5902C100.011 53.7401 99.9821 52.3927 99.1648 51.5851C98.3555 50.786 97.0664 50.8073 96.2897 51.6616C93.3171 54.926 90.9097 58.7046 88.8927 62.6533C87.3027 59.0914 86.8717 55.7676 87.7907 52.9708C88.6894 50.2334 90.7755 48.0955 93.6668 46.9351C100.669 44.1298 104.907 41.6432 107.343 39.9345C108.001 44.219 108.64 51.7594 106.167 56.8642Z" fill="#313030"/>
</g>
<defs>
<filter id="filter0_d" x="0" y="0" width="168" height="168" filterUnits="userSpaceOnUse" color-interpolation-filters="sRGB">
<feFlood flood-opacity="0" result="BackgroundImageFix"/>
<feColorMatrix in="SourceAlpha" type="matrix" values="0 0 0 0 0 0 0 0 0 0 0 0 0 0 0 0 0 0 127 0"/>
<feOffset dy="2"/>
<feGaussianBlur stdDeviation="8"/>
<feColorMatrix type="matrix" values="0 0 0 0 0.235764 0 0 0 0 0.244708 0 0 0 0 0.291667 0 0 0 0.08 0"/>
<feBlend mode="multiply" in2="BackgroundImageFix" result="effect1_dropShadow"/>
<feBlend mode="normal" in="SourceGraphic" in2="effect1_dropShadow" result="shape"/>
</filter>
</defs>
</svg>
